<svg width="30" height="23" viewBox="0 0 30 23" fill="none" xmlns="http://www.w3.org/2000/svg">
<mask id="path-1-inside-1_1_12275" fill="white">
<path d="M15.7404 0.751482H15.9534L15.6978 0.646301V0.730446L15.7404 0.751482Z"/>
</mask>
<path d="M15.7404 0.751482L15.6518 0.930821L15.6937 0.951482H15.7404V0.751482ZM15.9534 0.751482V0.951482L16.0295 0.566521L15.9534 0.751482ZM15.6978 0.646301L15.7738 0.46134L15.4978 0.347764V0.646301H15.6978ZM15.6978 0.730446H15.4978V0.854758L15.6092 0.909785L15.6978 0.730446ZM15.7404 0.951482H15.9534V0.551482H15.7404V0.951482ZM16.0295 0.566521L15.7738 0.46134L15.6217 0.831262L15.8773 0.936443L16.0295 0.566521ZM15.4978 0.646301V0.730446H15.8978V0.646301H15.4978ZM15.6092 0.909785L15.6518 0.930821L15.8289 0.572143L15.7863 0.551107L15.6092 0.909785Z" fill="#737373" mask="url(#path-1-inside-1_1_12275)"/>
<path d="M15.2501 1.60123L27.9887 6.88004L25.0154 8.64006C24.5702 8.23207 23.9027 7.90947 23.1236 7.65319C22.3089 7.38523 21.3619 7.18654 20.3964 7.04057C18.4654 6.74861 16.4502 6.66606 15.2501 6.66606C14.0465 6.66606 12.0295 6.74861 10.0985 7.04057C9.13303 7.18654 8.18645 7.38524 7.37268 7.6532C6.59451 7.90944 5.92832 8.232 5.48475 8.63998L2.51161 6.88004L15.2501 1.60123Z" stroke="#737373" stroke-width="0.2"/>
<path d="M15.2504 12.7159C18.2941 12.7159 20.6093 13.0483 22.1606 13.4671C22.9368 13.6767 23.5181 13.9069 23.9031 14.1257C24.0959 14.2353 24.2355 14.3398 24.3256 14.4344C24.4174 14.5307 24.4472 14.6053 24.4472 14.6564C24.4472 14.7087 24.4171 14.784 24.3254 14.8806C24.2353 14.9756 24.0958 15.0804 23.9031 15.1901C23.5181 15.4092 22.9368 15.6392 22.1606 15.8483C20.6093 16.2663 18.2942 16.5969 15.2504 16.5969C12.2066 16.5969 9.89326 16.2663 8.34379 15.8483C7.56848 15.6392 6.98806 15.4092 6.60382 15.1901C6.41144 15.0804 6.27215 14.9756 6.18225 14.8807C6.09082 14.7841 6.06069 14.7088 6.06069 14.6564C6.06069 14.6041 6.09082 14.5287 6.18225 14.4321C6.27215 14.3372 6.41144 14.2324 6.60382 14.1227C6.98806 13.9036 7.56848 13.6736 8.34379 13.4645C9.89326 13.0466 12.2066 12.7159 15.2504 12.7159Z" stroke="#737373" stroke-width="0.2"/>
<path d="M4.2844 21.6309H2.2543V21.1138C2.2543 20.5668 2.70603 20.1126 3.26282 20.1059C3.82643 20.1062 4.2844 20.5604 4.2844 21.1138V21.6309Z" stroke="#737373" stroke-width="0.2"/>
<path d="M6.3802 9.30984L6.38021 9.30985L6.38183 9.30868C7.00467 8.85682 8.224 8.46347 9.7976 8.1841C11.366 7.90566 13.2706 7.74301 15.2506 7.74301C16.1124 7.74301 18.4316 7.86188 20.534 8.17752C21.5859 8.33544 22.5777 8.5418 23.3044 8.80495C23.6684 8.93672 23.9593 9.08047 24.1575 9.23512C24.3564 9.39028 24.4474 9.54446 24.4474 9.69754V13.207C23.3757 12.5774 21.7315 12.1904 20.0593 11.9581C18.3002 11.7136 16.4932 11.6381 15.2506 11.6381C14.0114 11.6381 12.2009 11.7171 10.4401 11.9633C8.76735 12.1972 7.12398 12.5839 6.06142 13.2068C6.06352 12.3199 6.05767 11.6504 6.05322 11.1403C6.04803 10.546 6.04473 10.1683 6.05809 9.91582C6.07092 9.67356 6.09886 9.57044 6.13993 9.50647C6.17611 9.45012 6.22519 9.41643 6.32261 9.34956C6.34016 9.3375 6.35929 9.32437 6.3802 9.30984Z" stroke="#737373" stroke-width="0.2"/>
<path d="M29.331 6.48793L29.3323 6.48845C29.452 6.53682 29.5288 6.64341 29.54 6.77577C29.5507 6.9032 29.4871 7.02109 29.3703 7.08697L29.3703 7.08695L29.3686 7.08797L25.37 9.45104L25.3109 9.48601L25.3223 9.55377L25.3223 9.55382L25.3223 9.55394L25.3224 9.5544L25.3226 9.55612L25.3233 9.56215C25.3235 9.56483 25.3238 9.56794 25.324 9.57151C25.3243 9.57477 25.3245 9.57841 25.3248 9.58245C25.3258 9.59941 25.3268 9.62198 25.3277 9.65066C25.3295 9.70797 25.331 9.78756 25.3321 9.89137C25.3344 10.0989 25.3356 10.401 25.336 10.8108C25.3365 11.2552 25.3362 11.8255 25.3358 12.5379C25.3355 13.1394 25.3351 13.8421 25.3351 14.6559C25.3351 15.1749 24.9413 15.6163 24.2523 15.989C23.5678 16.3593 22.6228 16.644 21.5901 16.8598C19.527 17.2909 17.1428 17.4414 15.8675 17.4659H14.7541C12.3125 17.4344 9.89985 17.1702 8.10064 16.6849C7.20024 16.4421 6.46011 16.1456 5.94735 15.7998C5.43332 15.4532 5.16595 15.0702 5.16592 14.656C5.17257 12.0051 5.16832 10.7852 5.16629 10.2049C5.16616 10.1658 5.16603 10.1295 5.16592 10.096C5.16502 9.82831 5.16509 9.7339 5.16776 9.68577C5.16893 9.66469 5.17051 9.65447 5.17312 9.63976C5.17355 9.63732 5.17402 9.63475 5.17451 9.63202C5.17747 9.61565 5.18148 9.59344 5.18633 9.55753L5.19521 9.49176L5.13806 9.45803L3.76023 8.64463L3.60939 8.55558V8.73074V19.1857V19.2656L3.68724 19.2832C4.53897 19.4768 5.17188 20.2235 5.17188 21.1141V22.1729C5.17188 22.3619 5.019 22.5146 4.82444 22.5146H1.69946C1.50491 22.5146 1.35202 22.3619 1.35202 22.1729V21.1141C1.35202 20.2235 1.98494 19.4768 2.83667 19.2832L2.91451 19.2656V19.1857V8.20484V8.14785L2.86548 8.1188L1.12543 7.08803C1.01463 7.02239 0.950236 6.90386 0.961047 6.77577L0.961127 6.77578L0.961304 6.77176C0.9666 6.65152 1.04701 6.53761 1.16874 6.48845L1.16874 6.48845L1.16988 6.48798L15.2788 0.585968L29.331 6.48793ZM4.38411 21.8311H4.48411V21.7311V21.1141C4.48411 20.4544 3.9339 19.9138 3.2702 19.9061H3.26906C2.59631 19.9061 2.05401 20.4484 2.05401 21.1141V21.7311V21.8311H2.15401H4.38411ZM24.4931 13.4708L24.6473 13.5702V13.3868V9.70542C24.6473 9.46336 24.5022 9.25687 24.2806 9.0834C24.0583 8.90946 23.7448 8.7568 23.3725 8.62183C22.6268 8.3515 21.6193 8.14305 20.5636 7.98498C18.4508 7.66866 16.1216 7.55088 15.2505 7.55088C13.2569 7.55088 11.3404 7.71429 9.75987 7.99506C8.18544 8.27474 6.92847 8.67345 6.2655 9.15379C6.24873 9.16521 6.23208 9.17628 6.21565 9.1872C6.11995 9.25081 6.03181 9.3094 5.97181 9.40181C5.8996 9.51303 5.87119 9.66334 5.85828 9.90698C5.84467 10.1636 5.84801 10.5505 5.85322 11.1544C5.85793 11.7 5.86416 12.4227 5.8608 13.3864L5.86016 13.5706L6.01498 13.4708C7.02846 12.8175 8.71366 12.4075 10.4677 12.1623C12.2172 11.9176 14.0182 11.8389 15.2505 11.8389C16.4866 11.8389 18.284 11.9141 20.0316 12.157C21.7837 12.4005 23.469 12.8105 24.4931 13.4708ZM24.9319 8.83726L24.9868 8.89095L25.0528 8.85186L28.263 6.95159L28.4351 6.84971L28.2504 6.77315L15.2888 1.40191L15.2505 1.38604L15.2122 1.40191L2.25067 6.77315L2.06591 6.84971L2.23801 6.95159L5.44822 8.85186L5.51441 8.89104L5.56926 8.83711C5.97906 8.43421 6.63419 8.10573 7.43564 7.8415C8.23492 7.57799 9.16951 7.3816 10.1287 7.23701C12.0471 6.94784 14.0535 6.86736 15.2505 6.86736C16.4439 6.86736 18.4503 6.94959 20.3696 7.23963C21.3293 7.38466 22.2646 7.58128 23.0644 7.84448C23.8665 8.1084 24.5221 8.43604 24.9319 8.83726ZM5.8608 14.6559C5.8608 14.7824 5.93033 14.9049 6.03712 15.0177C6.14545 15.1321 6.30295 15.2482 6.50486 15.3634C6.90919 15.5939 7.50729 15.8293 8.29181 16.041C9.86199 16.4645 12.1935 16.7964 15.2505 16.7964C18.3076 16.7964 20.6408 16.4645 22.2127 16.041C22.9981 15.8294 23.5971 15.5939 24.0021 15.3634C24.2043 15.2483 24.3621 15.1322 24.4706 15.0178C24.5776 14.905 24.6473 14.7825 24.6473 14.6559C24.6473 14.5294 24.5776 14.4069 24.4706 14.2941C24.3621 14.1797 24.2043 14.0636 24.0021 13.9485C23.5971 13.7179 22.9981 13.4825 22.2127 13.2709C20.6408 12.8474 18.3076 12.5154 15.2505 12.5154C12.1934 12.5154 9.86193 12.8492 8.29176 13.2736C7.50724 13.4856 6.90919 13.7212 6.50491 13.9514C6.30304 14.0664 6.14558 14.1821 6.03728 14.296C5.93061 14.4082 5.8608 14.5301 5.8608 14.6559Z" fill="#737373" stroke="#737373" stroke-width="0.2"/>
</svg>
