<svg width="340" height="290" viewBox="0 0 340 290" fill="none" xmlns="http://www.w3.org/2000/svg">
<g clip-path="url(#clip0_1_12034)">
<path d="M301.608 264.342C301.608 264.342 316.502 219.51 302.881 200.935C289.26 182.286 278.482 174.08 285.293 159.087C292.104 144.093 289.11 119.476 271.073 112.166C253.036 104.855 261.419 77.0308 241.436 61.0673C221.528 45.0291 205.288 52.2649 195.708 32.5715C187.326 15.3398 169.888 -0.996731 152.45 15.7874C148.633 19.4426 146.088 24.2168 144.741 29.4385C143.319 34.8094 138.455 44.2085 121.99 53.6077C96.6933 68.0047 106.722 77.3292 96.5436 93.9642C86.3653 110.599 53.8094 102.244 41.5354 134.172C29.3363 166.099 55.7552 176.841 53.5848 195.937C51.4145 215.034 38.7663 225.477 46.4749 263.82" stroke="#E5C2A5" stroke-miterlimit="10"/>
<path d="M308.868 264.789C308.868 264.789 326.306 215.258 311.562 196.385C296.893 177.586 285.218 169.232 292.627 154.089C299.962 138.946 296.744 114.105 277.285 106.645C257.826 99.1859 266.882 71.1377 245.328 55.025C223.774 38.9122 209.329 40.4787 199.076 20.6361C190.02 3.18064 168.092 -7.48661 149.232 9.37212C145.116 13.1019 142.346 17.9507 140.924 23.1724C139.428 28.6179 134.189 38.0916 116.377 47.5653C89.0596 62.1116 99.9115 71.5107 88.9099 88.3694C77.9082 105.228 47.5976 99.4097 34.0513 127.607C18.9334 159.012 42.4335 171.693 40.1135 190.939C37.7934 210.26 32.0306 225.552 40.338 264.342" stroke="#E5C2A5" stroke-miterlimit="10"/>
<path d="M154.845 25.7833C151.103 29.4385 148.633 34.2126 147.286 39.4344C145.939 44.8799 141.149 54.2044 125.133 63.6035C100.435 78.0006 110.24 87.3251 100.286 103.96C90.3319 120.595 62.042 107.839 50.1422 139.766C38.2425 171.693 65.7092 186.165 63.6136 205.262C61.5181 224.358 45.053 225.477 52.612 263.82H301.833C301.833 263.82 315.155 229.505 301.833 210.931C288.511 192.282 278.033 184.076 284.694 169.082C291.355 154.089 288.361 129.472 270.774 122.162C253.186 114.776 261.344 87.0267 241.885 71.0631C222.426 55.0996 206.485 62.3354 197.205 42.642C188.898 25.3357 171.834 9.07375 154.845 25.7833Z" fill="#F5F5F5"/>
<path d="M155.818 34.7348C152.225 38.2409 149.831 42.7912 148.633 47.7892C147.361 52.9363 142.795 61.9624 127.378 70.914C103.728 84.7143 113.084 93.5912 103.579 109.555C94.0739 125.518 67.0563 113.285 55.6056 143.794C44.1549 174.379 70.499 188.179 68.5531 206.381C66.5324 224.657 50.8157 225.701 58.0753 262.402H296.369C296.369 262.402 309.092 229.58 296.369 211.826C283.646 193.998 273.543 186.165 279.979 171.768C286.341 157.371 283.497 133.948 266.658 126.861C249.818 119.774 257.602 93.2182 238.966 78.0006C220.331 62.783 205.138 69.6458 196.232 50.8476C188.374 34.3619 172.133 18.7713 155.818 34.7348Z" stroke="white" stroke-miterlimit="10"/>
<path d="M247.798 125.295C246.301 124.474 244.43 125.071 244.056 124.549C243.756 124.101 245.627 122.609 246.226 121.043C246.825 119.476 246.151 115.522 243.681 117.387C241.212 119.252 241.062 122.46 241.062 122.46C241.062 122.46 240.987 122.609 240.987 122.907C240.164 120.893 240.613 118.208 240.613 118.133C240.613 117.984 240.538 117.835 240.388 117.835C240.239 117.835 240.089 117.91 240.089 118.059C240.089 118.208 239.715 120.371 240.239 122.385C238.891 120.893 237.02 119.924 236.871 119.924C236.721 119.849 236.571 119.924 236.497 120.073C236.422 120.222 236.497 120.371 236.646 120.446C236.646 120.446 239.415 121.789 240.463 123.728C240.164 123.504 239.939 123.355 239.939 123.355C239.939 123.355 237.395 121.341 234.326 122.012C231.258 122.684 233.877 125.817 235.449 126.339C237.02 126.861 239.341 126.413 239.565 126.936C239.715 127.458 237.993 128.577 237.694 130.218C237.395 131.859 239.341 133.649 240.463 133.724C241.436 133.798 242.933 130.442 242.933 127.98C244.879 129.472 248.097 130.442 248.696 129.621C249.294 128.801 249.294 126.19 247.798 125.295Z" fill="#DBA291"/>
<path d="M125.781 104.074C125.481 102.731 124.059 101.836 124.209 101.388C124.359 100.941 126.304 101.314 127.577 100.866C128.849 100.418 130.945 97.8075 128.4 97.2854C125.855 96.7632 123.835 98.4789 123.835 98.4789C123.835 98.4789 123.685 98.5535 123.535 98.7027C124.284 97.1362 126.23 95.868 126.23 95.868C126.304 95.7934 126.379 95.6442 126.304 95.5696C126.23 95.495 126.08 95.4204 126.005 95.495C125.93 95.5696 124.359 96.5394 123.46 97.9567C123.685 96.3156 123.236 94.6745 123.161 94.5253C123.161 94.3761 123.011 94.3015 122.862 94.3761C122.712 94.3761 122.637 94.5253 122.712 94.6745C122.712 94.6745 123.386 97.0616 122.787 98.7773C122.787 98.4789 122.712 98.2551 122.712 98.2551C122.712 98.2551 122.562 95.6442 120.542 94.0777C118.446 92.5858 117.922 95.868 118.446 97.1362C118.97 98.4043 120.542 99.5978 120.317 99.9708C120.093 100.344 118.446 99.8962 117.249 100.568C116.051 101.314 116.051 103.402 116.575 104.148C117.099 104.82 119.943 103.924 121.515 102.507C121.664 104.521 122.862 106.983 123.61 106.908C124.508 106.908 126.08 105.491 125.781 104.074Z" fill="#DBA291" fill-opacity="0.6"/>
<path d="M169.289 55.2488C168.99 53.906 167.568 53.0109 167.718 52.5633C167.867 52.1157 169.813 52.4887 171.085 52.0411C172.358 51.5936 174.453 48.9827 171.909 48.4605C169.364 47.9384 167.343 49.6541 167.343 49.6541C167.343 49.6541 167.194 49.7287 167.044 49.8779C167.792 48.3113 169.738 47.0432 169.738 47.0432C169.813 46.9686 169.888 46.8194 169.813 46.7448C169.738 46.6702 169.589 46.5956 169.514 46.6702C169.439 46.7448 167.867 47.7146 166.969 49.1319C167.194 47.4908 166.745 45.8497 166.67 45.7005C166.67 45.5513 166.52 45.4767 166.37 45.5513C166.221 45.5513 166.146 45.7005 166.221 45.8497C166.221 45.8497 166.894 48.2367 166.296 49.9525C166.296 49.6541 166.221 49.4303 166.221 49.4303C166.221 49.4303 166.071 46.8194 164.05 45.2529C161.955 43.761 161.431 47.0432 161.955 48.3113C162.479 49.5795 164.05 50.773 163.826 51.146C163.601 51.519 161.955 51.0714 160.757 51.7428C159.56 52.4887 159.56 54.5774 160.084 55.3234C160.608 55.9947 163.452 55.0996 165.023 53.6823C165.173 55.6964 166.37 58.158 167.119 58.0834C167.942 58.0834 169.514 56.5915 169.289 55.2488Z" fill="#DBA291" fill-opacity="0.5"/>
<path d="M131.045 92.323C130.746 92.6959 130.297 92.7705 129.923 92.4722C129.549 92.1738 129.474 91.7262 129.773 91.3532C130.072 90.9802 130.522 90.9056 130.896 91.204C131.27 91.4278 131.345 91.95 131.045 92.323Z" fill="white"/>
<path d="M133.141 88.8916C132.842 89.2645 132.393 89.3391 132.018 89.0408C131.644 88.7424 131.569 88.2948 131.869 87.9218C132.168 87.5488 132.617 87.4742 132.991 87.7726C133.366 88.071 133.44 88.5186 133.141 88.8916Z" fill="white"/>
<path d="M135.536 94.2625C135.237 94.6355 134.787 94.7101 134.413 94.4117C134.039 94.1133 133.964 93.6658 134.264 93.2928C134.563 92.9198 135.012 92.8452 135.386 93.1436C135.76 93.442 135.835 93.8895 135.536 94.2625Z" fill="white"/>
<path d="M239.415 101.722C239.116 102.095 238.667 102.17 238.293 101.871C237.919 101.573 237.844 101.125 238.143 100.752C238.442 100.379 238.892 100.305 239.266 100.603C239.565 100.827 239.64 101.349 239.415 101.722Z" fill="white"/>
<path d="M241.436 98.2907C241.137 98.6637 240.688 98.7383 240.314 98.4399C239.939 98.1415 239.864 97.694 240.164 97.321C240.463 96.948 240.912 96.8734 241.286 97.1718C241.661 97.3956 241.736 97.9177 241.436 98.2907Z" fill="white"/>
<path d="M243.906 103.662C243.606 104.035 243.157 104.109 242.783 103.811C242.409 103.512 242.334 103.065 242.634 102.692C242.933 102.319 243.382 102.244 243.756 102.543C244.056 102.841 244.13 103.289 243.906 103.662Z" fill="white"/>
<path d="M201.171 69.1236C200.872 69.4966 200.423 69.5712 200.049 69.2728C199.675 68.9744 199.6 68.5268 199.899 68.1539C200.199 67.7809 200.648 67.7063 201.022 68.0047C201.396 68.3031 201.471 68.8252 201.171 69.1236Z" fill="white"/>
<path d="M203.267 65.7668C202.968 66.1398 202.519 66.2144 202.144 65.916C201.77 65.6176 201.695 65.17 201.995 64.7971C202.294 64.4241 202.743 64.3495 203.117 64.6479C203.417 64.8717 203.492 65.3938 203.267 65.7668Z" fill="white"/>
<path d="M205.662 71.1378C205.363 71.5108 204.914 71.5854 204.539 71.287C204.165 70.9886 204.09 70.541 204.39 70.168C204.689 69.795 205.138 69.7204 205.512 70.0188C205.887 70.2426 205.961 70.7648 205.662 71.1378Z" fill="white"/>
<path d="M211.574 115.895C211.2 115.597 211.2 115.075 211.5 114.776C211.799 114.403 212.323 114.403 212.622 114.702C212.996 115 212.996 115.522 212.697 115.821C212.473 116.119 211.949 116.119 211.574 115.895Z" fill="white"/>
<path d="M214.867 118.133C214.493 117.835 214.493 117.313 214.793 117.014C215.092 116.641 215.616 116.641 215.915 116.94C216.289 117.238 216.289 117.76 215.99 118.059C215.766 118.357 215.242 118.432 214.867 118.133Z" fill="white"/>
<path d="M209.404 120.222C209.03 119.924 209.03 119.401 209.329 119.103C209.629 118.73 210.152 118.73 210.452 119.028C210.826 119.327 210.826 119.849 210.527 120.147C210.227 120.446 209.703 120.52 209.404 120.222Z" fill="white"/>
<path d="M95.7204 132.754C95.7204 133.351 95.2714 133.799 94.6727 133.799C94.0739 133.799 93.6249 133.351 93.6249 132.754C93.6249 132.157 94.0739 131.71 94.6727 131.71C95.2714 131.71 95.7204 132.157 95.7204 132.754Z" fill="white"/>
<path d="M232.829 80.0893C232.829 80.7607 232.231 81.3574 231.557 81.3574C230.884 81.3574 230.285 80.7607 230.285 80.0893C230.285 79.4179 230.884 78.8212 231.557 78.8212C232.231 78.8212 232.829 79.4179 232.829 80.0893Z" fill="white"/>
<path d="M145.041 119.625C145.041 120.297 144.442 120.893 143.768 120.893C143.095 120.893 142.496 120.297 142.496 119.625C142.496 118.954 143.095 118.357 143.768 118.357C144.442 118.357 145.041 118.954 145.041 119.625Z" fill="white"/>
<path d="M169.289 36.8235C169.289 37.2711 168.915 37.5694 168.541 37.5694C168.092 37.5694 167.792 37.1965 167.792 36.8235C167.792 36.3759 168.167 36.0775 168.541 36.0775C168.99 36.0775 169.289 36.4505 169.289 36.8235Z" fill="white"/>
<path d="M228.638 150.433C228.638 151.105 228.114 151.552 227.516 151.552C226.842 151.552 226.393 151.03 226.393 150.433C226.393 149.762 226.917 149.314 227.516 149.314C228.114 149.24 228.638 149.762 228.638 150.433Z" fill="white"/>
<path d="M153.049 63.0068C153.049 63.6782 152.525 64.1257 151.926 64.1257C151.253 64.1257 150.803 63.6036 150.803 63.0068C150.803 62.3354 151.327 61.8878 151.926 61.8878C152.525 61.8132 153.049 62.3354 153.049 63.0068Z" fill="white"/>
<path d="M25.9685 255.465H333.64C335.886 255.465 336.559 258.598 334.464 259.418C313.882 267.848 259.323 286.944 182.835 289.108C111.736 291.122 52.3126 272.696 24.771 262.253C21.029 260.91 22.0767 255.465 25.9685 255.465Z" fill="#F7E4D2"/>
<path d="M128.501 191.238C127.827 179.153 115.104 176.691 113.832 173.707C112.56 170.724 110.539 164.532 101.333 161.623C92.128 158.714 86.4401 164.085 81.3509 160.802C76.1869 157.52 71.6216 154.76 65.4846 158.937C59.3476 163.04 55.0068 161.548 46.1756 160.578C37.3443 159.609 30.3093 168.113 30.3093 168.113C26.8666 171.246 30.1596 175.274 38.3173 177.213C49.8428 179.973 46.5498 187.433 52.6868 190.492C58.8237 193.475 66.0833 190.492 70.7235 194.147C75.3636 197.802 74.9894 204.441 80.7522 206.008C86.5149 207.574 93.2506 203.77 96.4688 206.008C99.7618 208.245 101.558 214.884 105.45 217.197C109.341 219.509 120.418 220.032 120.418 220.032L123.112 219.36C123.112 219.286 129.249 203.322 128.501 191.238Z" fill="#B9BC7E" fill-opacity="0.3"/>
<path d="M121.316 215.481C121.316 215.481 118.397 190.79 101.333 179.526C84.2697 168.262 56.2791 167.963 47.822 167.516C39.365 167.068 39.365 167.068 39.365 167.068C39.365 167.068 73.5674 164.905 90.5563 171.768C113.907 181.242 120.568 196.683 121.316 215.481Z" fill="#FFFBF4"/>
<path d="M108.818 189.447C108.818 189.447 94.5229 176.766 92.4274 166.173C90.257 155.581 96.6185 151.627 92.3525 146.331C88.0866 140.96 90.0324 131.337 94.5977 128.95C99.1631 126.488 101.034 121.192 101.483 113.807C101.932 106.422 107.545 103.736 109.267 105.75C114.056 111.345 111.662 117.089 118.996 120.67C126.33 124.25 128.95 131.635 127.079 137.677C125.208 143.72 133.365 145.659 138.679 154.909C144.068 164.159 140.176 171.917 137.856 177.661C135.536 183.405 141.897 190.417 139.577 197.131C137.257 203.844 121.466 214.81 121.466 214.81C121.466 214.81 113.907 212.124 108.818 189.447Z" fill="#CFC293" fill-opacity="0.5"/>
<path d="M108.668 116.045C108.668 116.045 113.383 134.171 119.071 157.52C124.759 180.869 125.732 209.663 125.732 209.663C125.732 209.663 129.025 188.776 124.759 169.157C120.493 149.538 109.042 119.028 108.668 116.045Z" fill="#FFFBF4"/>
<path d="M110.689 198.921C108.743 189 118.547 184.375 118.996 181.689C119.37 179.004 119.819 173.558 126.63 169.306C133.44 165.054 139.203 168.262 142.646 164.532C146.163 160.802 149.307 157.669 155.069 159.758C160.907 161.847 164.05 159.758 171.011 157.147C177.971 154.536 185.38 159.982 185.38 159.982C188.823 161.847 186.952 165.726 180.74 169.008C171.983 173.633 176.175 179.004 171.834 182.659C167.493 186.389 160.982 185.419 157.988 189.373C154.995 193.252 156.641 198.548 152.3 201.01C147.959 203.471 141.748 201.756 139.577 204.217C137.407 206.679 137.332 212.423 134.638 215.108C131.943 217.794 123.112 220.479 123.112 220.479H120.792C120.867 220.554 112.634 208.842 110.689 198.921Z" fill="#B9BC7E" fill-opacity="0.3"/>
<path d="M121.541 217.122C121.541 217.122 118.771 196.534 130.297 183.927C141.822 171.32 164.424 165.353 171.16 163.264C177.896 161.175 177.896 161.175 177.896 161.175C177.896 161.175 149.756 166.397 137.407 175.498C120.493 187.806 118.322 201.681 121.541 217.122Z" fill="#FFFBF4"/>
<path d="M114.805 217.048C114.805 217.048 96.0198 211.901 86.1408 216.451C76.2618 220.927 74.4656 227.118 74.4656 227.118C74.4656 227.118 78.6567 228.61 86.7395 227.491C94.7475 226.372 95.945 221.598 101.558 223.911C107.171 226.148 108.967 228.312 113.682 226.969C118.397 225.626 120.792 220.554 120.792 220.554L114.805 217.048Z" fill="#9A9B82" fill-opacity="0.3"/>
<path d="M124.085 217.719C124.085 217.719 129.174 211.901 136.434 212.274C143.768 212.647 145.041 215.183 148.633 215.407C152.225 215.556 154.246 214.437 159.111 216.078C163.976 217.719 166.819 219.957 166.819 219.957C166.819 219.957 161.805 227.118 154.096 225.253C146.313 223.388 140.475 222.195 137.931 224.806C135.386 227.417 119.445 222.642 119.445 222.642L124.085 217.719Z" fill="#9A9B82" fill-opacity="0.3"/>
<path d="M232.829 194.669C232.829 194.669 243.382 201.457 265.161 205.187C286.865 208.991 296.07 202.8 297.268 199.891C298.465 196.981 294.873 195.415 280.728 192.804C266.583 190.193 262.766 187.06 269.726 186.24C276.686 185.419 286.49 191.61 294.873 191.61C303.255 191.61 309.018 187.209 309.242 184.151C309.467 181.092 284.096 180.346 280.952 175.945C277.734 171.544 297.342 176.169 305.799 177.363C314.256 178.556 317.624 171.992 317.026 169.828C316.427 167.665 295.92 166.919 293.9 163.935C291.879 160.877 302.506 161.996 311.637 163.935C320.842 165.875 325.408 159.087 324.21 157.52C323.013 155.954 306.099 154.76 304.303 151.776C302.506 148.792 313.508 149.613 319.046 150.806C324.659 152 330.572 146.629 328.626 144.839C326.605 143.048 314.107 142.452 313.658 139.841C313.284 137.23 330.422 138.647 329 134.843C327.578 131.038 322.863 127.532 315.454 127.383C308.045 127.234 301.309 134.992 297.342 132.605C293.376 130.218 307.147 124.474 303.554 122.236C299.962 120.073 291.954 121.266 289.185 124.996C286.416 128.801 286.191 135.141 283.197 134.917C280.204 134.694 285.368 125.742 282.823 123.803C280.204 121.788 273.468 125.966 272.046 129.994C270.624 133.948 272.271 141.929 269.427 142.302C266.658 142.675 270.1 129.621 267.705 128.428C265.31 127.234 257.527 134.992 257.302 139.766C257.078 144.54 259.697 152.075 255.506 153.268C251.315 154.462 252.138 139.542 248.92 138.2C245.702 136.782 239.341 145.958 240.313 153.417C241.286 160.877 243.532 166.994 240.538 166.994C237.544 166.994 235.374 157.445 232.979 155.879C230.584 154.312 228.414 158.266 227.815 168.411C227.067 178.556 231.856 192.207 232.829 194.669Z" fill="#D1C795" fill-opacity="0.5"/>
<path d="M229.462 211.005C229.462 211.005 240.688 182.361 253.71 166.472C266.732 150.583 291.879 141.034 304.003 140.363C304.003 140.363 275.339 145.659 256.928 168.411C238.517 191.088 231.557 222.195 231.557 222.195L226.543 221.225L229.462 211.005Z" fill="#FFFBF4"/>
<path d="M26.5673 253.078C26.5673 253.078 28.139 247.11 35.9973 244.35C43.8556 241.59 44.9782 248.975 49.9177 248.677C54.8572 248.378 57.1773 257.926 57.1773 257.926H24.7711L26.5673 253.078Z" fill="#9A9B82" fill-opacity="0.5"/>
<path d="M45.5021 257.628C45.053 255.39 44.3794 252.854 43.4813 250.094C44.9033 247.334 48.9447 238.606 48.7951 228.013C48.6454 215.183 39.7393 201.681 39.7393 201.681C39.7393 201.681 37.4192 223.612 41.311 243.828C38.6167 236.592 35.174 228.759 31.9558 221.896C33.303 219.062 35.7727 212.945 35.7727 205.709C35.7727 195.713 28.8873 185.195 28.8873 185.195C28.8873 185.195 27.0163 201.457 29.6357 216.899C27.3157 211.975 25.2201 207.947 24.0227 205.56C23.7981 202.203 22.9749 196.235 19.9064 190.417C15.1914 181.54 4.18976 175.423 4.18976 175.423C4.18976 175.423 11.15 193.177 22.0019 206.008C22.9749 207.947 24.6214 211.229 26.6421 215.257C25.1453 213.02 23.1994 210.707 20.8045 208.544C13.2455 202.129 0.74707 200.264 0.74707 200.264C0.74707 200.264 14.9669 215.929 30.6087 223.836C32.2552 227.342 33.9017 231.072 35.5482 234.876C33.752 232.415 31.5068 229.878 28.8125 227.566C19.0831 219.136 3.06714 216.899 3.06714 216.899C3.06714 216.899 20.4303 235.846 39.9638 246.066C41.6103 250.541 42.8826 254.644 43.5562 258.076L45.5021 257.628Z" fill="#B9BC7E" fill-opacity="0.5"/>
<path d="M301.683 251.586H311.562C311.562 251.586 316.053 243.38 326.83 237.785C337.607 232.191 338.804 225.403 339.253 222.195C339.703 219.062 335.062 220.703 327.952 224.88C320.917 229.058 319.046 239.054 315.978 238.904C312.909 238.681 314.78 227.267 321.366 223.538C327.952 219.808 333.117 210.632 334.763 204.814C336.41 198.995 323.013 203.173 316.651 210.185C310.29 217.197 311.263 234.354 306.548 236.517C301.833 238.681 310.065 224.284 300.561 218.465C296.744 216.078 295.771 222.866 296.893 231.37C298.166 239.874 304.003 243.828 301.683 251.586Z" fill="#9A9B82" fill-opacity="0.5"/>
<path d="M285.068 256.658C285.068 256.658 302.357 258.523 315.753 258.523C329.15 258.523 334.239 257.33 334.239 257.33C334.239 257.33 331.32 251.884 322.788 249.795C314.182 247.781 313.358 252.854 309.616 249.795C305.874 246.737 298.989 244.499 293.002 246.215C286.94 247.931 285.068 256.658 285.068 256.658Z" fill="#D7CA8C" fill-opacity="0.5"/>
<path d="M174.828 272.323C231.992 272.323 278.333 268.55 278.333 263.894C278.333 259.239 231.992 255.465 174.828 255.465C117.663 255.465 71.3223 259.239 71.3223 263.894C71.3223 268.55 117.663 272.323 174.828 272.323Z" fill="#E2C9B5"/>
</g>
<path d="M110.382 212.293C110.235 212.293 110.161 212.367 110.014 212.367C106.411 212.513 102.807 212.22 99.3509 211.045C95.9682 209.87 92.9531 208.107 90.2322 205.831C87.2171 203.408 84.6433 200.544 82.6577 197.166C80.6722 193.788 79.3485 190.116 78.7602 186.151C78.4661 184.094 78.3925 181.965 78.5396 179.909C78.7602 175.503 79.7897 171.243 81.5547 167.205C82.6577 164.561 84.055 162.064 85.8199 159.788C85.9669 159.641 86.114 159.421 85.967 159.2C85.8199 158.906 85.5993 158.98 85.3787 159.053C83.7608 159.127 82.143 159.053 80.5987 158.392C77.5836 157.218 75.9658 154.941 75.2304 151.857C75.1568 151.563 75.2304 151.196 75.0098 150.902C75.0098 150.682 75.0098 150.462 75.0098 150.241C75.1568 149.801 75.3039 149.433 75.5245 149.066C76.1864 148.259 77.0688 147.965 78.0984 148.259C79.1279 148.479 79.7162 149.213 79.9368 150.241C80.0104 150.755 80.1574 151.343 80.3045 151.857C80.5251 152.371 80.8193 152.885 81.3341 153.252C81.3341 153.252 81.3341 153.252 81.3341 153.326C81.3341 153.326 81.3341 153.326 81.2605 153.326C81.187 152.811 80.8928 152.297 80.7457 151.783C80.0104 149.36 80.5251 147.084 81.7753 144.954C82.4371 143.852 83.9079 143.485 85.011 144.146C86.114 144.734 86.6288 146.202 86.0405 147.377C85.7463 147.965 85.4522 148.626 85.3787 149.287C85.3051 149.948 85.4522 150.608 85.8199 151.122C86.0405 151.49 86.1876 151.122 86.2611 150.976C87.2171 149.58 88.3937 148.479 89.938 147.818C93.5414 146.129 98.1743 147.451 100.38 150.755C101.116 151.857 100.895 153.399 99.7921 154.133C98.6155 154.941 97.1448 154.721 96.3359 153.546C95.5269 152.444 94.4239 151.857 93.0266 152.004C91.5559 152.151 90.5999 152.958 90.0851 154.354C89.4968 156.116 90.3792 157.952 92.0706 158.686C93.6885 159.347 95.674 158.686 96.4829 157.071C96.7035 156.557 96.9242 156.043 97.4389 155.675C98.3949 154.941 99.5715 154.941 100.454 155.602C101.41 156.263 101.778 157.438 101.336 158.539C100.16 161.33 98.1743 163.019 95.2328 163.68C94.1297 163.9 93.0266 163.973 91.9236 163.68C91.6294 163.606 91.4823 163.753 91.3352 163.973C88.6879 167.351 87.07 171.243 86.114 175.429C85.5257 177.999 85.3051 180.57 85.4522 183.213C85.7463 188.354 87.5113 192.98 90.9675 196.945C93.3943 199.736 96.1888 202.086 99.498 203.701C101.484 204.656 103.616 205.243 105.822 205.464C107.587 205.611 109.426 205.611 111.191 205.39C111.191 205.831 110.97 206.198 110.896 206.565C110.529 208.401 110.382 210.384 110.382 212.293Z" fill="#FBBB8F"/>
<path d="M174.728 277.429C174.433 277.355 174.139 277.282 173.845 277.209C172.521 276.695 171.786 275.666 171.565 274.271C171.198 271.407 170.757 268.617 170.389 265.753C170.315 265.092 170.242 264.431 170.021 263.77C169.948 264.284 169.874 264.798 169.801 265.239C169.359 268.25 168.992 271.26 168.624 274.271C168.33 276.254 166.638 277.576 164.653 277.355C162.741 277.062 161.491 275.226 161.785 273.243C162.153 270.967 162.373 268.69 162.741 266.414C162.888 265.386 163.035 264.358 163.182 263.256C163.182 263.036 163.256 262.962 162.961 262.889C160.535 262.448 158.108 262.008 155.681 261.494C155.534 261.494 155.387 261.494 155.313 261.494C155.534 260.172 155.755 258.85 155.975 257.528C156.122 256.574 156.196 255.546 156.49 254.591C157.52 254.885 158.623 255.031 159.652 255.178C161.711 255.546 163.844 255.913 165.903 256.353C167.521 256.647 169.286 256.647 170.242 258.483C170.977 257.161 172.08 256.72 173.33 256.574C174.654 256.353 175.978 256.206 177.228 255.839C177.963 255.619 178.699 255.546 179.434 255.399C180.978 255.105 182.523 254.811 184.067 254.591C184.067 254.664 184.14 254.664 184.14 254.738C184.508 256.941 184.876 259.217 185.244 261.42C182.817 261.861 180.316 262.375 177.89 262.816C177.228 262.962 177.154 262.962 177.301 263.623C177.669 266.193 178.037 268.69 178.331 271.26C178.478 272.142 178.625 272.949 178.625 273.831C178.699 275.74 177.522 277.135 175.61 277.429C175.536 277.429 175.463 277.502 175.463 277.502C175.095 277.429 174.948 277.429 174.728 277.429Z" fill="#FBBB8F"/>
<path d="M205.761 150.756C205.172 154.868 204.069 158.834 202.452 162.726C201.128 165.957 199.363 168.968 197.304 171.758C195.392 174.328 193.186 176.678 190.612 178.661C190.465 178.734 190.244 178.808 190.244 179.028C190.024 179.028 189.876 179.175 189.729 179.322C188.479 180.277 187.156 181.084 185.832 181.819C183.185 183.287 180.39 184.315 177.449 184.976C175.242 185.49 172.963 185.711 170.757 185.784C169.433 185.858 168.183 185.711 166.859 185.637C165.462 185.49 164.065 185.27 162.667 184.976C158.476 183.948 154.578 182.259 151.048 179.689C150.754 179.469 150.46 179.102 150.019 179.028C149.651 178.441 148.989 178.147 148.474 177.706C146.562 176.091 144.871 174.328 143.4 172.346C138.914 166.618 136.267 160.082 134.87 152.959C134.723 152.225 134.649 151.49 134.502 150.756C135.458 150.683 136.267 150.242 136.855 149.508C137.959 148.186 138.253 146.644 138.326 145.028C138.4 142.678 138.4 140.255 138.547 137.905C138.62 136.877 138.767 135.922 138.914 134.894C139.062 134.086 139.209 133.352 139.356 132.544C139.356 132.471 139.429 132.471 139.429 132.397C139.797 130.929 140.238 129.533 140.974 128.285C142.371 125.788 144.356 124.099 147.151 123.365C148.842 122.924 150.607 122.851 152.372 122.851C152.96 122.778 153.622 122.924 154.21 122.998C156.196 123.218 158.108 123.659 160.093 124.173C162.741 124.834 165.462 125.348 168.256 125.421C170.315 125.495 172.374 125.495 174.433 125.201C176.787 124.907 179.066 124.393 181.346 123.879C183.037 123.512 184.655 123.145 186.347 122.924C186.714 122.998 187.008 122.851 187.376 122.851C189.435 122.778 191.494 122.851 193.48 123.438C195.392 124.026 196.936 125.054 198.186 126.523C199.51 128.138 200.319 129.974 200.834 132.03C201.054 132.985 201.275 133.866 201.496 134.821C201.569 135.335 201.496 135.849 201.643 136.363C201.937 138.125 201.863 139.888 202.01 141.724C202.084 142.678 202.01 143.633 202.01 144.587C202.01 145.909 202.231 147.158 202.746 148.333C203.26 149.581 204.216 150.536 205.761 150.756ZM169.653 174.916C171.639 174.916 173.036 174.696 174.433 174.255C177.228 173.374 179.508 171.832 181.346 169.555C181.64 169.188 181.861 168.821 181.787 168.38C181.714 167.866 181.42 167.499 180.905 167.352C180.317 167.205 179.875 167.426 179.508 167.866C177.449 170.436 174.728 171.978 171.418 172.346C167.08 172.786 163.476 171.244 160.682 167.866C160.167 167.205 159.432 167.058 158.843 167.499C158.255 167.94 158.182 168.674 158.696 169.335C161.638 173.007 165.462 174.769 169.653 174.916ZM153.181 154.721C154.358 154.795 155.166 154.721 155.902 154.501C158.77 153.693 160.682 151.857 161.564 148.994C161.785 148.186 161.197 147.451 160.314 147.451C159.726 147.451 159.358 147.745 159.138 148.479C158.182 151.343 155.093 152.959 152.225 151.931C150.46 151.343 149.357 150.168 148.769 148.406C148.622 147.892 148.327 147.451 147.666 147.378C146.636 147.305 146.048 148.112 146.415 149.214C147.518 152.518 150.46 154.575 153.181 154.721ZM186.641 154.721C186.788 154.721 187.009 154.721 187.156 154.721C187.376 154.721 187.523 154.648 187.744 154.648C190.832 153.914 192.892 152.078 193.848 149.067C194.142 148.186 193.48 147.451 192.597 147.525C192.009 147.525 191.715 147.819 191.421 148.553C190.465 151.27 187.744 152.886 184.949 152.151C183.037 151.711 181.714 150.462 181.052 148.553C180.905 148.259 180.831 147.892 180.537 147.745C180.096 147.451 179.508 147.378 179.066 147.672C178.625 147.965 178.405 148.479 178.552 149.067C179.655 152.518 183.037 154.942 186.641 154.721ZM187.376 139.08C185.905 139.08 184.435 139.227 182.964 139.667C182.523 139.814 182.155 140.108 182.081 140.549C181.861 141.577 182.67 142.311 183.773 142.017C185.905 141.43 188.038 141.43 190.171 141.87C190.612 141.944 191.053 142.164 191.494 142.091C192.083 142.017 192.524 141.577 192.524 141.063C192.597 140.328 192.303 139.888 191.568 139.667C190.244 139.227 188.773 139.08 187.376 139.08ZM155.093 139.08C153.622 139.08 152.225 139.227 150.828 139.667C150.019 139.888 149.651 140.475 149.872 141.21C150.019 141.87 150.754 142.238 151.49 142.017C153.916 141.356 156.27 141.356 158.696 142.017C159.064 142.091 159.432 142.164 159.799 141.944C160.241 141.65 160.461 141.21 160.388 140.695C160.314 140.181 160.02 139.888 159.505 139.741C158.034 139.227 156.564 139.006 155.093 139.08Z" fill="#FBBB8F"/>
<path d="M131.414 242.915C129.796 241.814 128.325 240.639 126.928 239.244C124.354 236.6 122.442 233.516 120.971 230.211C119.721 227.494 118.765 224.63 118.03 221.693C117.515 219.49 117.147 217.287 117.074 215.01C117 213.909 117 212.881 117 211.779C117 211.559 117.074 211.339 117.074 211.118C117.074 210.237 117.147 209.356 117.294 208.475C117.589 206.712 117.956 204.95 118.545 203.261C119.721 199.81 121.413 196.652 123.766 193.861C126.56 190.41 129.796 187.619 133.546 185.27C136.635 183.36 139.944 181.745 143.4 180.57C143.621 180.496 143.842 180.423 144.062 180.423C144.062 180.717 144.209 180.864 144.43 181.01C145.018 181.304 145.386 181.818 145.901 182.259C147.372 183.507 148.916 184.609 150.534 185.637C152.519 186.812 154.578 187.84 156.711 188.721C158.917 189.602 161.197 190.41 163.55 190.924C165.168 191.291 166.786 191.658 168.477 191.952C169.654 192.172 170.83 192.319 172.007 192.393C173.183 192.393 174.434 192.613 175.61 192.54C175.831 192.54 176.346 192.319 176.346 192.833C176.272 192.907 176.272 192.907 176.199 192.98C172.889 195.624 169.727 198.414 166.712 201.352C162.741 205.17 158.991 209.136 155.387 213.175C152.813 216.039 150.313 218.976 147.813 221.987C146.342 223.749 144.871 225.585 143.474 227.421C142.886 228.155 142.297 228.963 141.709 229.697C140.974 230.578 140.385 231.533 139.65 232.341C139.503 232.267 139.429 232.047 139.356 231.9C137.15 227.421 135.164 222.794 133.546 218.095C132.37 214.79 131.34 211.486 130.605 208.034C130.384 207.08 130.237 206.125 130.016 205.097C129.502 205.391 128.987 205.684 128.472 205.978C128.252 204.73 127.663 203.628 127.001 202.527C126.781 202.086 126.487 202.086 126.266 202.527C125.898 203.188 125.604 203.848 125.384 204.583C124.869 205.758 124.501 207.006 124.281 208.254C123.986 209.503 123.913 210.751 123.839 211.926C123.692 213.909 123.913 215.892 124.281 217.874C125.089 222.207 126.487 226.393 128.766 230.211C130.752 233.589 133.399 236.38 137.003 237.995C138.988 238.877 141.121 239.464 143.327 239.464C143.474 239.611 143.695 239.537 143.842 239.537C145.092 239.537 146.416 239.537 147.666 239.391C149.945 239.097 152.078 238.509 154.211 237.702C154.358 237.628 154.431 237.628 154.505 237.481C154.652 237.114 154.799 236.674 154.946 236.306C154.946 236.233 155.019 236.233 155.019 236.159C155.019 236.159 155.019 236.086 155.093 236.086C155.314 235.792 155.461 235.499 155.681 235.205C156.784 233.736 158.182 232.708 159.799 231.9C161.05 231.386 162.3 231.019 163.697 230.872C163.771 230.872 163.844 230.872 163.918 230.872C164.359 230.872 164.8 230.872 165.241 230.872H165.315H165.388C167.006 231.019 168.551 231.533 170.021 232.267C171.345 233.002 172.448 233.956 173.551 234.911C174.066 235.499 174.581 236.086 175.095 236.747C176.051 237.922 175.904 239.391 174.801 240.345C173.772 241.226 172.227 241.08 171.271 239.905C170.463 238.95 169.654 237.995 168.624 237.261C166.05 235.278 162.962 235.278 160.535 237.261C159.138 238.363 158.77 240.125 159.505 241.667C160.241 243.136 161.932 243.87 163.623 243.429C164.727 243.136 165.683 243.356 166.491 244.164C167.595 245.706 166.859 247.542 165.462 248.056C164.212 248.496 162.962 248.643 161.711 248.496C160.241 248.35 158.991 247.762 157.74 246.954C157.005 246.367 156.27 245.706 155.755 244.898C155.681 244.751 155.534 244.751 155.387 244.825C154.284 245.265 153.107 245.486 152.004 245.779C150.24 246.073 148.548 246.367 146.783 246.514C143.695 246.734 140.753 246.44 137.812 245.633C135.385 245.045 133.326 244.09 131.414 242.915Z" fill="#FBBB8F"/>
<path d="M143.547 227.421C144.945 225.585 146.415 223.75 147.886 221.987C150.313 218.976 152.813 216.039 155.461 213.175C159.137 209.063 162.888 205.097 166.785 201.352C169.801 198.415 172.963 195.624 176.272 192.981C176.345 192.907 176.345 192.907 176.419 192.834C177.007 192.393 177.596 191.953 178.184 191.512C182.596 188.207 187.156 185.27 192.303 183.361C193.995 182.7 195.76 182.259 197.598 182.039C198.407 181.966 199.142 182.039 199.951 181.892C201.716 182.406 203.334 183.361 204.878 184.315C204.878 184.462 205.025 184.462 205.099 184.536C207.084 186.004 208.482 187.914 209.438 190.19C210.247 192.1 210.688 194.156 210.908 196.212C211.055 197.313 211.129 198.488 211.055 199.59C211.055 201.573 210.908 203.482 210.614 205.465C210.247 208.108 209.732 210.752 208.996 213.322C208.482 215.378 207.893 217.508 207.158 219.49C207.084 219.123 206.864 218.976 206.496 218.976C205.393 218.976 204.29 219.05 203.26 219.197C202.819 219.27 202.452 219.123 202.084 219.197C201.569 219.344 201.054 219.49 200.539 219.564C199.804 219.637 198.995 219.711 198.333 219.931C197.672 220.151 197.083 220.225 196.421 220.225C194.804 220.151 193.333 220.665 191.936 221.473C191.347 221.767 190.685 222.134 190.024 222.061C189.876 222.061 189.803 222.061 189.656 222.134C188.92 222.501 188.038 222.501 187.229 222.795C186.494 223.015 185.685 223.015 184.949 223.162C184.067 223.309 183.332 223.897 182.449 223.823C182.376 223.823 182.302 223.823 182.228 223.897C181.346 224.484 180.39 224.778 179.434 225.071C178.919 225.218 178.331 225.586 177.743 225.439C177.375 225.365 177.154 225.365 176.787 225.439C176.493 225.439 176.345 225.953 175.904 225.732C176.051 225.439 176.198 225.218 176.345 224.925C176.934 223.897 177.596 222.795 178.184 221.767C178.331 221.693 178.331 221.62 178.405 221.547C179.802 219.344 181.272 217.141 182.817 215.084C184.655 212.588 186.567 210.164 188.553 207.741C189.876 206.199 191.2 204.657 192.524 203.188C193.039 202.601 193.112 201.793 192.597 201.352C192.083 200.912 191.274 200.912 190.759 201.499C189.362 203.041 187.964 204.583 186.641 206.199C185.17 207.888 183.773 209.65 182.449 211.486C181.052 213.322 179.728 215.158 178.478 216.994C177.301 218.756 176.125 220.519 175.095 222.428C174.213 223.75 173.477 225.145 172.742 226.54C172.227 226.54 171.639 226.614 171.124 226.467C170.609 226.32 170.168 226.32 169.801 226.614C169.506 226.76 169.212 226.76 168.918 226.687C168.624 226.614 168.33 226.54 168.036 226.687C167.447 227.054 166.933 226.981 166.344 226.614C165.977 226.393 165.535 226.173 165.241 226.246C164.8 226.393 164.432 226.246 163.991 226.173C163.403 226.026 162.888 225.953 162.3 226.246C161.785 226.614 161.049 226.246 160.608 226.687C160.608 226.687 160.461 226.687 160.388 226.687C159.505 226.54 158.696 226.1 157.887 225.732C157.887 225.585 157.961 225.512 158.034 225.439C159.652 223.309 161.344 221.179 163.035 219.123C163.109 219.05 163.256 218.976 163.329 218.903C164.285 217.728 165.241 216.627 166.344 215.598C167.741 214.13 169.139 212.661 170.609 211.266C172.154 209.871 173.625 208.402 175.169 207.007C176.492 205.832 177.89 204.583 179.213 203.482C180.978 202.013 182.743 200.618 184.582 199.223C187.744 196.799 190.98 194.449 194.289 192.173C196.054 190.925 197.892 189.823 199.731 188.648C200.466 188.207 200.466 187.4 200.172 186.886C199.878 186.298 198.995 186.225 198.333 186.592C196.127 187.914 193.995 189.309 191.936 190.778C188.7 192.981 185.538 195.331 182.376 197.754C180.243 199.369 178.184 201.058 176.198 202.821C174.36 204.436 172.521 205.979 170.757 207.668C169.065 209.283 167.3 210.899 165.756 212.588C164.432 214.056 163.035 215.452 161.711 216.994C161.27 217.508 160.682 218.022 160.388 218.609C160.167 218.756 160.02 218.903 159.873 219.123C158.181 221.179 156.564 223.236 155.093 225.365C154.431 226.393 153.769 227.421 153.034 228.376C152.446 228.376 151.857 228.303 151.195 228.229C150.166 228.082 149.136 227.642 148.107 227.789C147.151 227.935 146.195 227.421 145.239 227.495C144.65 227.421 144.136 227.421 143.547 227.421Z" fill="#F26E22"/>
<path d="M258.708 153.179C259.517 152.592 259.812 151.711 259.959 150.756C260.106 149.948 260.253 149.141 261.062 148.553C261.797 148.039 262.974 147.892 263.783 148.406C264.739 148.994 265.106 149.948 264.959 150.976C264.739 152.739 264.15 154.354 263.047 155.823C261.797 157.512 260.032 158.393 258.047 158.834C256.944 159.054 255.84 159.054 254.737 159.054C254.517 159.054 254.296 158.981 254.149 159.201C254.002 159.495 254.149 159.642 254.296 159.862C256.797 163.093 258.561 166.691 259.812 170.583C260.62 173.007 261.135 175.503 261.429 178C261.65 179.91 261.724 181.819 261.576 183.728C261.356 187.106 260.62 190.337 259.37 193.421C257.752 197.24 255.473 200.545 252.531 203.482C250.031 205.979 247.237 208.108 244.001 209.65C241.353 210.972 238.559 211.78 235.617 212.147C233.779 212.367 232.014 212.294 230.176 212.294C230.029 212.294 229.955 212.294 229.882 212.221C229.882 211.853 229.955 211.56 229.955 211.192C229.955 209.871 229.734 208.622 229.587 207.374C229.514 206.64 229.146 205.979 229.146 205.318C230.249 205.391 231.279 205.465 232.382 205.465C236.206 205.465 239.736 204.363 242.971 202.307C246.207 200.177 249.075 197.534 251.134 194.229C252.972 191.365 254.076 188.281 254.443 184.903C255.252 178 253.487 171.611 249.957 165.737C249.59 165.076 249.075 164.562 248.634 163.901C248.487 163.681 248.34 163.681 248.045 163.681C244.148 164.415 240.103 162.212 238.706 158.54C238.044 156.925 239.074 155.162 240.839 155.015C241.648 154.942 242.824 155.382 243.265 156.557C243.633 157.512 244.295 158.173 245.177 158.54C246.428 159.054 247.678 158.907 248.707 158.026C249.884 157.071 250.325 155.823 249.884 154.428C249.516 153.106 248.56 152.225 247.237 151.931C245.692 151.637 244.516 152.225 243.633 153.4C242.971 154.281 242.089 154.575 241.133 154.354C240.177 154.134 239.515 153.547 239.294 152.592C239 151.49 239.441 150.683 240.177 149.875C242.015 147.819 244.295 146.717 247.089 146.864C249.884 147.011 252.164 148.333 253.708 150.683C254.076 151.197 254.076 151.197 254.37 150.609C254.958 149.508 254.664 148.406 254.149 147.378C253.781 146.717 253.634 146.056 253.855 145.322C254.149 144.294 254.884 143.706 255.84 143.56C256.796 143.413 257.605 143.706 258.194 144.514C259.003 145.689 259.444 147.011 259.591 148.48C259.738 149.948 259.517 151.344 258.856 152.665C258.782 152.959 258.708 153.106 258.708 153.179C258.708 153.253 258.708 153.253 258.708 153.179Z" fill="#FBBB8F"/>
<path d="M210.688 205.464C210.982 203.555 211.129 201.572 211.129 199.589C211.129 198.488 211.056 197.313 210.982 196.212C210.761 194.155 210.32 192.099 209.511 190.19C208.555 187.913 207.158 186.004 205.173 184.535C205.099 184.462 204.952 184.389 204.952 184.315C205.687 184.535 206.276 184.976 206.937 185.417C210.1 187.326 212.894 189.676 215.321 192.393C218.042 195.477 220.174 198.855 221.572 202.747C221.645 202.967 221.792 203.188 221.866 203.408C221.866 203.628 221.939 203.922 222.013 204.142C222.748 206.419 223.189 208.769 223.263 211.192C223.41 212.294 223.41 213.395 223.336 214.57C223.263 216.406 223.042 218.242 222.675 220.004C221.498 225.585 219.586 230.872 216.35 235.646C214.365 238.583 211.938 241.006 208.923 242.916C207.967 243.43 207.085 244.017 206.055 244.384C203.628 245.412 201.128 246.073 198.554 246.367C196.569 246.587 194.583 246.587 192.524 246.367C191.127 246.22 189.803 246 188.479 245.78C187.156 245.412 185.832 245.119 184.582 244.605C184.435 244.531 184.288 244.605 184.141 244.752C183.699 245.192 183.258 245.559 182.817 246L182.743 246.073C182.596 246.147 182.523 246.22 182.376 246.294C178.552 248.79 174.581 249.011 170.536 246.881C169.065 246.073 167.815 245.045 166.639 243.87C166.197 243.43 165.83 242.916 165.462 242.402C164.579 241.227 164.653 239.758 165.756 238.803C166.786 237.922 168.33 238.142 169.212 239.244C170.021 240.199 170.83 241.08 171.786 241.888C174.434 243.944 177.89 243.87 180.17 241.667C181.42 240.492 181.64 238.877 180.905 237.408C180.17 236.013 178.552 235.279 176.934 235.719C175.684 236.013 174.654 235.793 173.919 234.618C173.11 233.002 173.919 231.24 175.904 230.872C177.449 230.579 178.919 230.652 180.39 231.093C182.082 231.607 183.405 232.635 184.508 233.883C185.244 234.985 185.906 236.086 186.126 237.408C186.2 237.775 186.347 237.996 186.714 238.069C189.877 239.244 193.186 239.758 196.569 239.611C197.304 239.611 198.039 239.538 198.775 239.317C198.922 239.317 198.995 239.317 199.142 239.317C203.187 238.583 206.496 236.527 209.217 233.369C210.982 231.313 212.232 228.963 213.262 226.54C215.394 221.473 216.718 216.259 216.203 210.752C216.13 209.944 216.056 209.063 215.836 208.255C215.836 208.108 215.836 207.961 215.762 207.741C215.394 206.125 214.806 204.583 214.144 203.114C213.924 202.674 213.777 202.674 213.482 203.114C212.894 204.142 212.379 205.171 212.159 206.345C211.717 206.125 211.203 205.685 210.688 205.464Z" fill="#FBBB8F"/>
<path d="M188.479 245.781C189.803 246.001 191.127 246.295 192.524 246.368C194.509 246.588 196.495 246.588 198.554 246.368C201.128 246.074 203.628 245.413 206.055 244.385C207.011 243.945 207.967 243.431 208.923 242.917C211.129 243.651 213.041 244.752 214.585 246.515C217.086 249.379 217.894 252.757 217.674 256.428C217.527 258.338 217.085 260.1 216.203 261.789C216.129 261.936 215.982 262.083 215.909 262.23C215.835 262.23 215.688 262.156 215.615 262.156C214.659 262.083 213.776 262.083 212.82 262.083C210.32 262.083 207.746 262.083 205.246 262.083C203.26 262.083 201.275 262.009 199.289 262.23C198.407 262.377 197.745 262.744 197.157 263.258C196.127 264.139 195.98 265.314 195.833 266.562C195.759 267.59 195.98 268.545 195.906 269.573C194.877 269.573 193.847 269.353 192.818 269.206C192.671 269.206 192.45 269.133 192.303 269.133C192.303 268.692 192.303 268.325 192.23 267.884C191.935 266.122 191.641 264.433 191.347 262.67C190.979 260.394 190.612 258.117 190.244 255.841C189.876 253.491 189.509 251.141 189.067 248.865C188.92 247.91 188.773 246.809 188.479 245.781Z" fill="#F26E22"/>
<path d="M250.251 126.743C249.884 127.771 249.222 128.652 248.56 129.533C246.207 132.691 243.045 135.041 239.956 137.464C237.235 139.594 234.735 142.091 232.896 145.101C231.646 147.084 230.837 149.214 230.249 151.49C230.249 151.637 230.176 151.711 230.102 151.931C228.778 150.682 227.381 149.508 226.057 148.259C222.528 145.028 218.998 141.797 215.468 138.639C215.174 138.346 215.1 138.125 215.247 137.685C216.939 132.691 219.66 128.358 223.925 125.127C224.807 124.466 225.763 123.952 226.646 123.365C228.705 122.117 230.47 120.574 232.014 118.812C232.455 119.179 232.823 119.546 233.191 119.987C233.852 120.721 234.588 121.309 235.323 121.896C237.309 123.512 239.588 124.466 242.089 124.834C243.78 125.054 245.471 125.274 247.236 125.274C248.413 125.274 249.443 125.568 250.031 126.743C250.104 126.669 250.178 126.743 250.251 126.743ZM228.631 129.019C228.631 132.104 231.279 134.674 234.441 134.674C237.382 134.674 239.883 132.324 239.883 129.387C239.883 126.376 237.235 123.732 234.073 123.732C231.058 123.732 228.705 126.082 228.631 129.019ZM220.763 133.425C220.763 133.132 220.616 132.911 220.321 132.765C219.954 132.618 219.733 132.691 219.439 132.985C218.851 133.646 218.409 134.453 218.115 135.335C218.042 135.628 218.042 135.996 218.336 136.142C218.924 136.436 218.851 136.877 218.63 137.391C218.409 137.905 218.556 138.272 218.924 138.639C220.321 139.888 221.645 141.136 223.042 142.384C224.366 143.559 225.616 144.734 226.94 145.909C227.381 146.276 227.822 146.35 228.116 145.909C228.411 145.469 228.778 145.395 229.22 145.542C229.661 145.689 230.028 145.542 230.249 145.101C230.617 144.367 230.984 143.633 231.499 142.972C231.793 142.605 231.72 142.164 231.426 141.87C231.058 141.577 230.69 141.65 230.396 142.017C230.028 142.458 229.661 142.972 229.367 143.486C229.22 143.853 228.999 144 228.558 143.927C228.337 143.927 228.043 144 227.822 144.073C227.528 144.294 227.308 144.147 227.087 143.927C224.807 141.87 222.528 139.814 220.321 137.758C220.101 137.538 220.027 137.391 220.101 137.097C220.248 136.583 220.248 136.069 219.954 135.702C219.586 135.188 219.733 134.821 220.027 134.453C220.174 134.233 220.321 134.086 220.468 133.866C220.616 133.793 220.689 133.646 220.763 133.425Z" fill="#D32329"/>
<path d="M200.025 181.892C199.216 182.039 198.48 181.892 197.671 182.039C195.833 182.259 194.068 182.7 192.377 183.361C187.155 185.27 182.596 188.208 178.257 191.512C177.669 191.953 177.081 192.393 176.492 192.834C176.419 192.32 175.978 192.467 175.757 192.54C174.507 192.614 173.33 192.393 172.154 192.393C170.977 192.393 169.8 192.246 168.624 191.953C167.006 191.659 165.315 191.292 163.697 190.925C161.344 190.337 159.137 189.603 156.858 188.722C154.725 187.84 152.592 186.886 150.68 185.637C149.063 184.683 147.518 183.508 146.048 182.259C145.533 181.819 145.165 181.378 144.577 181.011C144.356 180.864 144.209 180.717 144.209 180.424C146.121 179.763 148.107 179.249 150.166 178.955C150.607 179.028 150.901 179.322 151.195 179.616C154.725 182.186 158.623 183.875 162.814 184.903C164.211 185.197 165.609 185.417 167.006 185.564C168.33 185.711 169.58 185.784 170.903 185.711C173.183 185.637 175.389 185.417 177.595 184.903C180.537 184.242 183.331 183.141 185.979 181.745C187.302 181.011 188.626 180.203 189.876 179.249C190.023 179.102 190.17 179.028 190.391 178.955C192.965 179.322 195.465 180.056 197.892 180.938C198.554 181.231 199.289 181.452 200.025 181.892Z" fill="#F1AB81"/>
<path d="M188.479 245.779C188.773 246.807 188.847 247.835 189.068 248.937C189.509 251.287 189.876 253.637 190.244 255.913C190.612 258.19 190.98 260.466 191.347 262.742C191.641 264.505 191.936 266.194 192.23 267.956C192.303 268.323 192.23 268.764 192.303 269.205C191.788 270.82 190.759 271.628 189.288 271.628C187.891 271.628 186.714 270.6 186.494 269.278C186.052 266.708 185.611 264.064 185.17 261.494C184.802 259.291 184.435 257.015 184.067 254.812C184.067 254.738 183.993 254.738 183.993 254.665C183.846 253.269 183.552 251.801 183.332 250.405C183.111 249.01 182.743 247.615 182.817 246.146L182.89 246.073C183.332 245.632 183.773 245.265 184.214 244.824C184.361 244.678 184.435 244.604 184.655 244.678C185.832 245.118 187.156 245.412 188.479 245.779Z" fill="#D32329"/>
<path d="M195.907 269.572C195.907 268.544 195.686 267.589 195.833 266.561C195.98 265.313 196.127 264.138 197.157 263.256C197.745 262.742 198.407 262.302 199.289 262.228C201.275 261.935 203.26 262.082 205.246 262.082C207.746 262.082 210.32 262.082 212.82 262.082C213.776 262.082 214.659 262.155 215.615 262.155C215.762 262.155 215.835 262.228 215.909 262.228C215.541 262.963 215.027 263.55 214.512 264.211C211.644 267.516 207.893 268.911 203.702 269.498C201.275 269.866 198.848 269.792 196.495 269.719C196.274 269.719 196.054 269.645 195.907 269.572Z" fill="#E26126"/>
<path d="M234.147 115.581C233.926 115.214 233.558 115.067 233.264 114.773C232.014 113.671 230.764 112.57 229.44 111.468C229.22 111.248 229.22 111.101 229.293 110.807C230.323 108.531 232.749 108.017 234.661 109.633C237.162 111.836 239.736 114.039 242.236 116.315C244.442 118.298 246.648 120.281 248.928 122.19C248.707 122.263 248.56 122.19 248.413 122.116C247.898 121.969 247.457 121.823 246.869 121.896C245.839 122.043 245.03 122.557 244.295 123.291C244.148 123.438 244.074 123.658 243.78 123.438C243.339 123.071 242.898 122.851 242.53 122.41C241.795 121.676 240.986 121.162 240.25 120.501C239 119.399 237.75 118.371 236.426 117.343C235.691 116.756 235.029 116.095 234.147 115.581Z" fill="#DA3427"/>
<path d="M234.146 115.581C235.029 116.095 235.691 116.829 236.426 117.417C237.676 118.445 239 119.473 240.25 120.574C240.986 121.235 241.868 121.823 242.53 122.484C242.898 122.851 243.412 123.145 243.78 123.512C244.001 123.732 244.148 123.512 244.295 123.365C245.03 122.631 245.839 122.19 246.869 121.97C247.383 121.896 247.898 122.043 248.413 122.19C248.56 122.263 248.707 122.337 248.928 122.263C248.854 122.41 249.001 122.41 249.075 122.41L249.148 122.484C249.295 122.704 249.589 122.851 249.81 122.998C250.545 123.659 250.766 124.54 250.619 125.495C250.546 125.935 250.472 126.376 250.251 126.743C250.178 126.743 250.104 126.743 250.104 126.669C249.59 125.495 248.486 125.201 247.31 125.201C245.618 125.201 243.854 125.054 242.162 124.76C239.662 124.393 237.382 123.438 235.397 121.823C234.661 121.235 233.926 120.648 233.264 119.914C232.896 119.546 232.529 119.106 232.087 118.739C232.234 118.739 232.234 118.665 232.234 118.518C232.97 117.564 233.632 116.609 234.146 115.581Z" fill="#AE2124"/>
<path d="M118.544 203.334C117.956 205.023 117.588 206.786 117.294 208.548C117.147 209.429 117.073 210.311 117.073 211.192C115.823 211.486 114.647 211.853 113.396 212C113.396 211.045 113.47 210.164 113.617 209.209C113.764 207.814 113.985 206.492 114.72 205.317C114.867 205.097 114.941 204.95 114.941 204.656C116.117 204.142 117.294 203.702 118.544 203.334Z" fill="#E79E77"/>
<path d="M223.19 211.193C223.116 208.77 222.675 206.42 221.939 204.143C221.866 203.923 221.792 203.703 221.792 203.409C222.969 203.776 224.072 204.217 225.249 204.584C225.543 205.318 226.058 205.979 226.205 206.787C226.572 208.476 226.793 210.165 226.793 211.927C225.616 211.78 224.44 211.487 223.19 211.193Z" fill="#E79E77"/>
<path d="M226.866 211.927C226.866 210.164 226.646 208.475 226.278 206.786C226.131 205.978 225.616 205.318 225.322 204.583C226.646 204.803 227.896 205.171 229.146 205.391C229.146 206.125 229.514 206.786 229.587 207.447C229.734 208.696 229.955 210.017 229.955 211.266C229.955 211.633 229.808 211.927 229.881 212.294C228.852 212.294 227.822 212.147 226.866 211.927Z" fill="#F1AB81"/>
<path d="M114.868 204.583C114.868 204.803 114.794 205.024 114.647 205.244C113.985 206.492 113.691 207.814 113.544 209.136C113.471 210.091 113.323 210.972 113.323 211.927C112.367 212.147 111.338 212.294 110.382 212.294C110.308 210.311 110.455 208.402 110.897 206.492C110.97 206.125 111.191 205.758 111.191 205.318C112.441 205.171 113.618 204.803 114.868 204.583Z" fill="#F1AB81"/>
<path d="M232.307 118.518C232.307 118.591 232.234 118.737 232.161 118.737C232.234 118.664 232.234 118.591 232.307 118.518Z" fill="#D32329"/>
<path d="M249.073 122.408C249 122.408 248.855 122.408 248.927 122.262C248.927 122.262 249 122.335 249.073 122.408Z" fill="#DA3427"/>
<path d="M249.15 122.485L249.075 122.41C249.075 122.41 249.15 122.41 249.15 122.485Z" fill="#DA3427"/>
<path d="M131.414 242.917C133.326 244.092 135.385 245.046 137.591 245.634C140.533 246.441 143.548 246.735 146.563 246.515C148.328 246.368 150.019 246.148 151.784 245.781C151.71 246.001 151.637 246.295 151.563 246.515C151.196 248.644 150.901 250.701 150.534 252.83C150.24 254.666 149.872 256.575 149.578 258.411C149.21 260.541 148.842 262.744 148.548 264.873C148.328 266.269 147.96 267.664 148.033 269.133C146.71 269.279 145.46 269.426 144.136 269.573C143.989 269.573 143.768 269.573 143.621 269.573C143.842 268.104 143.768 266.636 143.401 265.167C143.18 264.506 142.886 263.845 142.224 263.331C141.121 262.45 139.871 262.377 138.547 262.377C137.738 262.377 136.929 262.377 136.12 262.377C135.091 262.377 134.061 262.45 133.032 262.377C132.664 262.303 132.223 262.524 131.855 262.45C130.237 262.23 128.693 262.45 127.075 262.377C126.413 262.303 125.751 262.45 125.016 262.45C124.869 262.45 124.648 262.377 124.575 262.597C123.619 261.202 123.03 259.66 122.81 257.971C122.295 254.813 122.516 251.729 123.986 248.865C125.457 245.927 127.884 244.018 130.973 242.917C131.12 242.99 131.267 242.99 131.414 242.917Z" fill="#F26E22"/>
<path d="M148.033 269.205C147.96 267.736 148.327 266.341 148.548 264.946C148.842 262.816 149.21 260.613 149.578 258.484C149.872 256.648 150.239 254.739 150.534 252.903C150.901 250.773 151.195 248.717 151.563 246.587C151.637 246.367 151.71 246.073 151.784 245.853C152.96 245.559 154.063 245.266 155.166 244.898C155.314 244.825 155.461 244.825 155.534 244.972C156.049 245.78 156.784 246.441 157.52 247.028C157.299 248.35 157.078 249.745 156.858 251.067C156.711 252.242 156.417 253.417 156.27 254.665C155.975 255.62 155.902 256.648 155.755 257.603C155.534 258.924 155.314 260.246 155.093 261.568C154.652 264.065 154.284 266.635 153.843 269.132C153.622 270.6 152.519 271.555 151.122 271.629C149.651 271.702 148.474 270.894 148.033 269.425C148.033 269.352 148.033 269.279 148.033 269.205Z" fill="#D32329"/>
<path d="M124.648 262.743C124.721 262.596 124.942 262.596 125.089 262.596C125.751 262.596 126.486 262.449 127.148 262.522C128.766 262.596 130.31 262.376 131.928 262.596C132.296 262.669 132.737 262.449 133.105 262.522C134.134 262.669 135.164 262.522 136.193 262.522C137.002 262.522 137.811 262.522 138.62 262.522C139.87 262.522 141.194 262.596 142.297 263.477C142.885 263.991 143.253 264.652 143.474 265.313C143.841 266.708 143.915 268.25 143.694 269.719C139.576 270.013 135.531 269.792 131.634 268.25C129.501 267.443 127.589 266.194 126.045 264.505C125.457 263.991 125.016 263.404 124.648 262.743Z" fill="#E26126"/>
<path d="M81.4073 153.179C81.4073 153.257 81.4855 153.257 81.4073 153.179C81.4855 153.257 81.4855 153.257 81.4073 153.179C81.4073 153.257 81.4073 153.257 81.4073 153.179Z" fill="white"/>
<path d="M156.343 254.592C156.417 253.417 156.711 252.242 156.931 250.993C157.152 249.672 157.373 248.276 157.593 246.955C158.77 247.762 160.093 248.35 161.564 248.497C162.888 248.644 164.138 248.57 165.315 248.056C166.712 247.542 167.447 245.78 166.344 244.164C166.344 243.87 166.565 243.87 166.712 243.723C167.889 244.898 169.139 246 170.609 246.734C174.654 248.864 178.625 248.644 182.449 246.147C182.523 246.073 182.67 246 182.817 245.926C182.743 247.395 183.184 248.79 183.332 250.186C183.552 251.581 183.846 252.976 183.993 254.445C182.449 254.739 180.905 255.032 179.36 255.253C178.625 255.399 177.89 255.473 177.154 255.693C175.904 256.06 174.58 256.207 173.257 256.428C171.933 256.648 170.83 257.088 170.168 258.337C169.212 256.501 167.447 256.501 165.829 256.207C163.77 255.84 161.638 255.399 159.579 255.032C158.402 255.032 157.373 254.885 156.343 254.592Z" fill="#BF4D27"/>
<path d="M206.349 141.87C206.423 137.831 206.128 133.719 205.687 129.753C205.467 127.624 205.025 125.568 204.363 123.585C202.599 117.93 199.363 113.304 195.024 109.339C191.494 106.181 187.523 103.904 183.037 102.362C178.11 100.673 173.11 99.939 167.888 100.233C165.682 100.38 163.476 100.673 161.344 101.114C155.313 102.509 149.945 105.153 145.386 109.265C141.709 112.496 138.914 116.388 137.002 120.868C136.194 122.777 135.532 124.833 135.164 126.889C134.796 128.285 134.576 129.68 134.429 131.075C134.282 132.177 134.134 133.352 134.061 134.453C133.987 135.995 133.914 137.537 133.84 139.006C133.84 139.079 133.84 139.153 133.84 139.226C133.767 143.045 133.84 146.863 134.429 150.682C135.385 150.609 136.194 150.168 136.782 149.434C137.885 148.112 138.179 146.57 138.253 144.954C138.326 142.604 138.326 140.181 138.473 137.831C138.547 136.803 138.694 135.848 138.841 134.82C138.988 134.013 139.135 133.278 139.282 132.47C139.282 132.397 139.356 132.397 139.356 132.324C139.723 130.855 140.165 129.46 140.9 128.211C142.297 125.714 144.283 124.025 147.077 123.291C148.769 122.851 150.533 122.777 152.298 122.777C152.887 122.704 153.549 122.851 154.137 122.924C156.122 123.144 158.034 123.585 160.02 124.099C162.667 124.76 165.388 125.274 168.183 125.347C170.242 125.421 172.301 125.421 174.36 125.127C176.713 124.833 178.993 124.319 181.272 123.805C182.964 123.438 184.582 123.071 186.273 122.851C186.641 122.924 186.935 122.777 187.303 122.777C189.362 122.704 191.421 122.777 193.406 123.365C195.318 123.952 196.863 124.98 198.113 126.449C199.436 128.064 200.245 129.9 200.76 131.956C200.981 132.911 201.201 133.792 201.422 134.747C201.495 135.261 201.422 135.775 201.569 136.289C201.863 138.051 201.79 139.814 201.937 141.65C202.01 142.604 201.937 143.559 201.937 144.514C201.937 145.835 202.157 147.084 202.672 148.259C203.26 149.654 204.216 150.609 205.761 150.829C205.834 150.241 205.908 149.581 205.981 148.993C206.275 146.57 206.423 144.22 206.349 141.87Z" fill="url(#paint0_linear_1_12034)"/>
<path d="M169.653 174.916C165.535 174.843 161.711 173.007 158.77 169.335C158.255 168.674 158.328 167.94 158.917 167.499C159.505 167.059 160.24 167.206 160.755 167.866C163.55 171.244 167.153 172.787 171.492 172.346C174.801 172.052 177.522 170.51 179.581 167.866C179.949 167.426 180.39 167.206 180.978 167.352C181.493 167.499 181.787 167.866 181.861 168.381C181.934 168.895 181.714 169.262 181.419 169.555C179.581 171.832 177.228 173.374 174.507 174.255C173.036 174.696 171.565 174.916 169.653 174.916Z" fill="#AF583F"/>
<path d="M153.181 154.722C150.46 154.648 147.519 152.519 146.489 149.361C146.122 148.259 146.71 147.378 147.739 147.525C148.328 147.599 148.622 147.966 148.842 148.553C149.431 150.316 150.607 151.491 152.299 152.078C155.167 153.033 158.182 151.491 159.211 148.627C159.432 147.892 159.8 147.599 160.388 147.599C161.27 147.599 161.859 148.259 161.638 149.141C160.756 152.005 158.844 153.84 155.976 154.648C155.167 154.722 154.358 154.795 153.181 154.722Z" fill="#AF583F"/>
<path d="M186.641 154.721C182.964 154.941 179.654 152.591 178.625 149.066C178.478 148.479 178.625 148.038 179.14 147.671C179.507 147.377 180.169 147.451 180.61 147.745C180.905 147.965 180.978 148.259 181.125 148.552C181.787 150.462 183.111 151.637 185.023 152.151C187.817 152.812 190.538 151.269 191.494 148.552C191.715 147.818 192.082 147.524 192.671 147.524C193.553 147.451 194.215 148.185 193.921 149.066C192.965 152.077 190.906 153.913 187.817 154.647C187.597 154.721 187.449 154.721 187.229 154.721C187.008 154.721 186.861 154.721 186.641 154.721Z" fill="#AF583F"/>
<path d="M187.376 139.08C188.847 139.08 190.244 139.227 191.641 139.667C192.303 139.888 192.671 140.328 192.597 141.063C192.524 141.65 192.082 142.091 191.568 142.091C191.126 142.164 190.685 141.944 190.244 141.871C188.111 141.43 185.979 141.503 183.846 142.017C182.743 142.311 181.934 141.577 182.155 140.549C182.302 140.108 182.596 139.814 183.037 139.667C184.361 139.227 185.832 139.08 187.376 139.08Z" fill="#AF583F"/>
<path d="M155.093 139.08C156.564 139.08 158.034 139.3 159.505 139.667C159.946 139.814 160.314 140.108 160.388 140.622C160.461 141.136 160.314 141.577 159.799 141.871C159.432 142.091 159.064 142.091 158.696 141.944C156.269 141.283 153.916 141.283 151.489 141.944C150.754 142.164 150.019 141.797 149.872 141.136C149.651 140.402 150.019 139.814 150.828 139.594C152.151 139.227 153.622 139.08 155.093 139.08Z" fill="#AF583F"/>
<path d="M180.463 231.092C178.993 230.652 177.522 230.578 175.978 230.872C173.992 231.239 173.183 233.002 173.992 234.617C173.698 234.617 173.404 234.617 173.33 234.984C172.227 233.956 171.124 233.002 169.8 232.341C168.33 231.533 166.859 231.092 165.168 230.946C165.168 230.872 165.094 230.872 165.094 230.946C164.653 230.946 164.212 230.946 163.77 230.946C163.697 230.872 163.623 230.872 163.55 230.946C162.226 231.019 160.902 231.386 159.652 231.974C159.652 231.827 159.579 231.753 159.432 231.68C158.99 231.533 158.476 231.68 158.034 231.606C156.858 231.46 155.681 231.386 154.504 231.239C154.284 231.239 154.21 231.166 154.21 230.946C154.504 230.138 155.093 229.403 155.534 228.669C156.196 227.641 156.858 226.54 157.667 225.585C158.476 225.952 159.284 226.393 160.167 226.54C160.24 226.54 160.314 226.613 160.388 226.54C160.902 226.099 161.564 226.393 162.079 226.099C162.594 225.732 163.182 225.879 163.77 226.025C164.138 226.099 164.506 226.246 165.02 226.099C165.315 226.025 165.829 226.246 166.124 226.466C166.712 226.76 167.227 226.907 167.815 226.54C168.109 226.393 168.403 226.466 168.697 226.54C168.992 226.613 169.286 226.613 169.58 226.466C170.021 226.246 170.389 226.172 170.904 226.319C171.418 226.466 172.007 226.393 172.521 226.393C172.007 227.274 171.565 228.155 171.124 229.036C170.83 229.771 171.418 230.578 172.227 230.652C172.816 230.652 173.257 230.432 173.477 229.917C174.213 228.449 174.948 226.98 175.757 225.658C176.125 225.952 176.272 225.438 176.639 225.365C176.934 225.365 177.228 225.291 177.595 225.365C178.184 225.511 178.772 225.218 179.287 224.997C180.243 224.704 181.272 224.41 182.081 223.822C182.155 223.822 182.228 223.749 182.302 223.749C183.258 223.822 183.993 223.308 184.802 223.088C185.538 222.941 186.347 222.941 187.082 222.721C187.891 222.501 188.7 222.427 189.509 222.06C189.582 221.987 189.729 221.987 189.876 221.987C190.612 222.06 191.2 221.766 191.788 221.399C193.186 220.665 194.656 220.151 196.274 220.151C196.936 220.151 197.524 220.077 198.186 219.857C198.848 219.637 199.657 219.563 200.392 219.49C200.907 219.416 201.422 219.343 201.937 219.123C202.378 218.976 202.746 219.196 203.113 219.123C204.143 218.902 205.246 218.829 206.349 218.902C206.717 218.902 206.937 219.049 207.011 219.416C207.011 219.49 207.011 219.637 206.937 219.71C206.496 220.885 206.128 222.133 205.687 223.308C205.466 223.896 205.319 224.557 204.952 225.144C203.922 225.071 202.819 224.924 201.79 224.997C200.613 225.144 199.51 225.365 198.407 225.658C197.377 225.952 196.421 226.172 195.392 226.466C194.803 226.613 194.068 226.54 193.48 226.833C192.818 227.054 192.156 227.127 191.494 227.347C190.832 227.568 190.171 227.788 189.435 227.861C188.111 227.935 186.861 228.229 185.832 229.11C185.611 229.33 185.317 229.403 184.949 229.403C184.655 229.403 184.361 229.33 184.14 229.477C183.552 229.771 182.817 229.771 182.228 229.917C181.714 230.064 181.125 230.358 180.611 230.578C180.611 230.725 180.463 230.872 180.463 231.092Z" fill="#EA6624"/>
<path d="M173.33 234.985C173.404 234.618 173.698 234.618 173.992 234.618C174.728 235.719 175.757 236.013 177.007 235.719C178.625 235.352 180.17 236.013 180.978 237.408C181.787 238.877 181.493 240.493 180.243 241.668C177.963 243.871 174.507 243.944 171.86 241.888C170.904 241.154 170.021 240.199 169.286 239.244C168.33 238.143 166.859 237.922 165.83 238.804C164.727 239.685 164.579 241.227 165.535 242.402C165.903 242.916 166.271 243.43 166.712 243.871C166.565 243.944 166.344 244.017 166.344 244.311C165.535 243.503 164.653 243.283 163.476 243.577C161.785 244.091 160.167 243.357 159.358 241.814C158.549 240.272 158.991 238.583 160.388 237.408C162.815 235.426 165.903 235.426 168.477 237.408C169.507 238.143 170.315 239.097 171.124 240.052C172.08 241.154 173.551 241.374 174.654 240.493C175.757 239.611 175.904 238.069 174.948 236.894C174.434 236.233 173.845 235.646 173.33 234.985Z" fill="#D65A27"/>
<path d="M154.357 230.946C154.357 231.166 154.504 231.24 154.651 231.24C155.828 231.313 157.005 231.46 158.181 231.607C158.622 231.68 159.064 231.46 159.578 231.68C159.725 231.754 159.799 231.827 159.799 231.974C158.181 232.782 156.784 233.81 155.681 235.279C155.46 235.572 155.24 235.866 155.093 236.16C154.431 236.013 153.769 235.94 153.181 235.866C152.445 235.793 151.71 235.572 151.048 235.279C150.901 235.205 150.754 235.205 150.68 235.279C150.313 235.499 149.945 235.426 149.577 235.352C149.136 235.279 148.695 234.985 148.254 234.911C147.224 234.838 146.268 234.397 145.238 234.544C144.944 234.618 144.65 234.324 144.356 234.471C144.062 234.618 143.694 234.618 143.4 234.618C142.591 234.544 141.782 234.544 140.9 234.618C140.532 233.81 140.017 233.076 139.797 232.194C140.532 231.387 141.194 230.432 141.856 229.551C142.444 228.816 143.032 228.009 143.621 227.274C144.135 227.274 144.724 227.274 145.238 227.274C146.194 227.201 147.15 227.715 148.106 227.568C149.21 227.421 150.166 227.862 151.195 228.009C151.783 228.082 152.372 228.229 153.034 228.156C152.96 228.229 152.96 228.302 152.886 228.449C152.004 229.918 151.122 231.313 150.386 232.782C150.239 233.076 150.092 233.296 150.166 233.59C150.239 234.177 150.754 234.618 151.342 234.765C151.783 234.838 152.298 234.471 152.592 234.03C152.886 233.516 153.181 232.929 153.475 232.415C153.695 231.974 153.916 231.387 154.357 230.946Z" fill="#E26126"/>
<path d="M140.826 234.764C141.635 234.691 142.444 234.691 143.327 234.764C143.621 234.764 143.988 234.764 144.283 234.617C144.577 234.471 144.871 234.691 145.165 234.691C146.195 234.544 147.151 234.985 148.18 235.058C148.621 235.058 149.063 235.425 149.504 235.499C149.871 235.572 150.239 235.646 150.607 235.425C150.754 235.352 150.827 235.352 150.975 235.425C151.636 235.719 152.372 235.939 153.107 236.013C153.769 236.086 154.431 236.16 155.019 236.306C155.019 236.306 155.019 236.38 154.946 236.38C154.946 236.453 154.872 236.453 154.872 236.527C154.725 236.894 154.504 237.335 154.431 237.702C154.357 237.849 154.284 237.922 154.137 237.922C152.004 238.803 149.871 239.391 147.592 239.611C146.342 239.758 145.018 239.831 143.768 239.758C143.621 239.758 143.4 239.758 143.253 239.684C142.959 238.803 142.444 238.142 142.076 237.335C141.709 236.527 141.268 235.792 140.9 234.985C140.9 234.985 140.9 234.911 140.826 234.911C140.9 234.764 140.826 234.764 140.826 234.764Z" fill="#D65A27"/>
<path d="M128.546 205.978C127.884 206.345 127.222 206.786 126.56 207.153C126.487 206.272 126.119 205.537 125.751 204.803C125.678 204.656 125.604 204.656 125.457 204.656C125.678 203.922 125.972 203.261 126.339 202.6C126.56 202.159 126.781 202.233 127.075 202.6C127.737 203.628 128.251 204.73 128.546 205.978Z" fill="#F1AB81"/>
<path d="M125.457 204.583C125.604 204.583 125.678 204.657 125.751 204.73C126.119 205.464 126.487 206.272 126.56 207.08C125.825 207.521 125.163 207.888 124.354 208.181C124.575 207.007 124.942 205.758 125.457 204.583Z" fill="#E79E77"/>
<path d="M163.623 230.946C163.697 230.872 163.771 230.872 163.844 230.946C163.771 230.946 163.697 230.946 163.623 230.946Z" fill="#F26E22"/>
<path d="M154.946 236.308C154.946 236.233 155.02 236.233 155.02 236.159C155.02 236.233 154.946 236.308 154.946 236.308Z" fill="#E26126"/>
<path d="M165.168 230.946C165.168 230.871 165.242 230.946 165.242 230.946H165.168Z" fill="#F26E22"/>
<path d="M160.314 218.536C160.608 217.875 161.197 217.434 161.638 216.92C162.961 215.451 164.359 213.983 165.682 212.514C167.3 210.752 168.992 209.209 170.683 207.594C172.448 205.905 174.286 204.289 176.125 202.747C178.184 200.985 180.243 199.296 182.302 197.68C185.391 195.257 188.553 192.98 191.862 190.704C193.995 189.235 196.127 187.84 198.26 186.518C198.922 186.151 199.731 186.225 200.098 186.812C200.392 187.326 200.392 188.134 199.657 188.574C197.819 189.676 195.98 190.851 194.215 192.099C190.906 194.376 187.67 196.652 184.508 199.149C182.67 200.544 180.905 202.013 179.14 203.408C177.743 204.583 176.419 205.758 175.095 206.933C173.551 208.328 172.007 209.797 170.536 211.192C168.992 212.587 167.668 214.13 166.271 215.525C165.241 216.553 164.212 217.654 163.256 218.829C163.182 218.903 163.109 218.976 162.961 219.05C162.961 218.609 162.814 218.536 162.373 218.609C162.079 218.682 161.785 218.609 161.491 218.609C161.123 218.536 160.682 218.315 160.314 218.536Z" fill="#E05F26"/>
<path d="M175.022 222.281C176.051 220.445 177.228 218.609 178.404 216.847C179.655 214.937 180.978 213.102 182.375 211.339C183.773 209.577 185.096 207.814 186.567 206.052C187.891 204.436 189.288 202.894 190.685 201.352C191.2 200.765 192.009 200.765 192.524 201.205C193.038 201.719 192.965 202.454 192.45 203.041C191.053 204.51 189.729 206.052 188.479 207.594C186.494 209.944 184.582 212.441 182.743 214.937C181.199 217.067 179.728 219.197 178.331 221.4C178.257 221.473 178.257 221.62 178.11 221.62C177.669 221.473 177.301 221.547 177.007 221.84C176.934 221.914 176.787 221.987 176.713 221.987C176.345 221.914 175.978 221.987 175.683 222.207C175.536 222.354 175.242 222.354 175.022 222.281Z" fill="#E05F26"/>
<path d="M160.314 218.535C160.755 218.388 161.123 218.535 161.564 218.608C161.858 218.682 162.153 218.682 162.447 218.608C162.888 218.461 163.035 218.608 163.035 219.049C161.344 221.105 159.652 223.235 158.035 225.364C157.961 225.438 157.887 225.511 157.887 225.658C157.079 226.613 156.417 227.714 155.755 228.742C155.24 229.477 154.725 230.211 154.431 231.019C153.99 231.459 153.769 232.047 153.475 232.561C153.181 233.075 152.887 233.662 152.593 234.176C152.299 234.69 151.784 234.984 151.343 234.911C150.754 234.837 150.313 234.323 150.166 233.736C150.092 233.442 150.239 233.148 150.387 232.928C151.122 231.459 152.004 229.991 152.887 228.595C152.96 228.522 152.96 228.448 153.034 228.302C153.769 227.347 154.358 226.319 155.093 225.291C156.637 223.161 158.182 221.032 159.873 219.049C160.094 219.049 160.314 218.829 160.314 218.535Z" fill="#D65A27"/>
<path d="M175.022 222.281C175.243 222.354 175.537 222.354 175.757 222.281C176.125 222.134 176.419 221.987 176.787 222.06C176.934 222.06 177.007 221.987 177.081 221.913C177.375 221.546 177.743 221.473 178.184 221.693C177.596 222.721 176.934 223.823 176.346 224.851C176.199 225.071 176.051 225.365 175.904 225.659C175.022 227.054 174.36 228.522 173.625 229.918C173.404 230.432 172.963 230.725 172.375 230.652C171.566 230.579 170.977 229.771 171.272 229.036C171.639 228.155 172.08 227.201 172.669 226.393C173.404 224.998 174.14 223.602 175.022 222.281Z" fill="#D65A27"/>
<path d="M160.311 218.535C160.311 218.9 160.165 219.046 159.799 219.046C159.946 218.827 160.092 218.681 160.311 218.535Z" fill="#E05F26"/>
<path d="M203.554 229.257C202.819 231.24 201.863 233.149 200.981 235.058C200.319 236.527 199.51 237.922 198.921 239.391C198.186 239.611 197.451 239.611 196.715 239.684C193.333 239.831 190.023 239.317 186.861 238.142C186.493 237.996 186.346 237.849 186.273 237.481C186.052 236.16 185.39 234.985 184.655 233.957C184.949 233.736 185.317 233.81 185.537 233.663C186.788 232.929 188.111 232.635 189.509 232.341C190.317 232.194 191.053 231.754 191.862 231.68C192.597 231.607 193.333 231.46 194.068 231.24C195.318 230.872 196.568 230.799 197.745 230.211C197.965 230.138 198.113 230.065 198.333 229.991C199.216 229.697 200.172 229.697 201.054 229.477C201.642 229.33 202.304 229.33 202.892 229.183C203.113 229.11 203.407 228.963 203.554 229.257Z" fill="#D65A27"/>
<path d="M203.555 229.257C203.408 229.037 203.113 229.11 202.893 229.11C202.304 229.184 201.643 229.257 201.054 229.404C200.172 229.624 199.216 229.624 198.333 229.918C198.113 229.991 197.892 230.065 197.745 230.138C196.568 230.726 195.245 230.799 194.068 231.166C193.406 231.387 192.597 231.533 191.862 231.607C191.053 231.68 190.318 232.121 189.509 232.268C188.112 232.561 186.788 232.855 185.538 233.59C185.244 233.736 184.876 233.663 184.655 233.883C183.552 232.635 182.228 231.607 180.537 231.093C180.537 230.872 180.611 230.726 180.831 230.652C181.346 230.432 181.861 230.212 182.449 229.991C183.111 229.771 183.773 229.844 184.361 229.551C184.582 229.477 184.876 229.477 185.17 229.477C185.538 229.477 185.832 229.404 186.052 229.184C187.082 228.229 188.406 228.009 189.656 227.935C190.391 227.862 191.053 227.641 191.715 227.421C192.377 227.201 193.039 227.201 193.7 226.907C194.289 226.687 195.024 226.76 195.612 226.54C196.568 226.246 197.598 225.952 198.628 225.732C199.731 225.438 200.907 225.218 202.01 225.071C203.113 224.924 204.143 225.145 205.172 225.218C205.172 225.291 205.172 225.365 205.172 225.438C204.584 226.76 204.143 228.009 203.555 229.257Z" fill="#E26126"/>
<path d="M215.909 208.329C214.659 207.741 213.409 207.08 212.232 206.346C212.453 205.171 212.968 204.143 213.556 203.115C213.85 202.674 213.997 202.674 214.218 203.115C214.88 204.584 215.468 206.126 215.836 207.741C215.909 207.962 215.909 208.109 215.909 208.329Z" fill="#EFA87F"/>
<path d="M228.631 129.019C228.631 126.081 231.058 123.732 234.073 123.732C237.162 123.732 239.883 126.375 239.883 129.386C239.883 132.25 237.456 134.673 234.441 134.673C231.279 134.673 228.631 132.103 228.631 129.019ZM230.176 129.019C230.176 131.295 232.161 133.205 234.514 133.205C236.72 133.205 238.412 131.516 238.412 129.459C238.412 127.183 236.426 125.274 234.073 125.274C231.94 125.274 230.176 126.963 230.176 129.019Z" fill="#FBBB8F"/>
<path d="M220.762 133.424C220.762 133.645 220.689 133.792 220.542 133.938C220.395 134.159 220.248 134.306 220.101 134.526C219.806 134.967 219.659 135.334 220.027 135.774C220.321 136.141 220.321 136.729 220.174 137.17C220.101 137.463 220.174 137.61 220.395 137.83C222.674 139.887 224.954 141.943 227.16 143.999C227.381 144.219 227.601 144.293 227.896 144.146C228.116 143.999 228.337 143.926 228.631 143.999C229.072 144.072 229.219 143.852 229.44 143.558C229.734 143.044 230.028 142.53 230.469 142.09C230.837 141.722 231.205 141.649 231.499 141.943C231.867 142.237 231.867 142.677 231.573 143.044C231.058 143.705 230.617 144.366 230.322 145.174C230.102 145.615 229.808 145.761 229.293 145.615C228.852 145.468 228.484 145.541 228.19 145.982C227.896 146.349 227.454 146.349 227.013 145.982C225.689 144.807 224.366 143.632 223.116 142.457C221.718 141.208 220.395 139.96 218.998 138.712C218.63 138.345 218.483 137.977 218.703 137.463C218.924 137.023 218.924 136.582 218.409 136.215C218.115 136.068 218.115 135.701 218.189 135.407C218.483 134.526 218.85 133.718 219.512 133.057C219.733 132.837 220.027 132.69 220.395 132.837C220.542 132.91 220.689 133.131 220.762 133.424Z" fill="#FBBB8F"/>
<path d="M140.9 234.838C140.974 234.912 140.974 234.912 140.9 234.912V234.838Z" fill="#E26126"/>
<path d="M230.175 129.019C230.175 126.963 231.94 125.274 234.146 125.274C236.499 125.274 238.485 127.257 238.485 129.46C238.485 131.516 236.72 133.205 234.587 133.205C232.161 133.205 230.175 131.296 230.175 129.019Z" fill="#D32329"/>
<defs>
<linearGradient id="paint0_linear_1_12034" x1="170.127" y1="133.335" x2="170.127" y2="102.457" gradientUnits="userSpaceOnUse">
<stop stop-color="#CE8E6B"/>
<stop offset="1" stop-color="#F6B287"/>
</linearGradient>
<clipPath id="clip0_1_12034">
<rect width="338.506" height="288.762" fill="white" transform="translate(0.74707 0.495117)"/>
</clipPath>
</defs>
</svg>
