<svg width="20" height="20" viewBox="0 0 20 20" fill="none" xmlns="http://www.w3.org/2000/svg">
<path d="M8.26414 18.6301H10.9184V15.6011C10.9184 15.229 10.7797 14.9026 10.5346 14.6545C10.2895 14.4065 9.967 14.2661 9.59934 14.2661C9.23168 14.2661 8.89304 14.4065 8.66405 14.6545L8.64793 14.6708C8.41894 14.9189 8.26414 15.2453 8.26414 15.6011V18.6301ZM12.5923 3.51768V1.70289C12.2536 1.67025 11.9021 1.7649 11.5634 1.85956C11.041 1.99991 10.5185 2.15332 9.93798 1.95422V3.72332C10.4282 3.97138 10.9055 3.83103 11.3957 3.69068C11.7763 3.59602 12.1601 3.48831 12.5923 3.51768ZM13.2502 1.42218V3.9061C13.2502 4.07583 13.1115 4.2325 12.9438 4.24883C12.9115 4.24883 12.8664 4.24883 12.8212 4.2325C12.4084 4.10847 11.9763 4.23251 11.5634 4.34022C11.041 4.48057 10.5185 4.63398 9.93798 4.43487V5.36512L13.9275 8.5965C14.021 8.65852 14.0823 8.76623 14.0823 8.87721V10.2285H18.7329C18.9167 10.2285 19.0715 10.3852 19.0715 10.5712V18.9728C19.0715 19.1589 18.9167 19.2992 18.7329 19.2992H0.469009C0.285177 19.2992 0.130371 19.1589 0.130371 18.9728V10.5712C0.130371 10.3852 0.285177 10.2285 0.469009 10.2285H5.11964V8.87721C5.11964 8.78255 5.16479 8.69116 5.2422 8.62914L9.26393 5.36838V1.42218C9.26393 1.36016 9.28005 1.29815 9.3252 1.23613C9.41873 1.07946 9.61547 1.05008 9.7864 1.14148C10.3379 1.49725 10.8604 1.36016 11.399 1.20349C11.9053 1.06314 12.4116 0.922786 12.9954 1.09578C13.1438 1.12842 13.2502 1.26551 13.2502 1.42218ZM9.59934 8.64546C10.0283 8.64546 10.4282 8.81519 10.7185 9.11222C10.9958 9.39292 11.1797 9.7944 11.1797 10.2448C11.1797 10.679 10.9958 11.0837 10.7185 11.3644H10.7023C10.425 11.6582 10.0283 11.8311 9.59612 11.8311C9.16717 11.8311 8.76726 11.6614 8.477 11.3644C8.19964 11.0837 8.0158 10.6822 8.0158 10.2448C8.0158 9.7944 8.19964 9.40598 8.477 9.11222C8.77048 8.81519 9.16717 8.64546 9.59934 8.64546ZM10.2444 9.57571C10.0767 9.41904 9.84445 9.31132 9.59934 9.31132C9.33811 9.31132 9.12202 9.41904 8.95432 9.57571C8.78661 9.74544 8.67695 9.98045 8.67695 10.2448C8.67695 10.4929 8.78338 10.7279 8.95432 10.8976C9.12202 11.0543 9.33811 11.162 9.59934 11.162C9.84445 11.162 10.0767 11.0543 10.2444 10.8976C10.4121 10.7279 10.5056 10.4929 10.5056 10.2448C10.5024 9.98045 10.4121 9.74544 10.2444 9.57571ZM15.7368 16.1135H16.7333V13.4273H15.7368V16.1135ZM17.072 16.7827H15.4142C15.2304 16.7827 15.0756 16.626 15.0756 16.4399V13.0845C15.0756 12.8985 15.2304 12.7418 15.4142 12.7418H17.072C17.2558 12.7418 17.4106 12.8985 17.4106 13.0845V16.4399C17.4074 16.626 17.2558 16.7827 17.072 16.7827ZM14.079 18.6301H18.391V10.8944H14.079V18.6301ZM2.46214 16.1135H3.44258V13.4273H2.46214V16.1135ZM3.78444 16.7827H2.12672C1.94289 16.7827 1.78809 16.626 1.78809 16.4399V13.0845C1.78809 12.8985 1.94289 12.7418 2.12672 12.7418H3.78444C3.96827 12.7418 4.12308 12.8985 4.12308 13.0845V16.4399C4.11985 16.626 3.96827 16.7827 3.78444 16.7827ZM0.791522 18.6301H5.11964V10.8944H0.791522V18.6301ZM5.77757 18.6301H7.60299V15.6011C7.60299 15.056 7.81907 14.5599 8.17061 14.2041L8.18674 14.1715C8.5544 13.8157 9.04462 13.5807 9.59934 13.5807C10.1541 13.5807 10.6443 13.8124 11.0119 14.1715C11.3635 14.5436 11.5957 15.0397 11.5957 15.6011V18.6301H13.4179V9.04694L9.59612 5.93959L5.77757 9.04694V18.6301Z" fill="#737373" stroke="#737373" stroke-width="0.2"/>
</svg>
