<svg width="21" height="21" viewBox="0 0 21 21" fill="none" xmlns="http://www.w3.org/2000/svg">
<path d="M11.8719 11.6424C13.3532 11.6424 14.5526 10.4397 14.5526 8.96563C14.5526 7.49155 13.3532 6.28882 11.8719 6.28882C10.3907 6.28882 9.19128 7.49155 9.19128 8.96563C9.19128 10.4397 10.3907 11.6424 11.8719 11.6424ZM11.8719 6.75818C13.1003 6.75818 14.0902 7.74823 14.0902 8.96563C14.0902 10.183 13.093 11.1731 11.8719 11.1731C10.6436 11.1731 9.65371 10.183 9.65371 8.96563C9.64649 7.74823 10.6436 6.75818 11.8719 6.75818Z" fill="black" stroke="black" stroke-width="0.1"/>
<path d="M3.72912 19.9751C4.13375 20.4078 4.79126 20.4225 5.21034 20.0191L6.17133 19.0804C6.46757 18.7944 6.56151 18.3764 6.45312 17.995H13.1295C14.1916 17.995 15.1815 17.511 15.8535 16.6603L20.0948 11.2627C20.196 11.1307 20.2393 10.9693 20.2177 10.808C20.196 10.6466 20.1165 10.5 19.9864 10.4046C19.1122 9.74459 17.8983 9.86193 17.1613 10.676L17.0673 10.7786C16.8217 8.7252 15.6223 6.02639 13.852 4.58165C14.7407 4.33964 15.3766 4.76499 15.7668 5.6157C15.8246 5.73304 15.9618 5.78438 16.0702 5.72571C16.1858 5.67437 16.2364 5.53503 16.1786 5.41769C15.8318 4.66232 15.2899 4.12696 14.4806 4.06095C14.9214 3.85561 15.4344 3.75294 15.8462 4.03895C15.9474 4.11229 16.0919 4.08296 16.1642 3.98028C16.2364 3.87761 16.2075 3.73094 16.1064 3.6576C15.4561 3.21024 14.6902 3.43025 14.1121 3.73094L15.6656 1.0908C15.709 1.01746 15.709 0.929456 15.6656 0.856119C15.6223 0.782781 15.55 0.738779 15.4633 0.738779C14.4228 0.738779 14.3939 1.50149 13.563 1.50149C12.7248 1.49415 12.6887 0.731445 11.6555 0.731445C10.615 0.731445 10.5933 1.49415 9.75517 1.49415C8.92424 1.49415 8.89533 0.731445 7.86209 0.731445C7.78261 0.731445 7.70313 0.775448 7.65978 0.848785C7.61643 0.922122 7.61643 1.01013 7.65978 1.08346L9.63233 4.44964C7.50804 6.04839 6.20023 9.32657 6.20023 11.5193C6.20023 11.6954 6.21468 11.864 6.22913 12.0327C5.82451 12.2014 5.44878 12.4507 5.12364 12.7587L3.33894 14.4602C2.93432 14.0935 2.3346 14.0788 1.92275 14.4748L0.961764 15.4136C0.542686 15.8242 0.528235 16.4989 0.918411 16.9243L3.72912 19.9751ZM8.3173 1.28881C8.7147 1.47948 8.95314 1.95618 9.75517 1.95618C10.7956 1.95618 10.8173 1.19347 11.6555 1.19347C12.4792 1.19347 12.5297 1.95618 13.5558 1.95618C14.365 1.95618 14.589 1.47948 15.0009 1.28881L13.2089 4.3323C12.1685 4.88967 11.1497 4.88967 10.1092 4.3323L8.3173 1.28881ZM6.66266 11.5193C6.66266 9.40724 7.98492 6.23174 9.97193 4.77966C11.0919 5.34436 12.2263 5.34436 13.3462 4.77966C15.2682 6.18773 16.5327 9.17256 16.641 11.2407L14.6613 13.4188C14.4589 12.9274 13.9821 12.5827 13.4329 12.5827H12.0745C11.5399 12.5827 11.0052 12.4434 10.5355 12.1867C9.99361 11.8934 9.38667 11.7394 8.77973 11.7394H7.65978C7.32018 11.7394 6.99503 11.7907 6.67711 11.8787C6.66989 11.7614 6.66266 11.644 6.66266 11.5193ZM5.44156 13.0961C6.0485 12.5167 6.83607 12.2014 7.667 12.2014H8.78695C9.32164 12.2014 9.85632 12.3407 10.326 12.5974C10.8679 12.8908 11.4748 13.0448 12.0818 13.0448H13.4257C13.9098 13.0448 14.3072 13.4555 14.3072 13.9541C14.3072 14.4528 13.9098 14.8635 13.4257 14.8635H9.8491C9.71904 14.8635 9.61788 14.9662 9.61788 15.0982C9.61788 15.2302 9.71904 15.3329 9.8491 15.3329H13.4257C14.1555 15.3329 14.748 14.7315 14.7624 13.9908L17.4792 10.9987C18.0572 10.3606 19.011 10.2653 19.6974 10.786C19.7335 10.8153 19.748 10.8593 19.748 10.874C19.748 10.896 19.748 10.94 19.7191 10.9767L15.4777 16.3743C14.8997 17.115 14.0399 17.533 13.115 17.533H6.17856L5.15976 16.4329L3.64964 14.7975L5.44156 13.0961ZM1.27968 15.7509L2.24067 14.8122C2.47189 14.5848 2.84039 14.5922 3.06438 14.8342C4.69733 16.609 4.87075 16.7923 4.84184 16.763L5.87509 17.885C6.09908 18.127 6.09185 18.5157 5.85341 18.7431L4.89242 19.6818C4.66121 19.9091 4.29271 19.9018 4.06872 19.6598L1.25801 16.609C1.03402 16.3669 1.04124 15.9783 1.27968 15.7509Z" fill="black" stroke="black" stroke-width="0.3"/>
<path d="M10.6602 8.60345H11.9664C11.9579 8.65511 11.9325 8.77564 11.8137 8.87895C11.6271 9.05113 11.2963 9.11139 10.8552 9.06835H10.8128V9.41272L12.0682 10.7988H12.5941V10.6869L11.432 9.36106C11.6441 9.34384 12.3396 9.24914 12.4923 8.60345H12.874L13.1369 8.24187H12.4753C12.4499 8.14717 12.416 8.06107 12.3651 7.9922H12.8825L13.1454 7.63062H10.9316L10.6686 7.9922H11.3218C11.3642 7.9922 11.7289 8.01803 11.8901 8.24187H10.9231L10.6602 8.60345Z" fill="black"/>
</svg>
