<svg width="182" height="66" viewBox="0 0 182 66" fill="none" xmlns="http://www.w3.org/2000/svg">
<g clip-path="url(#clip0_1_11929)">
<path d="M113.654 65.6948C113.315 65.6464 112.975 65.598 112.612 65.5738C110.067 65.3076 107.62 64.6784 105.293 63.6135C99.3796 60.903 95.2112 56.5227 92.7634 50.5209C91.891 48.3912 91.4063 46.1648 91.1882 43.8657C90.1945 32.8786 96.7865 22.9078 106.82 19.2051C108.807 18.4791 110.843 18.0193 112.951 17.8499C113.339 17.8257 113.703 17.7773 114.09 17.7289C114.769 17.7289 115.447 17.7289 116.126 17.7289C116.247 17.7531 116.368 17.7773 116.514 17.8015C118.041 17.8983 119.519 18.1161 120.997 18.4791C130.909 20.9718 138.495 29.6841 139.077 40.4776C139.222 43.3575 138.907 46.189 138.01 48.9237C135.781 55.6999 131.418 60.6126 124.948 63.6135C122.621 64.7026 120.149 65.3318 117.604 65.598C117.265 65.6222 116.926 65.6706 116.611 65.719C115.617 65.6948 114.648 65.6948 113.654 65.6948Z" fill="black"/>
<path d="M70.2248 54.635C70.2248 54.4897 70.2248 54.3687 70.2248 54.2235C70.2248 51.1016 70.2248 48.004 70.2248 44.8821C70.2248 44.1802 70.1521 43.5026 69.8855 42.825C69.6431 42.1958 69.2796 41.6149 68.7949 41.1309C67.6316 39.9935 66.0079 39.9935 64.8446 41.1551C63.9964 42.0264 63.5359 43.067 63.4632 44.277C63.439 44.4706 63.4632 44.64 63.4632 44.8336C63.4632 47.9555 63.4632 51.0774 63.4632 54.1993C63.4632 54.3203 63.4632 54.4656 63.4632 54.6108C61.6456 54.6108 59.8764 54.6108 58.083 54.6108C58.0103 54.3929 57.9861 35.7342 58.0588 35.0081C58.2769 34.9355 63.0512 34.9113 63.4632 34.9839C63.4632 35.1533 63.4874 35.347 63.4874 35.5406C67.0742 34.1611 70.2248 34.8145 72.9391 37.5734C73.036 37.5008 73.1088 37.404 73.2057 37.3072C74.2963 36.2424 75.5323 35.4196 77.0348 35.0807C79.9673 34.4031 82.5604 35.0807 84.7658 37.1862C86.6319 38.9771 87.6498 41.1793 87.8437 43.7446C87.8679 44.1318 87.8921 44.519 87.8921 44.9305C87.8921 48.0281 87.8921 51.1258 87.8921 54.1993C87.8921 54.3203 87.8921 54.4656 87.8921 54.6108C86.0745 54.6108 84.3053 54.6108 82.4635 54.6108C82.4635 54.4656 82.4635 54.3445 82.4635 54.1993C82.4635 51.0774 82.4635 47.9797 82.4635 44.8578C82.4635 43.9624 82.3181 43.0912 81.8818 42.2684C81.6395 41.8328 81.3487 41.4213 80.9851 41.0825C79.8703 40.0419 78.3193 40.0177 77.2045 41.0341C76.332 41.8328 75.8715 42.825 75.7504 43.9866C75.7019 44.3254 75.7019 44.6642 75.7019 45.0031C75.7019 48.0524 75.7019 51.1258 75.7019 54.1751C75.7019 54.3203 75.7019 54.4656 75.7019 54.6108C73.8358 54.635 72.0424 54.635 70.2248 54.635Z" fill="black"/>
<path d="M55.4656 46.3826C50.7882 46.3826 46.1593 46.3826 41.5062 46.3826C41.6274 47.3264 42.8876 48.6332 44.0993 49.0446C46.0139 49.6739 47.6376 49.1899 48.9706 47.6652C50.5701 48.5848 52.1696 49.4803 53.7933 50.3999C53.7691 50.4725 53.7449 50.4967 53.7206 50.5451C52.2665 52.5296 50.4247 53.9816 47.9769 54.5382C41.5789 56.0145 37.0227 51.6583 35.9806 47.3748C34.7446 42.2442 37.1681 37.7671 41.3123 35.6858C42.4513 35.105 43.6873 34.8388 44.9718 34.7662C46.5471 34.6694 48.0981 34.863 49.528 35.5648C52.7028 37.0653 54.6658 39.5337 55.3444 43.0187C55.514 43.9383 55.4898 44.8821 55.4898 45.8259C55.4656 45.9953 55.4656 46.1648 55.4656 46.3826ZM41.6516 42.8008C42.0393 42.8735 49.2372 42.8492 49.4553 42.7766C48.8979 41.4698 47.3711 40.163 45.2626 40.2598C43.5419 40.3566 42.0878 41.615 41.6516 42.8008Z" fill="#D32028"/>
<path d="M27.4015 47.6652C29.001 48.5606 30.5763 49.4802 32.2 50.3756C32.1515 50.4482 32.1515 50.5208 32.1031 50.5934C30.4793 52.7957 28.3951 54.272 25.6565 54.6834C19.3797 55.6514 15.4051 51.2469 14.4357 47.4958C13.1997 42.5588 15.3324 37.9849 19.6463 35.7584C20.8095 35.1534 22.0698 34.863 23.3785 34.7904C25.0991 34.6935 26.7471 34.9356 28.2739 35.71C31.2791 37.2588 33.1694 39.6789 33.7753 43.0428C33.9207 43.793 33.9207 44.5433 33.9207 45.2935C33.9207 45.6565 33.9207 46.0195 33.9207 46.4067C32.9755 46.4309 32.0546 46.4067 31.1337 46.4067C30.2127 46.4067 29.2918 46.4067 28.3466 46.4067C27.4015 46.4067 26.4805 46.4067 25.5354 46.4067C24.6144 46.4067 23.6935 46.4067 22.7483 46.4067C21.8274 46.4067 20.9065 46.4067 19.9613 46.4067C20.0583 47.3021 21.3185 48.6574 22.506 49.0446C24.4206 49.6738 26.0443 49.1898 27.4015 47.6652ZM27.9104 42.825C27.2561 41.3004 25.6081 40.0903 23.5723 40.2839C22.0455 40.4291 20.2037 41.7844 20.1067 42.825C22.6999 42.825 25.293 42.825 27.9104 42.825Z" fill="#D32028"/>
<path d="M7.89233 54.6108C6.0747 54.6108 4.30555 54.6108 2.48792 54.6108C2.48792 50.4966 2.48792 46.4309 2.48792 42.3168C1.88204 42.3168 1.3004 42.3168 0.71876 42.3168C0.621819 42.0506 0.597584 37.3556 0.694525 36.92C1.27617 36.8716 1.85781 36.92 2.46368 36.8716C2.46368 36.7264 2.48792 36.5812 2.48792 36.4602C2.48792 35.6616 2.56062 34.8387 2.77874 34.0643C3.48155 31.4748 5.17801 29.926 7.77116 29.321C8.44974 29.1758 9.15255 29.1031 9.85537 29.1031C10.8005 29.1031 11.7457 29.1031 12.6909 29.1031C12.7878 29.1031 12.8605 29.1273 12.9332 29.1273C13.0059 29.3694 13.0302 34.0159 12.9575 34.5241C12.8363 34.5241 12.7393 34.5483 12.6182 34.5483C11.7457 34.5483 10.8975 34.5241 10.025 34.5483C9.61302 34.5483 9.17679 34.6209 8.76479 34.6935C8.3528 34.7661 8.08621 35.0565 7.98927 35.4922C7.89233 35.952 7.84386 36.4118 7.89233 36.92C8.44974 36.92 9.00714 36.92 9.56455 36.92C10.122 36.92 10.7036 36.92 11.261 36.92C11.8184 36.92 12.3758 36.92 12.9332 36.92C12.9332 38.7351 12.9332 40.5259 12.9332 42.341C11.261 42.341 9.58879 42.341 7.8681 42.341C7.84386 43.188 7.8681 43.9866 7.84386 44.8094C7.84386 45.6323 7.84386 46.4309 7.84386 47.2537C7.84386 48.0765 7.84386 48.8994 7.84386 49.7464C7.84386 50.5692 7.84386 51.3678 7.84386 52.1907C7.89233 52.9409 7.89233 53.7637 7.89233 54.6108Z" fill="#D32028"/>
<path d="M181.633 54.6349C181.464 54.6349 181.367 54.6591 181.245 54.6591C179.064 54.6591 176.907 54.6591 174.726 54.6591C174.484 54.6591 174.338 54.5865 174.193 54.3929C172.86 52.7231 171.503 51.0532 170.17 49.3834C170.097 49.2866 170.025 49.1898 169.903 49.0688C169.831 49.4076 169.879 49.698 169.855 49.9884C169.855 50.303 169.855 50.5934 169.855 50.908C169.855 51.2226 169.855 51.5372 169.855 51.8518C169.855 52.1665 169.855 52.4569 169.855 52.7715C169.855 53.0861 169.855 53.3765 169.855 53.6911C169.855 54.0057 169.855 54.2961 169.855 54.5865C169.588 54.6591 165.008 54.6833 164.475 54.6107C164.402 54.3687 164.354 30.047 164.426 29.1515C164.644 29.0789 169.37 29.0547 169.831 29.1273C169.831 32.8543 169.831 36.6054 169.831 40.3323C169.855 40.3323 169.879 40.3565 169.903 40.3565C169.976 40.2597 170.049 40.1871 170.122 40.0903C171.309 38.4688 172.497 36.8232 173.66 35.2017C173.805 35.0081 173.951 34.9355 174.193 34.9355C176.253 34.9355 178.289 34.9355 180.349 34.9355C180.446 34.9355 180.567 34.9355 180.737 34.9355C180.518 35.2985 180.276 35.5647 180.058 35.8551C179.84 36.1698 179.597 36.4602 179.355 36.7506C179.137 37.041 178.895 37.3314 178.677 37.6218C178.458 37.9122 178.216 38.2026 177.998 38.493C177.78 38.7834 177.538 39.0738 177.319 39.3643C177.077 39.6547 176.859 39.9693 176.617 40.2597C176.398 40.5501 176.156 40.8405 175.938 41.1309C175.72 41.4213 175.478 41.7117 175.259 42.0021C175.041 42.2925 174.799 42.583 174.581 42.8734C174.338 43.1638 174.12 43.4784 173.878 43.7688C173.66 44.0592 173.418 44.3496 173.199 44.6642C173.926 45.5112 174.605 46.3341 175.308 47.1569C176.011 47.9797 176.714 48.8026 177.416 49.6254C178.119 50.4482 178.798 51.2468 179.501 52.0697C180.203 52.9409 180.906 53.7637 181.633 54.6349Z" fill="black"/>
<path d="M148.916 34.9356C148.916 35.1776 148.916 35.3954 148.916 35.6374C149.037 35.589 149.11 35.589 149.183 35.5406C152.309 34.1853 156.259 34.6452 159.046 37.6218C160.524 39.1949 161.421 41.0099 161.712 43.1396C161.785 43.5994 161.809 44.0834 161.809 44.5433C161.809 47.7862 161.809 51.0049 161.809 54.2478C161.809 54.3446 161.809 54.4656 161.809 54.5866C159.991 54.5866 158.222 54.5866 156.405 54.5866C156.405 54.4656 156.38 54.3446 156.38 54.1994C156.38 51.0533 156.38 47.9072 156.38 44.7611C156.38 44.1076 156.283 43.4542 156.065 42.8492C155.799 42.1716 155.411 41.5908 154.878 41.1068C153.569 39.9209 151.654 39.9451 150.37 41.1552C149.473 42.0022 149.013 43.0428 148.916 44.2529C148.892 44.4223 148.916 44.5917 148.916 44.7853C148.916 47.9314 148.916 51.0533 148.916 54.1994C148.916 54.3204 148.916 54.4656 148.916 54.6108C147.098 54.6108 145.305 54.6108 143.536 54.6108C143.463 54.3446 143.463 35.2744 143.536 34.9356C145.305 34.9356 147.098 34.9356 148.916 34.9356Z" fill="black"/>
<path d="M95.4534 37.7671C95.405 37.7671 95.3807 37.7913 95.3323 37.7913C94.1448 37.8397 92.9572 37.7429 91.8182 37.3557C90.7034 36.9685 89.7097 36.3877 88.813 35.6374C87.8194 34.8388 86.9712 33.895 86.3168 32.7817C85.6625 31.6685 85.2263 30.4585 85.0324 29.1516C84.9354 28.474 84.9112 27.7722 84.9597 27.0946C85.0324 25.6425 85.3717 24.2389 85.9533 22.9078C86.3168 22.0366 86.7773 21.2138 87.3589 20.4636C87.4074 20.4151 87.4559 20.3425 87.4074 20.2699C87.3589 20.1731 87.2862 20.1973 87.2135 20.2215C86.6804 20.2457 86.1472 20.2215 85.6383 20.0037C84.6446 19.6165 84.1114 18.8663 83.8691 17.8499C83.8449 17.7531 83.8691 17.6321 83.7964 17.5353C83.7964 17.4627 83.7964 17.3901 83.7964 17.3175C83.8449 17.1722 83.8933 17.0512 83.966 16.9302C84.1841 16.664 84.475 16.5672 84.8143 16.664C85.1535 16.7366 85.3474 16.9786 85.4201 17.3175C85.4444 17.4869 85.4928 17.6805 85.5413 17.8499C85.614 18.0193 85.711 18.1887 85.8806 18.3097C85.8806 18.3097 85.8806 18.3097 85.8806 18.3339C85.8806 18.3339 85.8806 18.3339 85.8564 18.3339C85.8321 18.1645 85.7352 17.9951 85.6867 17.8257C85.4444 17.027 85.614 16.2768 86.026 15.575C86.2441 15.212 86.7288 15.091 87.0924 15.3088C87.4559 15.5024 87.6255 15.9864 87.4316 16.3736C87.3347 16.5672 87.2378 16.785 87.2135 17.0028C87.1893 17.2207 87.2378 17.4385 87.3589 17.6079C87.4316 17.7289 87.4801 17.6079 87.5043 17.5595C87.8194 17.0996 88.2072 16.7366 88.7161 16.5188C89.9036 15.9622 91.4304 16.3978 92.1575 17.4869C92.3998 17.8499 92.3271 18.3581 91.9636 18.6001C91.5758 18.8663 91.0911 18.7937 90.8245 18.4065C90.558 18.0435 90.1944 17.8499 89.734 17.8983C89.2493 17.9467 88.9342 18.2129 88.7646 18.6727C88.5707 19.2535 88.8615 19.8585 89.4189 20.1005C89.9521 20.3183 90.6064 20.1005 90.873 19.5681C90.9457 19.3987 91.0184 19.2293 91.1881 19.1083C91.5031 18.8663 91.8909 18.8663 92.1817 19.0841C92.4968 19.3019 92.6179 19.6891 92.4725 20.0521C92.0848 20.9718 91.4304 21.5284 90.461 21.7462C90.0975 21.8188 89.734 21.843 89.3704 21.7462C89.2735 21.722 89.225 21.7704 89.1766 21.843C88.3041 22.9562 87.7709 24.2389 87.4559 25.6183C87.262 26.4653 87.1893 27.3124 87.2378 28.1836C87.3347 29.8776 87.9163 31.4023 89.0554 32.7091C89.8551 33.6288 90.7761 34.4032 91.8667 34.9356C92.521 35.2502 93.2238 35.4438 93.9509 35.5164C94.5325 35.5648 95.1384 35.5648 95.72 35.4922C95.72 35.6374 95.6473 35.7584 95.6231 35.8794C95.5019 36.4845 95.4534 37.1379 95.4534 37.7671Z" fill="#FBBB8F"/>
<path d="M116.659 59.2332C116.562 59.209 116.465 59.1848 116.368 59.1606C115.932 58.9912 115.69 58.6524 115.617 58.1926C115.496 57.2488 115.35 56.3291 115.229 55.3853C115.205 55.1675 115.181 54.9497 115.108 54.7319C115.084 54.9013 115.06 55.0707 115.035 55.2159C114.89 56.2081 114.769 57.2004 114.648 58.1926C114.551 58.846 113.993 59.2816 113.339 59.209C112.709 59.1122 112.297 58.5072 112.394 57.8538C112.515 57.1036 112.588 56.3533 112.709 55.6031C112.757 55.2643 112.806 54.9255 112.854 54.5625C112.854 54.4899 112.878 54.4657 112.781 54.4415C111.982 54.2963 111.182 54.1511 110.382 53.9817C110.334 53.9817 110.285 53.9817 110.261 53.9817C110.334 53.546 110.406 53.1104 110.479 52.6748C110.528 52.3602 110.552 52.0214 110.649 51.7068C110.988 51.8036 111.352 51.852 111.691 51.9004C112.369 52.0214 113.072 52.1424 113.751 52.2876C114.284 52.3844 114.866 52.3844 115.181 52.9894C115.423 52.5538 115.787 52.4086 116.199 52.3602C116.635 52.2876 117.071 52.2392 117.483 52.1182C117.725 52.0456 117.968 52.0214 118.21 51.973C118.719 51.8762 119.228 51.7794 119.737 51.7068C119.737 51.731 119.761 51.731 119.761 51.7552C119.882 52.4812 120.003 53.2314 120.125 53.9575C119.325 54.1027 118.501 54.2721 117.701 54.4173C117.483 54.4657 117.459 54.4657 117.507 54.6835C117.628 55.5305 117.75 56.3533 117.847 57.2004C117.895 57.4908 117.943 57.757 117.943 58.0474C117.968 58.6766 117.58 59.1364 116.95 59.2332C116.926 59.2332 116.901 59.2574 116.901 59.2574C116.78 59.2332 116.732 59.2332 116.659 59.2332Z" fill="#FBBB8F"/>
<path d="M126.886 17.4869C126.692 18.8421 126.329 20.149 125.796 21.4316C125.36 22.4964 124.778 23.4887 124.099 24.4083C123.469 25.2553 122.742 26.0297 121.894 26.6832C121.845 26.7074 121.773 26.7316 121.773 26.8042C121.7 26.8042 121.652 26.8526 121.603 26.901C121.191 27.2156 120.755 27.4818 120.319 27.7238C119.446 28.2078 118.525 28.5466 117.556 28.7644C116.829 28.9338 116.078 29.0064 115.35 29.0306C114.914 29.0548 114.502 29.0064 114.066 28.9822C113.606 28.9338 113.145 28.8612 112.685 28.7644C111.303 28.4256 110.019 27.869 108.855 27.022C108.759 26.9494 108.662 26.8284 108.516 26.8042C108.395 26.6106 108.177 26.5138 108.007 26.3685C107.377 25.8361 106.82 25.2553 106.335 24.6019C104.857 22.7142 103.984 20.5604 103.524 18.2129C103.475 17.9709 103.451 17.7289 103.403 17.4869C103.718 17.4627 103.984 17.3175 104.178 17.0755C104.542 16.6398 104.639 16.1316 104.663 15.5992C104.687 14.8248 104.687 14.0262 104.736 13.2517C104.76 12.9129 104.808 12.5983 104.857 12.2595C104.905 11.9933 104.954 11.7513 105.002 11.4851C105.002 11.4609 105.026 11.4609 105.026 11.4367C105.148 10.9527 105.293 10.4929 105.535 10.0814C105.996 9.25861 106.65 8.70199 107.571 8.45999C108.128 8.31478 108.71 8.29058 109.292 8.29058C109.486 8.26638 109.704 8.31478 109.898 8.33898C110.552 8.41159 111.182 8.55679 111.836 8.7262C112.709 8.944 113.606 9.11341 114.526 9.13761C115.205 9.16181 115.884 9.16181 116.562 9.06501C117.338 8.9682 118.089 8.7988 118.84 8.62939C119.398 8.50839 119.931 8.38738 120.488 8.31478C120.609 8.33898 120.706 8.29058 120.828 8.29058C121.506 8.26638 122.185 8.29058 122.839 8.48419C123.469 8.67779 123.978 9.0166 124.39 9.50062C124.826 10.033 125.093 10.6381 125.263 11.3157C125.335 11.6303 125.408 11.9207 125.481 12.2353C125.505 12.4047 125.481 12.5741 125.529 12.7435C125.626 13.3243 125.602 13.9052 125.65 14.5102C125.675 14.8248 125.65 15.1394 125.65 15.454C125.65 15.8896 125.723 16.301 125.893 16.6882C126.062 17.0997 126.377 17.4143 126.886 17.4869ZM114.987 25.4489C115.641 25.4489 116.102 25.3763 116.562 25.2311C117.483 24.9407 118.234 24.4325 118.84 23.6823C118.937 23.5613 119.01 23.4403 118.986 23.2951C118.961 23.1256 118.865 23.0046 118.695 22.9562C118.501 22.9078 118.356 22.9804 118.234 23.1256C117.556 23.9727 116.659 24.4809 115.569 24.6019C114.139 24.7471 112.951 24.2389 112.03 23.1256C111.861 22.9078 111.618 22.8594 111.424 23.0046C111.231 23.1498 111.206 23.3919 111.376 23.6097C112.345 24.8197 113.606 25.4005 114.987 25.4489ZM109.558 18.7937C109.946 18.8179 110.213 18.7937 110.455 18.7211C111.4 18.4549 112.03 17.8499 112.321 16.9061C112.394 16.6398 112.2 16.3978 111.909 16.3978C111.715 16.3978 111.594 16.4946 111.521 16.7366C111.206 17.6805 110.188 18.2129 109.243 17.8741C108.662 17.6805 108.298 17.2933 108.104 16.7124C108.056 16.543 107.959 16.3978 107.741 16.3736C107.401 16.3494 107.207 16.6156 107.329 16.9787C107.692 18.0677 108.662 18.7453 109.558 18.7937ZM120.585 18.7937C120.634 18.7937 120.706 18.7937 120.755 18.7937C120.828 18.7937 120.876 18.7695 120.949 18.7695C121.967 18.5275 122.645 17.9225 122.96 16.9303C123.057 16.6398 122.839 16.3978 122.548 16.422C122.354 16.422 122.257 16.5188 122.161 16.7608C121.845 17.6563 120.949 18.1887 120.028 17.9467C119.398 17.8015 118.961 17.3901 118.743 16.7608C118.695 16.664 118.671 16.543 118.574 16.4946C118.428 16.3978 118.234 16.3736 118.089 16.4704C117.944 16.5672 117.871 16.7366 117.919 16.9303C118.283 18.0677 119.398 18.8663 120.585 18.7937ZM120.828 13.6389C120.343 13.6389 119.858 13.6874 119.373 13.8326C119.228 13.881 119.107 13.9778 119.083 14.123C119.01 14.4618 119.277 14.7038 119.64 14.607C120.343 14.4134 121.046 14.4134 121.749 14.5586C121.894 14.5828 122.039 14.6554 122.185 14.6312C122.379 14.607 122.524 14.4618 122.524 14.2924C122.548 14.0504 122.451 13.9052 122.209 13.8326C121.773 13.6874 121.288 13.6389 120.828 13.6389ZM110.188 13.6389C109.704 13.6389 109.243 13.6874 108.783 13.8326C108.516 13.9052 108.395 14.0988 108.468 14.3408C108.516 14.5586 108.759 14.6796 109.001 14.607C109.801 14.3892 110.576 14.3892 111.376 14.607C111.497 14.6312 111.618 14.6554 111.739 14.5828C111.885 14.486 111.958 14.3408 111.933 14.1714C111.909 14.002 111.812 13.9052 111.643 13.8568C111.158 13.6874 110.673 13.6147 110.188 13.6389Z" fill="#FBBB8F"/>
<path d="M102.385 47.8588C101.851 47.4958 101.367 47.1085 100.906 46.6487C100.058 45.7775 99.4279 44.7611 98.9432 43.672C98.5312 42.7766 98.2162 41.8328 97.9738 40.8647C97.8042 40.1387 97.683 39.4127 97.6588 38.6625C97.6345 38.2995 97.6345 37.9607 97.6345 37.5976C97.6345 37.525 97.6588 37.4524 97.6588 37.3798C97.6588 37.0894 97.683 36.799 97.7315 36.5086C97.8284 35.9278 97.9496 35.347 98.1435 34.7904C98.5312 33.6529 99.0886 32.6123 99.8641 31.6927C100.785 30.5552 101.851 29.6356 103.087 28.8612C104.105 28.2319 105.196 27.6995 106.335 27.3123C106.408 27.2881 106.48 27.2639 106.553 27.2639C106.553 27.3607 106.601 27.4091 106.674 27.4575C106.868 27.5543 106.989 27.7237 107.159 27.8689C107.644 28.2803 108.153 28.6434 108.686 28.9822C109.34 29.3694 110.019 29.7082 110.721 29.9986C111.448 30.289 112.2 30.5552 112.975 30.7246C113.508 30.8456 114.042 30.9666 114.599 31.0634C114.987 31.136 115.375 31.1844 115.762 31.2086C116.15 31.2086 116.562 31.2812 116.95 31.257C117.023 31.257 117.192 31.1844 117.192 31.3538C117.168 31.378 117.168 31.378 117.144 31.4022C116.053 32.2735 115.011 33.1931 114.017 34.1611C112.709 35.4196 111.473 36.7264 110.285 38.0575C109.437 39.0013 108.613 39.9693 107.789 40.9615C107.304 41.5424 106.82 42.1474 106.359 42.7524C106.165 42.9944 105.971 43.2606 105.777 43.5026C105.535 43.793 105.341 44.1076 105.099 44.3739C105.05 44.3497 105.026 44.2771 105.002 44.2286C104.275 42.7524 103.621 41.2278 103.087 39.6789C102.7 38.5899 102.36 37.5008 102.118 36.3634C102.045 36.0488 101.997 35.7342 101.924 35.3954C101.754 35.4922 101.585 35.589 101.415 35.6858C101.342 35.2744 101.149 34.9114 100.93 34.5483C100.858 34.4031 100.761 34.4031 100.688 34.5483C100.567 34.7662 100.47 34.984 100.397 35.226C100.228 35.6132 100.106 36.0246 100.034 36.436C99.9368 36.8474 99.9126 37.2588 99.8884 37.646C99.8399 38.2995 99.9126 38.9529 100.034 39.6063C100.3 41.0342 100.761 42.4136 101.512 43.672C102.166 44.7853 103.039 45.7049 104.226 46.2373C104.881 46.5277 105.584 46.7213 106.311 46.7213C106.359 46.7697 106.432 46.7455 106.48 46.7455C106.892 46.7455 107.329 46.7455 107.741 46.6971C108.492 46.6003 109.195 46.4067 109.897 46.1405C109.946 46.1163 109.97 46.1163 109.994 46.0679C110.043 45.9469 110.091 45.8017 110.14 45.6807C110.14 45.6565 110.164 45.6565 110.164 45.6323C110.164 45.6323 110.164 45.6081 110.188 45.6081C110.261 45.5113 110.309 45.4145 110.382 45.3177C110.746 44.8337 111.206 44.4949 111.739 44.2286C112.151 44.0592 112.563 43.9382 113.024 43.8898C113.048 43.8898 113.072 43.8898 113.096 43.8898C113.242 43.8898 113.387 43.8898 113.533 43.8898H113.557H113.581C114.114 43.9382 114.623 44.1076 115.108 44.3497C115.544 44.5917 115.908 44.9063 116.271 45.2209C116.441 45.4145 116.611 45.6081 116.78 45.8259C117.095 46.2131 117.047 46.6971 116.683 47.0117C116.344 47.3021 115.835 47.2537 115.52 46.8665C115.253 46.5519 114.987 46.2373 114.648 45.9953C113.799 45.3419 112.781 45.3419 111.982 45.9953C111.521 46.3583 111.4 46.9391 111.642 47.4474C111.885 47.9314 112.442 48.1734 113 48.0282C113.363 47.9314 113.678 48.004 113.945 48.2702C114.308 48.7784 114.066 49.3834 113.605 49.5528C113.193 49.698 112.781 49.7464 112.369 49.698C111.885 49.6496 111.473 49.456 111.061 49.1898C110.818 48.9962 110.576 48.7784 110.406 48.5122C110.382 48.4638 110.334 48.4638 110.285 48.488C109.922 48.6332 109.534 48.7058 109.17 48.8026C108.589 48.8994 108.031 48.9962 107.45 49.0446C106.432 49.1172 105.462 49.0204 104.493 48.7542C103.693 48.5606 103.015 48.246 102.385 47.8588Z" fill="#FBBB8F"/>
<path d="M106.384 42.7524C106.844 42.1474 107.329 41.5424 107.813 40.9615C108.613 39.9693 109.437 39.0013 110.31 38.0574C111.521 36.7022 112.757 35.3954 114.042 34.1611C115.035 33.1931 116.078 32.2735 117.168 31.4022C117.192 31.378 117.192 31.378 117.217 31.3538C117.41 31.2086 117.604 31.0634 117.798 30.9182C119.252 29.8292 120.755 28.8612 122.451 28.2319C123.009 28.0141 123.59 27.8689 124.196 27.7963C124.463 27.7721 124.705 27.7963 124.972 27.7479C125.553 27.9173 126.087 28.2319 126.596 28.5465C126.596 28.595 126.644 28.595 126.668 28.6192C127.323 29.1032 127.783 29.7324 128.098 30.4826C128.365 31.1118 128.51 31.7895 128.583 32.4671C128.631 32.8301 128.656 33.2173 128.631 33.5803C128.631 34.2337 128.583 34.8629 128.486 35.5164C128.365 36.3876 128.195 37.2588 127.953 38.1059C127.783 38.7835 127.589 39.4853 127.347 40.1387C127.323 40.0177 127.25 39.9693 127.129 39.9693C126.765 39.9693 126.402 39.9935 126.062 40.0419C125.917 40.0661 125.796 40.0177 125.675 40.0419C125.505 40.0903 125.335 40.1387 125.166 40.1629C124.923 40.1871 124.657 40.2113 124.439 40.2839C124.221 40.3565 124.027 40.3807 123.809 40.3807C123.275 40.3565 122.791 40.5259 122.33 40.7921C122.136 40.8889 121.918 41.0099 121.7 40.9857C121.652 40.9857 121.627 40.9857 121.579 41.0099C121.337 41.1309 121.046 41.1309 120.779 41.2277C120.537 41.3003 120.27 41.3003 120.028 41.3488C119.737 41.3972 119.495 41.5908 119.204 41.5666C119.18 41.5666 119.155 41.5666 119.131 41.5908C118.84 41.7844 118.525 41.8812 118.21 41.978C118.041 42.0264 117.847 42.1474 117.653 42.099C117.532 42.0748 117.459 42.0748 117.338 42.099C117.241 42.099 117.192 42.2684 117.047 42.1958C117.095 42.099 117.144 42.0264 117.192 41.9296C117.386 41.5908 117.604 41.2277 117.798 40.8889C117.847 40.8647 117.847 40.8405 117.871 40.8163C118.331 40.0903 118.816 39.3643 119.325 38.6867C119.931 37.8638 120.561 37.0652 121.215 36.2666C121.652 35.7584 122.088 35.2502 122.524 34.7661C122.694 34.5725 122.718 34.3063 122.548 34.1611C122.379 34.0159 122.112 34.0159 121.942 34.2095C121.482 34.7177 121.022 35.226 120.585 35.7584C120.101 36.315 119.64 36.8958 119.204 37.5008C118.743 38.1059 118.307 38.7109 117.895 39.3159C117.507 39.8967 117.12 40.4775 116.78 41.1067C116.49 41.5424 116.247 42.0022 116.005 42.462C115.835 42.462 115.641 42.4862 115.472 42.4378C115.302 42.3894 115.157 42.3894 115.035 42.4862C114.939 42.5346 114.842 42.5346 114.745 42.5104C114.648 42.4862 114.551 42.462 114.454 42.5104C114.26 42.6314 114.09 42.6072 113.896 42.4862C113.775 42.4136 113.63 42.341 113.533 42.3652C113.387 42.4136 113.266 42.3652 113.121 42.341C112.927 42.2926 112.757 42.2684 112.563 42.3652C112.394 42.4862 112.151 42.3652 112.006 42.5104C112.006 42.5104 111.958 42.5104 111.933 42.5104C111.643 42.462 111.376 42.3168 111.109 42.1958C111.109 42.1474 111.134 42.1232 111.158 42.099C111.691 41.3972 112.248 40.6953 112.806 40.0177C112.83 39.9935 112.879 39.9693 112.903 39.9451C113.218 39.5579 113.533 39.1949 113.896 38.8561C114.357 38.3721 114.817 37.888 115.302 37.4282C115.811 36.9684 116.296 36.4844 116.805 36.0246C117.241 35.6374 117.701 35.226 118.138 34.8629C118.719 34.3789 119.301 33.9191 119.907 33.4593C120.949 32.6607 122.015 31.8863 123.106 31.136C123.687 30.7246 124.293 30.3616 124.899 29.9744C125.141 29.8292 125.141 29.563 125.045 29.3936C124.948 29.2 124.657 29.1758 124.439 29.2968C123.712 29.7324 123.009 30.1922 122.33 30.6762C121.264 31.4022 120.222 32.1767 119.18 32.9753C118.477 33.5077 117.798 34.0643 117.144 34.6451C116.538 35.1776 115.932 35.6858 115.351 36.2424C114.793 36.7748 114.211 37.3072 113.703 37.8638C113.266 38.3479 112.806 38.8077 112.37 39.3159C112.224 39.4853 112.03 39.6547 111.933 39.8483C111.861 39.8967 111.812 39.9451 111.764 40.0177C111.206 40.6953 110.673 41.373 110.188 42.0748C109.97 42.4136 109.752 42.7524 109.51 43.067C109.316 43.067 109.122 43.0428 108.904 43.0186C108.565 42.9702 108.225 42.825 107.886 42.8734C107.571 42.9218 107.256 42.7524 106.941 42.7766C106.747 42.7524 106.577 42.7524 106.384 42.7524Z" fill="#F26E22"/>
<path d="M144.336 18.2854C144.602 18.0918 144.699 17.8014 144.747 17.4868C144.796 17.2206 144.844 16.9544 145.111 16.7608C145.353 16.5914 145.741 16.543 146.008 16.7124C146.323 16.906 146.444 17.2206 146.395 17.5594C146.323 18.1402 146.129 18.6727 145.765 19.1567C145.353 19.7133 144.772 20.0037 144.117 20.1489C143.754 20.2215 143.39 20.2215 143.027 20.2215C142.954 20.2215 142.881 20.1973 142.833 20.2699C142.784 20.3667 142.833 20.4151 142.881 20.4877C143.705 21.5525 144.287 22.7384 144.699 24.021C144.966 24.8196 145.135 25.6425 145.232 26.4653C145.305 27.0945 145.329 27.7237 145.281 28.353C145.208 29.4662 144.966 30.531 144.554 31.5475C144.02 32.8059 143.269 33.8949 142.3 34.863C141.476 35.6858 140.555 36.3876 139.488 36.8958C138.616 37.3314 137.695 37.5976 136.726 37.7186C136.12 37.7913 135.538 37.767 134.932 37.767C134.884 37.767 134.86 37.7671 134.835 37.7429C134.835 37.6218 134.86 37.525 134.86 37.404C134.86 36.9684 134.787 36.557 134.738 36.1456C134.714 35.9036 134.593 35.6858 134.593 35.468C134.957 35.4922 135.296 35.5164 135.659 35.5164C136.92 35.5164 138.083 35.1534 139.149 34.4757C140.216 33.7739 141.161 32.9027 141.839 31.8137C142.445 30.8698 142.809 29.8534 142.93 28.7402C143.196 26.4653 142.615 24.3598 141.452 22.4238C141.33 22.206 141.161 22.0366 141.015 21.8188C140.967 21.7461 140.918 21.7461 140.821 21.7461C139.537 21.9882 138.204 21.2621 137.744 20.0521C137.525 19.5197 137.865 18.9389 138.446 18.8905C138.713 18.8663 139.101 19.0115 139.246 19.3987C139.367 19.7133 139.585 19.9311 139.876 20.0521C140.288 20.2215 140.7 20.1731 141.04 19.8827C141.427 19.5681 141.573 19.1567 141.427 18.6969C141.306 18.2612 140.991 17.9708 140.555 17.874C140.046 17.7772 139.658 17.9708 139.367 18.358C139.149 18.6485 138.858 18.7453 138.543 18.6727C138.228 18.6001 138.01 18.4064 137.937 18.0918C137.841 17.7288 137.986 17.4626 138.228 17.1964C138.834 16.5188 139.585 16.1558 140.506 16.2042C141.427 16.2526 142.179 16.6882 142.688 17.4626C142.809 17.632 142.809 17.632 142.906 17.4384C143.1 17.0754 143.003 16.7124 142.833 16.3736C142.712 16.1558 142.663 15.938 142.736 15.696C142.833 15.3571 143.075 15.1635 143.39 15.1151C143.705 15.0667 143.972 15.1635 144.166 15.4298C144.432 15.817 144.578 16.2526 144.626 16.7366C144.675 17.2206 144.602 17.6804 144.384 18.116C144.36 18.2128 144.336 18.2612 144.336 18.2854C144.336 18.3096 144.336 18.3096 144.336 18.2854Z" fill="#FBBB8F"/>
<path d="M128.51 35.5164C128.607 34.8872 128.655 34.2338 128.655 33.5804C128.655 33.2174 128.631 32.8302 128.607 32.4672C128.534 31.7895 128.389 31.1119 128.122 30.4827C127.807 29.7325 127.347 29.1032 126.692 28.6192C126.668 28.595 126.62 28.5708 126.62 28.5466C126.862 28.6192 127.056 28.7644 127.274 28.9096C128.316 29.5389 129.237 30.3133 130.037 31.2087C130.934 32.2251 131.636 33.3384 132.097 34.621C132.121 34.6936 132.17 34.7662 132.194 34.8388C132.194 34.9114 132.218 35.0082 132.242 35.0808C132.485 35.8311 132.63 36.6055 132.654 37.4041C132.703 37.7671 132.703 38.1301 132.678 38.5173C132.654 39.1224 132.582 39.7274 132.46 40.3082C132.073 42.1475 131.442 43.8899 130.376 45.463C129.722 46.431 128.922 47.2296 127.928 47.8588C127.613 48.0282 127.323 48.2218 126.983 48.3429C126.183 48.6817 125.36 48.8995 124.511 48.9963C123.857 49.0689 123.203 49.0689 122.524 48.9963C122.064 48.9479 121.627 48.8753 121.191 48.8027C120.755 48.6817 120.319 48.5849 119.907 48.4155C119.858 48.3913 119.81 48.4155 119.761 48.4639C119.616 48.6091 119.47 48.7301 119.325 48.8753L119.301 48.8995C119.252 48.9237 119.228 48.9479 119.18 48.9721C117.919 49.7949 116.611 49.8675 115.278 49.1657C114.793 48.8995 114.381 48.5607 113.993 48.1734C113.848 48.0282 113.727 47.8588 113.606 47.6894C113.315 47.3022 113.339 46.8182 113.702 46.5036C114.042 46.2132 114.551 46.2858 114.841 46.6488C115.108 46.9634 115.375 47.2538 115.69 47.52C116.562 48.1976 117.701 48.1734 118.453 47.4474C118.865 47.0602 118.937 46.5278 118.695 46.0438C118.453 45.584 117.919 45.342 117.386 45.4872C116.974 45.584 116.635 45.5114 116.393 45.1242C116.126 44.5917 116.393 44.0109 117.047 43.8899C117.556 43.7931 118.041 43.8173 118.525 43.9625C119.083 44.1319 119.519 44.4707 119.882 44.8821C120.125 45.2452 120.343 45.6082 120.416 46.0438C120.44 46.1648 120.488 46.2374 120.609 46.2616C121.652 46.6488 122.742 46.8182 123.857 46.7698C124.099 46.7698 124.342 46.7456 124.584 46.673C124.632 46.673 124.657 46.673 124.705 46.673C126.038 46.431 127.129 45.7534 128.025 44.7127C128.607 44.0351 129.019 43.2607 129.358 42.4621C130.061 40.7922 130.497 39.074 130.328 37.2589C130.303 36.9927 130.279 36.7023 130.207 36.4361C130.207 36.3877 130.207 36.3393 130.182 36.2667C130.061 35.7343 129.867 35.226 129.649 34.742C129.576 34.5968 129.528 34.5968 129.431 34.742C129.237 35.0808 129.067 35.4196 128.995 35.8069C128.849 35.7343 128.68 35.5891 128.51 35.5164Z" fill="#FBBB8F"/>
<path d="M121.191 48.8026C121.627 48.8752 122.064 48.972 122.524 48.9962C123.178 49.0688 123.833 49.0688 124.511 48.9962C125.36 48.8994 126.184 48.6816 126.983 48.3428C127.298 48.1976 127.613 48.0282 127.929 47.8588C128.656 48.1008 129.286 48.4638 129.795 49.0446C130.619 49.9884 130.885 51.1017 130.812 52.3117C130.764 52.9409 130.619 53.5217 130.328 54.0784C130.304 54.1268 130.255 54.1752 130.231 54.2236C130.207 54.2236 130.158 54.1994 130.134 54.1994C129.819 54.1752 129.528 54.1752 129.213 54.1752C128.389 54.1752 127.541 54.1752 126.717 54.1752C126.062 54.1752 125.408 54.151 124.754 54.2236C124.463 54.272 124.245 54.393 124.051 54.5624C123.712 54.8528 123.663 55.24 123.615 55.6514C123.59 55.9902 123.663 56.3048 123.639 56.6436C123.3 56.6436 122.96 56.571 122.621 56.5226C122.573 56.5226 122.5 56.4984 122.451 56.4984C122.451 56.3532 122.451 56.2322 122.427 56.087C122.33 55.5062 122.233 54.9496 122.136 54.3688C122.015 53.6185 121.894 52.8683 121.773 52.1181C121.652 51.3437 121.53 50.5693 121.385 49.819C121.337 49.5044 121.288 49.1414 121.191 48.8026Z" fill="#F26E22"/>
<path d="M141.548 9.57315C141.427 9.91197 141.209 10.2024 140.991 10.4928C140.215 11.5334 139.173 12.3078 138.156 13.1065C137.259 13.8083 136.435 14.6311 135.829 15.6233C135.417 16.2768 135.15 16.9786 134.956 17.7288C134.956 17.7772 134.932 17.8014 134.908 17.874C134.472 17.4626 134.011 17.0754 133.575 16.664C132.412 15.5991 131.249 14.5343 130.085 13.4937C129.988 13.3969 129.964 13.3243 130.013 13.1791C130.57 11.5334 131.467 10.1056 132.872 9.04074C133.163 8.82293 133.478 8.65353 133.769 8.45992C134.448 8.04851 135.029 7.54029 135.538 6.95947C135.684 7.08048 135.805 7.20148 135.926 7.34668C136.144 7.58869 136.386 7.7823 136.629 7.9759C137.283 8.50832 138.034 8.82293 138.858 8.94393C139.416 9.01654 139.973 9.08914 140.555 9.08914C140.943 9.08914 141.282 9.18594 141.476 9.57315C141.5 9.54895 141.524 9.57315 141.548 9.57315ZM134.423 10.3234C134.423 11.3398 135.296 12.1868 136.338 12.1868C137.307 12.1868 138.131 11.4124 138.131 10.4444C138.131 9.45215 137.259 8.58092 136.217 8.58092C135.223 8.58092 134.448 9.35535 134.423 10.3234ZM131.83 11.7754C131.83 11.6786 131.782 11.606 131.685 11.5576C131.564 11.5092 131.491 11.5334 131.394 11.6302C131.2 11.848 131.055 12.1142 130.958 12.4046C130.933 12.5014 130.933 12.6225 131.03 12.6709C131.224 12.7677 131.2 12.9129 131.127 13.0823C131.055 13.2517 131.103 13.3727 131.224 13.4937C131.685 13.9051 132.121 14.3165 132.581 14.7279C133.018 15.1151 133.43 15.5023 133.866 15.8896C134.011 16.0106 134.157 16.0348 134.254 15.8896C134.351 15.7443 134.472 15.7201 134.617 15.7685C134.763 15.817 134.884 15.7685 134.956 15.6233C135.078 15.3813 135.199 15.1393 135.368 14.9215C135.465 14.8005 135.441 14.6553 135.344 14.5585C135.223 14.4617 135.102 14.4859 135.005 14.6069C134.884 14.7521 134.763 14.9215 134.666 15.0909C134.617 15.2119 134.544 15.2603 134.399 15.2361C134.326 15.2361 134.229 15.2603 134.157 15.2845C134.06 15.3571 133.987 15.3087 133.914 15.2361C133.163 14.5585 132.412 13.8809 131.685 13.2033C131.612 13.1307 131.588 13.0823 131.612 12.9855C131.661 12.8161 131.661 12.6467 131.564 12.5256C131.442 12.3562 131.491 12.2352 131.588 12.1142C131.636 12.0416 131.685 11.9932 131.733 11.9206C131.782 11.8964 131.806 11.848 131.83 11.7754Z" fill="#D32329"/>
<path d="M124.996 27.7479C124.729 27.7963 124.487 27.7479 124.22 27.7963C123.615 27.8689 123.033 28.0141 122.476 28.232C120.755 28.8612 119.252 29.8292 117.822 30.9182C117.629 31.0634 117.435 31.2086 117.241 31.3538C117.217 31.1844 117.071 31.2328 116.998 31.257C116.586 31.2812 116.199 31.2086 115.811 31.2086C115.423 31.2086 115.035 31.1602 114.648 31.0634C114.114 30.9666 113.557 30.8456 113.024 30.7246C112.248 30.531 111.521 30.289 110.77 29.9986C110.067 29.7082 109.364 29.3936 108.734 28.9822C108.201 28.6676 107.692 28.2804 107.207 27.8689C107.038 27.7237 106.917 27.5785 106.723 27.4575C106.65 27.4091 106.602 27.3607 106.602 27.2639C107.232 27.0461 107.886 26.8767 108.565 26.7799C108.71 26.8041 108.807 26.9009 108.904 26.9977C110.067 27.8447 111.352 28.4014 112.733 28.7402C113.193 28.837 113.654 28.9096 114.114 28.958C114.551 29.0064 114.963 29.0306 115.399 29.0064C116.15 28.9822 116.877 28.9096 117.604 28.7402C118.574 28.5224 119.495 28.1593 120.367 27.6995C120.803 27.4575 121.24 27.1913 121.652 26.8767C121.7 26.8283 121.748 26.8041 121.821 26.7799C122.669 26.9009 123.493 27.1429 124.293 27.4333C124.511 27.5301 124.754 27.6027 124.996 27.7479Z" fill="#F1AB81"/>
<path d="M121.191 48.8027C121.288 49.1415 121.312 49.4803 121.385 49.8433C121.53 50.6177 121.651 51.3922 121.773 52.1424C121.894 52.8926 122.015 53.6428 122.136 54.3931C122.233 54.9739 122.33 55.5305 122.427 56.1113C122.451 56.2323 122.427 56.3775 122.451 56.5227C122.282 57.0551 121.942 57.3213 121.458 57.3213C120.997 57.3213 120.609 56.9825 120.537 56.5469C120.391 55.6999 120.246 54.8287 120.1 53.9816C119.979 53.2556 119.858 52.5054 119.737 51.7794C119.737 51.7552 119.713 51.7552 119.713 51.731C119.664 51.2712 119.567 50.7871 119.495 50.3273C119.422 49.8675 119.301 49.4077 119.325 48.9237L119.349 48.8995C119.495 48.7543 119.64 48.6333 119.785 48.4881C119.834 48.4397 119.858 48.4155 119.931 48.4397C120.319 48.5849 120.755 48.6817 121.191 48.8027Z" fill="#D32329"/>
<path d="M123.639 56.6437C123.639 56.3049 123.566 55.9902 123.615 55.6514C123.663 55.24 123.712 54.8528 124.051 54.5624C124.245 54.393 124.463 54.2478 124.754 54.2236C125.408 54.1268 126.062 54.1752 126.717 54.1752C127.541 54.1752 128.389 54.1752 129.213 54.1752C129.528 54.1752 129.819 54.1994 130.134 54.1994C130.182 54.1994 130.206 54.2236 130.231 54.2236C130.11 54.4656 129.94 54.6592 129.77 54.877C128.825 55.966 127.589 56.4259 126.208 56.6195C125.408 56.7405 124.608 56.7163 123.833 56.6921C123.76 56.6921 123.687 56.6679 123.639 56.6437Z" fill="#E26126"/>
<path d="M136.241 5.89465C136.168 5.77365 136.047 5.72525 135.95 5.62844C135.538 5.26543 135.126 4.90242 134.69 4.53941C134.617 4.46681 134.617 4.4184 134.641 4.3216C134.981 3.57138 135.78 3.40197 136.411 3.93439C137.235 4.66041 138.083 5.38643 138.907 6.13666C139.634 6.79008 140.361 7.4435 141.112 8.07272C141.039 8.09692 140.991 8.07272 140.943 8.04852C140.773 8.00012 140.627 7.95171 140.434 7.97592C140.094 8.02432 139.828 8.19372 139.585 8.43573C139.537 8.48413 139.513 8.55673 139.416 8.48413C139.27 8.36313 139.125 8.29053 139.004 8.14532C138.761 7.90331 138.495 7.73391 138.252 7.5161C137.84 7.15309 137.428 6.81428 136.992 6.47547C136.75 6.28186 136.532 6.06406 136.241 5.89465Z" fill="#DA3427"/>
<path d="M136.241 5.89465C136.532 6.06406 136.75 6.30607 136.992 6.49967C137.404 6.83848 137.841 7.17729 138.253 7.5403C138.495 7.75811 138.786 7.95172 139.004 8.16952C139.125 8.29053 139.295 8.38733 139.416 8.50834C139.489 8.58094 139.537 8.50834 139.586 8.45993C139.828 8.21793 140.094 8.07272 140.434 8.00012C140.603 7.97592 140.773 8.02432 140.943 8.07272C140.991 8.09692 141.04 8.12112 141.112 8.09692C141.088 8.14532 141.137 8.14532 141.161 8.14532L141.185 8.16952C141.234 8.24213 141.33 8.29053 141.403 8.33893C141.645 8.55674 141.718 8.84715 141.67 9.16176C141.645 9.30696 141.621 9.45217 141.549 9.57317C141.524 9.57317 141.5 9.57317 141.5 9.54897C141.33 9.16176 140.967 9.06495 140.579 9.06495C140.022 9.06495 139.44 9.01655 138.883 8.91975C138.059 8.79874 137.307 8.48413 136.653 7.95172C136.411 7.75811 136.168 7.56451 135.95 7.3225C135.829 7.20149 135.708 7.05629 135.562 6.93529C135.611 6.93529 135.611 6.91109 135.611 6.86268C135.853 6.54807 136.071 6.23346 136.241 5.89465Z" fill="#AE2124"/>
<path d="M98.1435 34.8146C97.9496 35.3712 97.8284 35.952 97.7315 36.5328C97.683 36.8232 97.6588 37.1136 97.6588 37.4041C97.2468 37.5009 96.859 37.6219 96.447 37.6703C96.447 37.3557 96.4713 37.0652 96.5197 36.7506C96.5682 36.2908 96.6409 35.8552 96.8833 35.468C96.9317 35.3954 96.956 35.347 96.956 35.2502C97.3437 35.0808 97.7315 34.9356 98.1435 34.8146Z" fill="#E79E77"/>
<path d="M132.63 37.404C132.606 36.6054 132.46 35.831 132.218 35.0808C132.194 35.0082 132.169 34.9355 132.169 34.8387C132.557 34.9597 132.921 35.105 133.308 35.226C133.405 35.468 133.575 35.6858 133.624 35.952C133.745 36.5086 133.817 37.0652 133.817 37.646C133.43 37.5976 133.042 37.5008 132.63 37.404Z" fill="#E79E77"/>
<path d="M133.842 37.6461C133.842 37.0653 133.769 36.5087 133.648 35.9521C133.599 35.6859 133.43 35.4681 133.333 35.2261C133.769 35.2987 134.181 35.4197 134.593 35.4923C134.593 35.7343 134.714 35.9521 134.738 36.1699C134.787 36.5813 134.86 37.0169 134.86 37.4283C134.86 37.5493 134.811 37.6461 134.835 37.7672C134.496 37.7672 134.157 37.7188 133.842 37.6461Z" fill="#F1AB81"/>
<path d="M96.9318 35.2261C96.9318 35.2987 96.9076 35.3713 96.8591 35.4439C96.641 35.8553 96.544 36.2909 96.4956 36.7265C96.4713 37.0411 96.4229 37.3315 96.4229 37.6461C96.1078 37.7188 95.7685 37.7672 95.4535 37.7672C95.4292 37.1137 95.4777 36.4845 95.6231 35.8553C95.6473 35.7343 95.72 35.6133 95.72 35.4681C96.132 35.4197 96.5198 35.2987 96.9318 35.2261Z" fill="#F1AB81"/>
<path d="M135.635 6.86267C135.635 6.88705 135.611 6.9358 135.587 6.9358C135.611 6.91142 135.611 6.88705 135.635 6.86267Z" fill="#D32329"/>
<path d="M141.162 8.14644C141.137 8.14644 141.088 8.14644 141.112 8.09692C141.112 8.09692 141.137 8.12168 141.162 8.14644Z" fill="#DA3427"/>
<path d="M141.186 8.17088L141.161 8.14539C141.161 8.14539 141.186 8.14539 141.186 8.17088Z" fill="#DA3427"/>
<path d="M102.385 47.8588C103.015 48.246 103.693 48.5606 104.42 48.7542C105.39 49.0204 106.383 49.1172 107.377 49.0446C107.959 48.9962 108.516 48.9236 109.098 48.8026C109.074 48.8752 109.049 48.972 109.025 49.0446C108.904 49.7464 108.807 50.424 108.686 51.1259C108.589 51.7309 108.468 52.3601 108.371 52.9651C108.25 53.6669 108.128 54.393 108.031 55.0948C107.959 55.5546 107.838 56.0144 107.862 56.4984C107.426 56.5468 107.014 56.5952 106.577 56.6436C106.529 56.6436 106.456 56.6436 106.408 56.6436C106.48 56.1596 106.456 55.6756 106.335 55.1916C106.262 54.9738 106.165 54.756 105.947 54.5866C105.584 54.2962 105.172 54.272 104.735 54.272C104.469 54.272 104.202 54.272 103.936 54.272C103.596 54.272 103.257 54.2962 102.918 54.272C102.797 54.2478 102.651 54.3204 102.53 54.2962C101.997 54.2236 101.488 54.2962 100.955 54.272C100.737 54.2478 100.519 54.2962 100.276 54.2962C100.228 54.2962 100.155 54.272 100.131 54.3446C99.8158 53.8848 99.6219 53.3765 99.5492 52.8199C99.3795 51.7793 99.4522 50.7629 99.9369 49.819C100.422 48.851 101.221 48.2218 102.239 47.8588C102.288 47.883 102.336 47.883 102.385 47.8588Z" fill="#F26E22"/>
<path d="M107.862 56.5227C107.838 56.0387 107.959 55.5789 108.031 55.119C108.128 54.4172 108.25 53.6912 108.371 52.9894C108.468 52.3844 108.589 51.7551 108.686 51.1501C108.807 50.4483 108.904 49.7707 109.025 49.0688C109.049 48.9962 109.074 48.8994 109.098 48.8268C109.486 48.73 109.849 48.6332 110.213 48.5122C110.261 48.488 110.31 48.488 110.334 48.5364C110.503 48.8026 110.746 49.0204 110.988 49.2141C110.915 49.6497 110.843 50.1095 110.77 50.5451C110.722 50.9323 110.625 51.3195 110.576 51.7309C110.479 52.0455 110.455 52.3844 110.406 52.699C110.334 53.1346 110.261 53.5702 110.188 54.0058C110.043 54.8286 109.922 55.6757 109.776 56.4985C109.704 56.9825 109.34 57.2971 108.88 57.3213C108.395 57.3455 108.007 57.0793 107.862 56.5953C107.862 56.5711 107.862 56.5469 107.862 56.5227Z" fill="#D32329"/>
<path d="M100.155 54.3931C100.179 54.3447 100.252 54.3447 100.3 54.3447C100.519 54.3447 100.761 54.2963 100.979 54.3205C101.512 54.3447 102.021 54.272 102.554 54.3447C102.675 54.3689 102.821 54.2963 102.942 54.3205C103.281 54.3689 103.621 54.3205 103.96 54.3205C104.227 54.3205 104.493 54.3205 104.76 54.3205C105.172 54.3205 105.608 54.3447 105.971 54.6351C106.165 54.8045 106.286 55.0223 106.359 55.2401C106.48 55.6999 106.505 56.2081 106.432 56.6921C105.075 56.7889 103.742 56.7163 102.457 56.2081C101.755 55.9419 101.124 55.5305 100.615 54.9739C100.422 54.8045 100.276 54.6109 100.155 54.3931Z" fill="#E26126"/>
<path d="M85.9048 18.2855C85.9048 18.3106 85.9299 18.3106 85.9048 18.2855C85.9299 18.3106 85.9299 18.3106 85.9048 18.2855C85.9048 18.3106 85.9048 18.3106 85.9048 18.2855Z" fill="white"/>
<path d="M110.6 51.7067C110.625 51.3195 110.722 50.9323 110.794 50.5209C110.867 50.0853 110.94 49.6254 111.012 49.1898C111.4 49.456 111.836 49.6496 112.321 49.698C112.757 49.7465 113.169 49.7222 113.557 49.5528C114.017 49.3834 114.26 48.8026 113.896 48.2702C113.896 48.1734 113.969 48.1734 114.017 48.125C114.405 48.5122 114.817 48.8752 115.302 49.1172C116.635 49.8191 117.944 49.7465 119.204 48.9236C119.228 48.8994 119.276 48.8752 119.325 48.851C119.301 49.335 119.446 49.7949 119.495 50.2547C119.567 50.7145 119.664 51.1743 119.713 51.6583C119.204 51.7551 118.695 51.8519 118.186 51.9245C117.944 51.9729 117.701 51.9971 117.459 52.0697C117.047 52.1907 116.611 52.2391 116.174 52.3117C115.738 52.3843 115.375 52.5295 115.157 52.941C114.841 52.3359 114.26 52.3359 113.727 52.2391C113.048 52.1181 112.345 51.9729 111.667 51.8519C111.279 51.8519 110.94 51.8035 110.6 51.7067Z" fill="#BF4D27"/>
<path d="M127.08 14.5586C127.104 13.2275 127.008 11.8723 126.862 10.5654C126.789 9.86362 126.644 9.186 126.426 8.53257C125.844 6.66912 124.778 5.14447 123.348 3.83763C122.185 2.79699 120.876 2.04677 119.398 1.53855C117.774 0.981937 116.126 0.73993 114.405 0.836733C113.678 0.885134 112.951 0.981937 112.248 1.12714C110.261 1.58696 108.492 2.45818 106.989 3.81343C105.778 4.87826 104.857 6.1609 104.227 7.63715C103.96 8.26637 103.742 8.94399 103.621 9.62161C103.5 10.0814 103.427 10.5412 103.378 11.0011C103.33 11.3641 103.281 11.7513 103.257 12.1143C103.233 12.6225 103.209 13.1307 103.185 13.6147C103.185 13.6389 103.185 13.6631 103.185 13.6873C103.16 14.9458 103.185 16.2042 103.378 17.4627C103.693 17.4385 103.96 17.2932 104.154 17.0512C104.517 16.6156 104.614 16.1074 104.639 15.575C104.663 14.8006 104.663 14.0019 104.711 13.2275C104.736 12.8887 104.784 12.5741 104.832 12.2353C104.881 11.9691 104.929 11.7271 104.978 11.4609C104.978 11.4367 105.002 11.4367 105.002 11.4125C105.123 10.9284 105.269 10.4686 105.511 10.0572C105.972 9.2344 106.626 8.67778 107.547 8.43577C108.104 8.29057 108.686 8.26637 109.268 8.26637C109.461 8.24217 109.68 8.29057 109.873 8.31477C110.528 8.38737 111.158 8.53257 111.812 8.70198C112.685 8.91979 113.581 9.08919 114.502 9.11339C115.181 9.13759 115.859 9.13759 116.538 9.04079C117.314 8.94399 118.065 8.77458 118.816 8.60518C119.374 8.48417 119.907 8.36317 120.464 8.29057C120.585 8.31477 120.682 8.26637 120.803 8.26637C121.482 8.24217 122.161 8.26637 122.815 8.45997C123.445 8.65358 123.954 8.99239 124.366 9.4764C124.802 10.0088 125.069 10.6138 125.238 11.2915C125.311 11.6061 125.384 11.8965 125.457 12.2111C125.481 12.3805 125.457 12.5499 125.505 12.7193C125.602 13.3001 125.578 13.8809 125.626 14.486C125.65 14.8006 125.626 15.1152 125.626 15.4298C125.626 15.8654 125.699 16.2768 125.869 16.664C126.062 17.1238 126.377 17.4385 126.886 17.5111C126.911 17.3175 126.935 17.0996 126.959 16.906C127.056 16.1074 127.104 15.333 127.08 14.5586Z" fill="url(#paint0_linear_1_11929)"/>
<path d="M114.987 25.4489C113.63 25.4247 112.369 24.8197 111.4 23.6097C111.23 23.3918 111.255 23.1498 111.449 23.0046C111.642 22.8594 111.885 22.9078 112.054 23.1256C112.975 24.2389 114.163 24.7471 115.593 24.6019C116.683 24.5051 117.58 23.9969 118.259 23.1256C118.38 22.9804 118.525 22.9078 118.719 22.9562C118.889 23.0046 118.986 23.1256 119.01 23.295C119.034 23.4644 118.961 23.5855 118.864 23.6823C118.259 24.4325 117.483 24.9407 116.586 25.2311C116.102 25.3763 115.617 25.4489 114.987 25.4489Z" fill="#AF583F"/>
<path d="M109.558 18.7937C108.662 18.7695 107.692 18.0677 107.353 17.0271C107.232 16.664 107.426 16.3736 107.765 16.422C107.959 16.4462 108.056 16.5672 108.128 16.7608C108.322 17.3417 108.71 17.7289 109.267 17.9225C110.213 18.2371 111.206 17.7289 111.546 16.785C111.618 16.543 111.739 16.4462 111.933 16.4462C112.224 16.4462 112.418 16.664 112.345 16.9545C112.055 17.8983 111.424 18.5033 110.479 18.7695C110.213 18.7937 109.946 18.8179 109.558 18.7937Z" fill="#AF583F"/>
<path d="M120.585 18.7937C119.373 18.8663 118.283 18.0919 117.944 16.9303C117.895 16.7366 117.944 16.5914 118.113 16.4704C118.234 16.3736 118.453 16.3978 118.598 16.4946C118.695 16.5672 118.719 16.664 118.768 16.7608C118.986 17.3901 119.422 17.7773 120.052 17.9467C120.973 18.1645 121.87 17.6563 122.185 16.7608C122.257 16.5188 122.379 16.422 122.572 16.422C122.863 16.3978 123.081 16.6398 122.984 16.9303C122.669 17.9225 121.991 18.5275 120.973 18.7695C120.9 18.7937 120.852 18.7937 120.779 18.7937C120.706 18.7937 120.658 18.7937 120.585 18.7937Z" fill="#AF583F"/>
<path d="M120.827 13.6389C121.312 13.6389 121.773 13.6873 122.233 13.8325C122.451 13.9051 122.572 14.0503 122.548 14.2923C122.524 14.4859 122.378 14.6311 122.209 14.6311C122.063 14.6553 121.918 14.5827 121.773 14.5585C121.07 14.4133 120.367 14.4375 119.664 14.6069C119.301 14.7037 119.034 14.4617 119.107 14.1229C119.155 13.9777 119.252 13.8809 119.398 13.8325C119.834 13.6873 120.318 13.6389 120.827 13.6389Z" fill="#AF583F"/>
<path d="M110.188 13.6389C110.673 13.6389 111.158 13.7115 111.642 13.8325C111.788 13.8809 111.909 13.9777 111.933 14.1471C111.957 14.3165 111.909 14.4617 111.739 14.5585C111.618 14.6311 111.497 14.6311 111.376 14.5827C110.576 14.3649 109.8 14.3649 109.001 14.5827C108.758 14.6553 108.516 14.5343 108.468 14.3165C108.395 14.0745 108.516 13.8809 108.783 13.8083C109.219 13.6873 109.704 13.6389 110.188 13.6389Z" fill="#AF583F"/>
<path d="M118.549 43.9624C118.065 43.8172 117.58 43.793 117.071 43.8898C116.417 44.0108 116.15 44.5917 116.417 45.1241C116.32 45.1241 116.223 45.1241 116.199 45.2451C115.835 44.9063 115.472 44.5917 115.035 44.3739C114.551 44.1076 114.066 43.9624 113.508 43.914C113.508 43.8898 113.484 43.8898 113.484 43.914C113.339 43.914 113.193 43.914 113.048 43.914C113.024 43.8898 113 43.8898 112.975 43.914C112.539 43.9382 112.103 44.0592 111.691 44.2528C111.691 44.2044 111.667 44.1802 111.618 44.156C111.473 44.1076 111.303 44.156 111.158 44.1318C110.77 44.0834 110.382 44.0592 109.994 44.0108C109.922 44.0108 109.897 43.9866 109.897 43.914C109.994 43.6478 110.188 43.4058 110.334 43.1638C110.552 42.825 110.77 42.462 111.037 42.1474C111.303 42.2684 111.57 42.4136 111.861 42.462C111.885 42.462 111.909 42.4862 111.933 42.462C112.103 42.3168 112.321 42.4136 112.491 42.3168C112.66 42.1958 112.854 42.2442 113.048 42.2926C113.169 42.3168 113.29 42.3652 113.46 42.3168C113.557 42.2926 113.727 42.3652 113.824 42.4378C114.017 42.5346 114.187 42.583 114.381 42.462C114.478 42.4136 114.575 42.4378 114.672 42.462C114.769 42.4862 114.866 42.4862 114.963 42.4378C115.108 42.3652 115.229 42.341 115.399 42.3894C115.568 42.4378 115.762 42.4136 115.932 42.4136C115.762 42.704 115.617 42.9944 115.472 43.2848C115.375 43.5268 115.568 43.793 115.835 43.8172C116.029 43.8172 116.174 43.7446 116.247 43.5752C116.489 43.0912 116.732 42.6072 116.998 42.1716C117.12 42.2684 117.168 42.099 117.289 42.0748C117.386 42.0748 117.483 42.0506 117.604 42.0748C117.798 42.1232 117.992 42.0264 118.162 41.9538C118.477 41.857 118.816 41.7602 119.083 41.5666C119.107 41.5666 119.131 41.5424 119.155 41.5424C119.47 41.5666 119.713 41.3972 119.979 41.3246C120.222 41.2762 120.488 41.2762 120.731 41.2035C120.997 41.1309 121.264 41.1067 121.53 40.9857C121.555 40.9615 121.603 40.9615 121.651 40.9615C121.894 40.9857 122.088 40.8889 122.282 40.7679C122.742 40.5259 123.227 40.3565 123.76 40.3565C123.978 40.3565 124.172 40.3323 124.39 40.2597C124.608 40.1871 124.875 40.1629 125.117 40.1387C125.287 40.1145 125.456 40.0903 125.626 40.0177C125.771 39.9693 125.893 40.0419 126.014 40.0177C126.353 39.9451 126.717 39.9209 127.08 39.9451C127.201 39.9451 127.274 39.9935 127.298 40.1145C127.298 40.1387 127.298 40.1871 127.274 40.2113C127.129 40.5985 127.007 41.0099 126.862 41.3972C126.789 41.5908 126.741 41.8086 126.62 42.0022C126.28 41.978 125.917 41.9296 125.578 41.9538C125.19 42.0022 124.826 42.0748 124.463 42.1716C124.123 42.2684 123.808 42.341 123.469 42.4378C123.275 42.4862 123.033 42.462 122.839 42.5588C122.621 42.6314 122.403 42.6556 122.185 42.7282C121.967 42.8008 121.748 42.8734 121.506 42.8976C121.07 42.9218 120.658 43.0186 120.319 43.309C120.246 43.3816 120.149 43.4058 120.028 43.4058C119.931 43.4058 119.834 43.3816 119.761 43.43C119.567 43.5268 119.325 43.5268 119.131 43.5752C118.961 43.6236 118.767 43.7204 118.598 43.793C118.598 43.8414 118.549 43.8898 118.549 43.9624Z" fill="#EA6624"/>
<path d="M116.199 45.2451C116.223 45.1241 116.32 45.1241 116.417 45.1241C116.659 45.4872 116.998 45.584 117.41 45.4872C117.944 45.3662 118.453 45.584 118.719 46.0438C118.986 46.5278 118.889 47.0602 118.477 47.4474C117.726 48.1734 116.586 48.1976 115.714 47.52C115.399 47.278 115.108 46.9634 114.866 46.6488C114.551 46.2858 114.066 46.2132 113.727 46.5036C113.363 46.794 113.315 47.3022 113.63 47.6894C113.751 47.8588 113.872 48.0282 114.018 48.1734C113.969 48.1976 113.896 48.2218 113.896 48.3186C113.63 48.0524 113.339 47.9798 112.951 48.0766C112.394 48.246 111.861 48.004 111.594 47.4958C111.327 46.9876 111.473 46.431 111.933 46.0438C112.733 45.3904 113.751 45.3904 114.599 46.0438C114.938 46.2858 115.205 46.6004 115.472 46.915C115.787 47.278 116.271 47.3506 116.635 47.0602C116.998 46.7698 117.047 46.2616 116.732 45.8744C116.562 45.6566 116.368 45.463 116.199 45.2451Z" fill="#D65A27"/>
<path d="M109.946 43.9141C109.946 43.9867 109.994 44.0109 110.043 44.0109C110.431 44.0351 110.818 44.0835 111.206 44.1319C111.352 44.1561 111.497 44.0835 111.667 44.1561C111.715 44.1803 111.739 44.2045 111.739 44.2529C111.206 44.5191 110.746 44.8579 110.382 45.3419C110.31 45.4387 110.237 45.5355 110.188 45.6323C109.97 45.5839 109.752 45.5597 109.558 45.5355C109.316 45.5113 109.074 45.4387 108.855 45.3419C108.807 45.3177 108.758 45.3177 108.734 45.3419C108.613 45.4145 108.492 45.3903 108.371 45.3661C108.225 45.3419 108.08 45.2451 107.934 45.2209C107.595 45.1967 107.28 45.0515 106.941 45.0999C106.844 45.1241 106.747 45.0273 106.65 45.0757C106.553 45.1241 106.432 45.1241 106.335 45.1241C106.068 45.0999 105.802 45.0999 105.511 45.1241C105.39 44.8579 105.22 44.6159 105.147 44.3255C105.39 44.0593 105.608 43.7447 105.826 43.4543C106.02 43.2123 106.214 42.946 106.408 42.704C106.577 42.704 106.771 42.704 106.941 42.704C107.256 42.6798 107.571 42.8492 107.886 42.8008C108.25 42.7524 108.565 42.8976 108.904 42.946C109.098 42.9702 109.292 43.0187 109.51 42.9944C109.486 43.0187 109.486 43.0428 109.461 43.0913C109.17 43.5753 108.88 44.0351 108.637 44.5191C108.589 44.6159 108.54 44.6885 108.565 44.7853C108.589 44.9789 108.758 45.1241 108.952 45.1725C109.098 45.1967 109.267 45.0757 109.364 44.9305C109.461 44.7611 109.558 44.5675 109.655 44.3981C109.728 44.2529 109.801 44.0593 109.946 43.9141Z" fill="#E26126"/>
<path d="M105.487 45.1726C105.753 45.1484 106.02 45.1484 106.311 45.1726C106.408 45.1726 106.529 45.1726 106.626 45.1242C106.723 45.0758 106.82 45.1484 106.917 45.1484C107.256 45.1 107.571 45.2452 107.91 45.2694C108.056 45.2694 108.201 45.3904 108.347 45.4146C108.468 45.4388 108.589 45.463 108.71 45.3904C108.759 45.3662 108.783 45.3662 108.831 45.3904C109.049 45.4872 109.292 45.5598 109.534 45.584C109.752 45.6082 109.97 45.6324 110.164 45.6808C110.164 45.6808 110.164 45.705 110.14 45.705C110.14 45.7292 110.116 45.7292 110.116 45.7534C110.067 45.8744 109.995 46.0196 109.97 46.1406C109.946 46.189 109.922 46.2132 109.873 46.2132C109.171 46.5036 108.468 46.6972 107.716 46.7698C107.304 46.8182 106.868 46.8424 106.456 46.8182C106.408 46.8182 106.335 46.8182 106.287 46.794C106.19 46.5036 106.02 46.2858 105.899 46.0196C105.778 45.7534 105.632 45.5114 105.511 45.2452C105.511 45.2452 105.511 45.221 105.487 45.221C105.511 45.1726 105.487 45.1726 105.487 45.1726Z" fill="#D65A27"/>
<path d="M101.439 35.6858C101.221 35.8068 101.003 35.952 100.785 36.073C100.761 35.7826 100.64 35.5406 100.519 35.2986C100.494 35.2502 100.47 35.2502 100.422 35.2502C100.494 35.0082 100.591 34.7904 100.712 34.5726C100.785 34.4274 100.858 34.4516 100.955 34.5726C101.173 34.9114 101.343 35.2744 101.439 35.6858Z" fill="#F1AB81"/>
<path d="M100.422 35.2261C100.47 35.2261 100.494 35.2503 100.519 35.2745C100.64 35.5165 100.761 35.7827 100.785 36.0489C100.543 36.1941 100.325 36.3151 100.058 36.4119C100.131 36.0247 100.252 35.6133 100.422 35.2261Z" fill="#E79E77"/>
<path d="M113 43.9145C113.024 43.8898 113.049 43.8898 113.073 43.9145C113.049 43.9145 113.024 43.9145 113 43.9145Z" fill="#F26E22"/>
<path d="M110.14 45.6813C110.14 45.6568 110.164 45.6568 110.164 45.6323C110.164 45.6568 110.14 45.6813 110.14 45.6813Z" fill="#E26126"/>
<path d="M113.509 43.9147C113.509 43.8892 113.534 43.9147 113.534 43.9147H113.509Z" fill="#F26E22"/>
<path d="M111.909 39.8241C112.006 39.6063 112.2 39.4611 112.345 39.2917C112.781 38.8077 113.242 38.3237 113.678 37.8396C114.211 37.2588 114.769 36.7506 115.326 36.2182C115.908 35.6616 116.514 35.1292 117.119 34.6209C117.798 34.0401 118.477 33.4835 119.155 32.9511C120.173 32.1525 121.215 31.4022 122.306 30.652C123.009 30.168 123.711 29.7082 124.414 29.2726C124.632 29.1516 124.899 29.1758 125.02 29.3694C125.117 29.5388 125.117 29.805 124.875 29.9502C124.269 30.3132 123.663 30.7004 123.081 31.1118C121.991 31.8621 120.924 32.6123 119.882 33.4351C119.276 33.8949 118.695 34.3789 118.113 34.8387C117.653 35.226 117.216 35.6132 116.78 36.0004C116.271 36.4602 115.762 36.9442 115.278 37.404C114.769 37.8638 114.332 38.3721 113.872 38.8319C113.533 39.1707 113.193 39.5337 112.878 39.9209C112.854 39.9451 112.83 39.9693 112.781 39.9935C112.781 39.8483 112.733 39.8241 112.588 39.8483C112.491 39.8725 112.394 39.8483 112.297 39.8483C112.176 39.8241 112.03 39.7515 111.909 39.8241Z" fill="#E05F26"/>
<path d="M116.756 41.0584C117.095 40.4534 117.483 39.8484 117.871 39.2675C118.283 38.6383 118.719 38.0333 119.18 37.4525C119.64 36.8717 120.076 36.2908 120.561 35.71C120.997 35.1776 121.458 34.6694 121.918 34.1612C122.088 33.9676 122.354 33.9676 122.524 34.1128C122.694 34.2822 122.669 34.5242 122.5 34.7178C122.039 35.2018 121.603 35.71 121.191 36.2182C120.537 36.9927 119.907 37.8155 119.301 38.6383C118.792 39.3401 118.307 40.042 117.847 40.768C117.822 40.7922 117.822 40.8406 117.774 40.8406C117.629 40.7922 117.507 40.8164 117.41 40.9132C117.386 40.9374 117.338 40.9616 117.314 40.9616C117.192 40.9374 117.071 40.9616 116.974 41.0342C116.926 41.0826 116.829 41.0826 116.756 41.0584Z" fill="#E05F26"/>
<path d="M111.909 39.8242C112.054 39.7758 112.176 39.8242 112.321 39.8484C112.418 39.8726 112.515 39.8726 112.612 39.8484C112.757 39.8 112.806 39.8484 112.806 39.9936C112.248 40.6712 111.691 41.373 111.158 42.0748C111.133 42.099 111.109 42.1232 111.109 42.1716C110.843 42.4863 110.625 42.8493 110.406 43.1881C110.237 43.4301 110.067 43.6721 109.97 43.9383C109.825 44.0835 109.752 44.2771 109.655 44.4465C109.558 44.6159 109.461 44.8095 109.364 44.9789C109.267 45.1483 109.098 45.2451 108.952 45.2209C108.758 45.1967 108.613 45.0273 108.565 44.8337C108.54 44.7369 108.589 44.6401 108.637 44.5675C108.88 44.0835 109.17 43.5995 109.461 43.1397C109.485 43.1155 109.485 43.0913 109.51 43.0429C109.752 42.7283 109.946 42.3895 110.188 42.0506C110.697 41.3488 111.206 40.647 111.764 39.9936C111.836 39.9936 111.909 39.921 111.909 39.8242Z" fill="#D65A27"/>
<path d="M116.756 41.0584C116.829 41.0826 116.926 41.0826 116.998 41.0584C117.119 41.01 117.216 40.9616 117.338 40.9858C117.386 40.9858 117.41 40.9616 117.435 40.9374C117.531 40.8164 117.653 40.7922 117.798 40.8648C117.604 41.2036 117.386 41.5666 117.192 41.9054C117.144 41.978 117.095 42.0748 117.047 42.1717C116.756 42.6315 116.538 43.1155 116.296 43.5753C116.223 43.7447 116.077 43.8415 115.884 43.8173C115.617 43.7931 115.423 43.5269 115.52 43.2849C115.641 42.9945 115.787 42.6799 115.98 42.4137C116.223 41.9538 116.465 41.494 116.756 41.0584Z" fill="#D65A27"/>
<path d="M111.909 39.8242C111.909 39.9452 111.861 39.9936 111.74 39.9936C111.788 39.921 111.836 39.8726 111.909 39.8242Z" fill="#E05F26"/>
<path d="M126.159 43.3575C125.917 44.0109 125.602 44.6401 125.311 45.2693C125.093 45.7533 124.826 46.2132 124.633 46.6972C124.39 46.7698 124.148 46.7698 123.905 46.794C122.791 46.8424 121.7 46.673 120.658 46.2858C120.537 46.2374 120.488 46.189 120.464 46.068C120.391 45.6323 120.173 45.2451 119.931 44.9063C120.028 44.8337 120.149 44.8579 120.222 44.8095C120.634 44.5675 121.07 44.4707 121.53 44.3739C121.797 44.3255 122.039 44.1803 122.306 44.1561C122.548 44.1319 122.791 44.0835 123.033 44.0109C123.445 43.8899 123.857 43.8657 124.245 43.6721C124.317 43.6479 124.366 43.6237 124.439 43.5995C124.729 43.5027 125.044 43.5027 125.335 43.4301C125.529 43.3817 125.747 43.3817 125.941 43.3333C126.014 43.3091 126.111 43.2607 126.159 43.3575Z" fill="#D65A27"/>
<path d="M126.159 43.3575C126.111 43.2849 126.014 43.3091 125.941 43.3091C125.747 43.3333 125.529 43.3575 125.335 43.4059C125.044 43.4785 124.729 43.4785 124.439 43.5753C124.366 43.5995 124.293 43.6237 124.245 43.6479C123.857 43.8415 123.421 43.8657 123.033 43.9867C122.815 44.0593 122.548 44.1077 122.306 44.1319C122.039 44.1561 121.797 44.3013 121.53 44.3497C121.07 44.4465 120.634 44.5434 120.222 44.7854C120.125 44.8338 120.004 44.8096 119.931 44.8822C119.567 44.4708 119.131 44.1319 118.574 43.9625C118.574 43.8899 118.598 43.8415 118.671 43.8173C118.84 43.7447 119.01 43.6721 119.204 43.5995C119.422 43.5269 119.64 43.5511 119.834 43.4543C119.907 43.4301 120.004 43.4301 120.101 43.4301C120.222 43.4301 120.319 43.4059 120.391 43.3333C120.731 43.0187 121.167 42.9461 121.579 42.9219C121.821 42.8977 122.039 42.8251 122.257 42.7525C122.476 42.6799 122.694 42.6799 122.912 42.5831C123.106 42.5105 123.348 42.5347 123.542 42.4621C123.857 42.3653 124.196 42.2685 124.536 42.1959C124.899 42.0991 125.287 42.0265 125.65 41.9781C126.014 41.9297 126.353 42.0023 126.692 42.0265C126.692 42.0507 126.692 42.0749 126.692 42.0991C126.499 42.5347 126.353 42.9461 126.159 43.3575Z" fill="#E26126"/>
<path d="M130.231 36.4602C129.819 36.2666 129.407 36.0488 129.019 35.8068C129.092 35.4196 129.261 35.0808 129.455 34.742C129.552 34.5968 129.601 34.5968 129.673 34.742C129.892 35.226 130.085 35.7342 130.207 36.2666C130.231 36.3392 130.231 36.3876 130.231 36.4602Z" fill="#EFA87F"/>
<path d="M134.423 10.3234C134.423 9.35536 135.223 8.58093 136.217 8.58093C137.235 8.58093 138.131 9.45216 138.131 10.4444C138.131 11.3882 137.332 12.1868 136.338 12.1868C135.296 12.1868 134.423 11.3398 134.423 10.3234ZM134.932 10.3234C134.932 11.0736 135.587 11.7028 136.362 11.7028C137.089 11.7028 137.647 11.1462 137.647 10.4686C137.647 9.71837 136.992 9.08915 136.217 9.08915C135.514 9.08915 134.932 9.64577 134.932 10.3234Z" fill="#FBBB8F"/>
<path d="M131.83 11.7755C131.83 11.8481 131.806 11.8965 131.757 11.9449C131.709 12.0175 131.661 12.0659 131.612 12.1385C131.515 12.2837 131.467 12.4047 131.588 12.5499C131.685 12.6709 131.685 12.8645 131.636 13.0097C131.612 13.1065 131.636 13.1549 131.709 13.2275C132.46 13.9051 133.212 14.5828 133.939 15.2604C134.011 15.333 134.084 15.3572 134.181 15.3088C134.254 15.2604 134.326 15.2362 134.423 15.2604C134.569 15.2846 134.617 15.212 134.69 15.1152C134.787 14.9458 134.884 14.7764 135.029 14.6312C135.15 14.5102 135.272 14.486 135.369 14.5828C135.49 14.6796 135.49 14.8248 135.393 14.9458C135.223 15.1636 135.078 15.3814 134.981 15.6476C134.908 15.7928 134.811 15.8412 134.641 15.7928C134.496 15.7444 134.375 15.7686 134.278 15.9138C134.181 16.0348 134.036 16.0348 133.89 15.9138C133.454 15.5266 133.018 15.1394 132.606 14.7522C132.145 14.3407 131.709 13.9293 131.249 13.5179C131.127 13.3969 131.079 13.2759 131.152 13.1065C131.224 12.9613 131.224 12.8161 131.055 12.6951C130.958 12.6467 130.958 12.5257 130.982 12.4289C131.079 12.1385 131.2 11.8723 131.418 11.6545C131.491 11.5819 131.588 11.5335 131.709 11.5819C131.757 11.6061 131.806 11.6787 131.83 11.7755Z" fill="#FBBB8F"/>
<path d="M105.511 45.1968C105.536 45.222 105.536 45.222 105.511 45.222V45.1968Z" fill="#E26126"/>
<path d="M134.932 10.3235C134.932 9.64585 135.514 9.08923 136.241 9.08923C137.017 9.08923 137.671 9.74265 137.671 10.4687C137.671 11.1463 137.089 11.7029 136.386 11.7029C135.587 11.7029 134.932 11.0737 134.932 10.3235Z" fill="#D32329"/>
</g>
<defs>
<linearGradient id="paint0_linear_1_11929" x1="115.143" y1="11.7457" x2="115.143" y2="1.56985" gradientUnits="userSpaceOnUse">
<stop stop-color="#CE8E6B"/>
<stop offset="1" stop-color="#F6B287"/>
</linearGradient>
<clipPath id="clip0_1_11929">
<path d="M0.645996 0.8125H181.633V65.6947H0.645996V0.8125Z" fill="white"/>
</clipPath>
</defs>
</svg>
