<svg width="18" height="18" viewBox="0 0 18 18" fill="none" xmlns="http://www.w3.org/2000/svg">
<path d="M12.6972 16.9521H1.98251C1.33078 16.9521 0.799316 16.4002 0.799316 15.7233V1.58151C0.799316 0.900606 1.33078 0.348633 1.98251 0.348633H11.8321C12.4838 0.348633 13.0153 0.900606 13.0153 1.57748V7.50817C13.0153 7.68947 12.8718 7.83855 12.6972 7.83855C12.0144 7.83855 11.3433 8.01582 10.7498 8.35426C10.7032 8.38246 10.6606 8.40664 10.6218 8.43081C10.4394 8.54362 10.261 8.67255 10.1019 8.81357C10.0981 8.81759 10.0981 8.81759 10.0942 8.82162C9.16702 9.62742 8.63168 10.8079 8.63168 12.065C8.63168 14.3937 10.455 16.2914 12.7011 16.2914C12.8757 16.2914 13.0192 16.4405 13.0192 16.6218C13.0153 16.8031 12.8718 16.9521 12.6972 16.9521ZM1.98251 1.00939C1.67992 1.00939 1.43553 1.26322 1.43553 1.57748V15.7193C1.43553 16.0335 1.67992 16.2874 1.98251 16.2874H10.3308C9.98556 16.0779 9.66358 15.82 9.37263 15.5178C8.48426 14.5952 7.99547 13.3663 7.99547 12.0609C7.99547 10.6065 8.61228 9.23661 9.69073 8.30591L9.69461 8.30188C9.69461 8.30188 9.69461 8.30188 9.69849 8.29785C9.8847 8.13669 10.0864 7.98762 10.2998 7.85869C10.3463 7.83049 10.3968 7.80229 10.4511 7.77005C11.0446 7.43162 11.708 7.2342 12.383 7.18585V1.57748C12.383 1.26322 12.1386 1.00939 11.836 1.00939H1.98251Z" fill="#5F5F5F" stroke="#5F5F5F" stroke-width="0.1"/>
<path d="M10.5987 5.81059H3.2163C3.04173 5.81059 2.89819 5.66151 2.89819 5.48021V2.65991C2.89819 2.4786 3.04173 2.32953 3.2163 2.32953H10.5987C10.7732 2.32953 10.9168 2.4786 10.9168 2.65991V5.48021C10.9168 5.66151 10.7732 5.81059 10.5987 5.81059ZM3.5344 5.14983H10.2806V2.99028H3.5344V5.14983Z" fill="#5F5F5F" stroke="#5F5F5F" stroke-width="0.1"/>
<path d="M4.6788 8.89097H3.2163C3.04173 8.89097 2.89819 8.7419 2.89819 8.56059V7.18267C2.89819 7.00137 3.04173 6.85229 3.2163 6.85229H4.6788C4.85337 6.85229 4.99691 7.00137 4.99691 7.18267V8.56059C4.99691 8.7419 4.85337 8.89097 4.6788 8.89097ZM3.5344 8.23021H4.3607V7.51708H3.5344V8.23021Z" fill="#5F5F5F" stroke="#5F5F5F" stroke-width="0.1"/>
<path d="M7.63938 8.89097H6.17687C6.0023 8.89097 5.85876 8.7419 5.85876 8.56059V7.18267C5.85876 7.00137 6.0023 6.85229 6.17687 6.85229H7.63938C7.81395 6.85229 7.95748 7.00137 7.95748 7.18267V8.56059C7.95748 8.7419 7.81395 8.89097 7.63938 8.89097ZM6.49497 8.23021H7.32127V7.51708H6.49497V8.23021Z" fill="#5F5F5F" stroke="#5F5F5F" stroke-width="0.1"/>
<path d="M12.6966 16.9507C11.4397 16.9507 10.2604 16.443 9.36813 15.5204C8.47976 14.5978 7.99097 13.3689 7.99097 12.0635C7.99097 10.609 8.60778 9.23918 9.68623 8.30848L9.69011 8.30445L9.69399 8.30042C9.8802 8.13926 10.0819 7.99019 10.2953 7.86126C10.3457 7.82903 10.3923 7.80083 10.4466 7.77262C11.1332 7.38181 11.9091 7.17633 12.6966 7.17633C12.7199 7.17633 12.7431 7.17633 12.7664 7.17633C13.8992 7.19245 14.9854 7.63564 15.8311 8.41726C16.4944 9.0337 16.9755 9.82741 17.2199 10.7098C17.3401 11.1449 17.4022 11.6002 17.4022 12.0635C17.4022 12.3496 17.3789 12.6316 17.3324 12.9136C17.2005 13.6993 16.8785 14.4487 16.4013 15.0772C15.5013 16.2658 14.1513 16.9507 12.6966 16.9507ZM10.0936 8.81613C9.16252 9.62193 8.63106 10.8065 8.63106 12.0635C8.63106 14.3923 10.4543 16.2899 12.7005 16.2899C13.9574 16.2899 15.125 15.6977 15.9048 14.6703C16.316 14.1264 16.5953 13.4777 16.7078 12.8008C16.7505 12.5591 16.7699 12.3133 16.7699 12.0675C16.7699 11.6687 16.7156 11.2738 16.6108 10.8991C16.4013 10.1376 15.9863 9.44869 15.4121 8.91686C14.6828 8.23999 13.7401 7.85723 12.7625 7.84112C12.7431 7.84112 12.7237 7.84112 12.7043 7.84112C12.0216 7.84112 11.3505 8.01839 10.7569 8.35683C10.7104 8.381 10.6716 8.40518 10.6289 8.43338C10.4466 8.54619 10.272 8.67512 10.1091 8.81613C10.0974 8.81211 10.0974 8.81211 10.0936 8.81613Z" fill="#5F5F5F" stroke="#5F5F5F" stroke-width="0.1"/>
<path d="M9.89657 8.89097H9.13622C8.96165 8.89097 8.81812 8.7419 8.81812 8.56059V7.18267C8.81812 7.00137 8.96165 6.85229 9.13622 6.85229H10.5987C10.7733 6.85229 10.9168 7.00137 10.9168 7.18267V8.06502C10.9168 8.18589 10.8548 8.29871 10.75 8.35511C10.7035 8.38332 10.6608 8.40749 10.622 8.43166C10.4397 8.54448 10.2612 8.6734 10.1022 8.81442C10.044 8.86277 9.97028 8.89097 9.89657 8.89097ZM9.45433 8.23021H9.78407C9.93924 8.10129 10.1061 7.98444 10.2806 7.87566V7.51708H9.45433V8.23021Z" fill="#5F5F5F" stroke="#5F5F5F" stroke-width="0.1"/>
<path d="M4.6788 11.9679H3.2163C3.04173 11.9679 2.89819 11.8188 2.89819 11.6375V10.2596C2.89819 10.0783 3.04173 9.9292 3.2163 9.9292H4.6788C4.85337 9.9292 4.99691 10.0783 4.99691 10.2596V11.6375C4.99691 11.8188 4.85337 11.9679 4.6788 11.9679ZM3.5344 11.3071H4.3607V10.594H3.5344V11.3071Z" fill="#5F5F5F" stroke="#5F5F5F" stroke-width="0.1"/>
<path d="M7.63938 11.9679H6.17687C6.0023 11.9679 5.85876 11.8188 5.85876 11.6375V10.2596C5.85876 10.0783 6.0023 9.9292 6.17687 9.9292H7.63938C7.81395 9.9292 7.95748 10.0783 7.95748 10.2596V11.6375C7.95748 11.8188 7.81395 11.9679 7.63938 11.9679ZM6.49497 11.3071H7.32127V10.594H6.49497V11.3071Z" fill="#5F5F5F" stroke="#5F5F5F" stroke-width="0.1"/>
<path d="M4.6788 15.0464H3.2163C3.04173 15.0464 2.89819 14.8974 2.89819 14.716V13.3381C2.89819 13.1568 3.04173 13.0078 3.2163 13.0078H4.6788C4.85337 13.0078 4.99691 13.1568 4.99691 13.3381V14.716C4.99691 14.8974 4.85337 15.0464 4.6788 15.0464ZM3.5344 14.3857H4.3607V13.6725H3.5344V14.3857Z" fill="#5F5F5F" stroke="#5F5F5F" stroke-width="0.1"/>
<path d="M7.63938 15.0464H6.17687C6.0023 15.0464 5.85876 14.8974 5.85876 14.716V13.3381C5.85876 13.1568 6.0023 13.0078 6.17687 13.0078H7.63938C7.81395 13.0078 7.95748 13.1568 7.95748 13.3381V14.716C7.95748 14.8974 7.81395 15.0464 7.63938 15.0464ZM6.49497 14.3857H7.32127V13.6725H6.49497V14.3857Z" fill="#5F5F5F" stroke="#5F5F5F" stroke-width="0.1"/>
<path d="M12.7936 12.2904C12.9992 12.1816 13.1777 12.0245 13.3212 11.8351C13.4376 11.6619 13.5152 11.4604 13.554 11.2469H14.1592C14.1592 11.2469 14.2755 11.0857 14.4811 10.7674C14.4811 10.7674 14.4811 10.7554 14.4695 10.7554H13.5423C13.5036 10.5539 13.426 10.3807 13.2979 10.2195H14.1592C14.2755 10.0583 14.3919 9.89719 14.4811 9.72394H11.2419C11.2303 9.72394 11.1255 9.8851 10.9199 10.2034V10.2155H11.7695C11.9363 10.2155 12.0915 10.2558 12.2467 10.3081C12.4639 10.3766 12.6462 10.5338 12.7626 10.7352H11.2458C11.2458 10.7352 11.1294 10.8964 10.9238 11.2147C10.9238 11.2147 10.9238 11.2268 10.9354 11.2268H12.8635C12.8635 11.3073 12.8518 11.3718 12.8247 11.4403C12.6579 11.9197 12.2079 12.1615 11.5018 12.1615C11.3738 12.1615 11.2303 12.1615 11.1023 12.1333V12.6127C11.1023 12.6248 11.7307 13.3863 13.007 14.9214H13.7014C13.713 14.9214 13.713 14.9213 13.713 14.9093V14.8166L12.1186 12.8142C12.041 12.7336 11.9635 12.6288 11.9014 12.5201C12.2001 12.5322 12.5221 12.4516 12.7936 12.2904Z" fill="#5F5F5F" stroke="#5F5F5F" stroke-width="0.1"/>
</svg>
